<?xml version="1.0" encoding="UTF-8"?>
<svg id="Layer_1" data-name="Layer 1" xmlns="http://www.w3.org/2000/svg" xmlns:xlink="http://www.w3.org/1999/xlink" viewBox="0 0 546.26 156.69">
  <defs>
    <style>
      .cls-1, .cls-2 {
        fill: #864c13;
      }

      .cls-3, .cls-4, .cls-5, .cls-6, .cls-7, .cls-2, .cls-8, .cls-9, .cls-10, .cls-11, .cls-12, .cls-13, .cls-14, .cls-15, .cls-16, .cls-17, .cls-18 {
        isolation: isolate;
      }

      .cls-3, .cls-4, .cls-6, .cls-2, .cls-11, .cls-14 {
        opacity: .55;
      }

      .cls-3, .cls-19 {
        fill: #ff3b3b;
      }

      .cls-20, .cls-5, .cls-8, .cls-9, .cls-10, .cls-11 {
        fill: #0a0d14;
      }

      .cls-4 {
        fill: url(#radial-gradient);
      }

      .cls-21, .cls-7 {
        fill: #5a311b;
      }

      .cls-5 {
        stroke: #0a0d14;
        stroke-width: 3px;
      }

      .cls-5, .cls-22 {
        stroke-linecap: round;
      }

      .cls-5, .cls-9, .cls-23, .cls-18 {
        opacity: .35;
      }

      .cls-6, .cls-24 {
        fill: #fff3bf;
      }

      .cls-7 {
        opacity: .95;
      }

      .cls-22 {
        stroke: rgba(10, 13, 20, .25);
        stroke-width: 2px;
      }

      .cls-8 {
        opacity: .25;
      }

      .cls-10, .cls-17 {
        opacity: .65;
      }

      .cls-12 {
        fill: #495310;
        opacity: .75;
      }

      .cls-13 {
        fill: #929598;
        opacity: .92;
      }

      .cls-14 {
        fill: #08090c;
      }

      .cls-25 {
        fill: #66741d;
      }

      .cls-26 {
        fill: #99611e;
      }

      .cls-27, .cls-15 {
        fill: #566414;
      }

      .cls-15 {
        opacity: .9;
      }

      .cls-16 {
        fill: #454b52;
        opacity: .5;
      }

      .cls-17 {
        fill: #13161c;
      }

      .cls-18 {
        fill: #fff;
      }
    </style>
    <radialGradient id="radial-gradient" cx="617.39" cy="949.63" fx="617.39" fy="949.63" r=".85" gradientTransform="translate(-186318.55 -58068.25) scale(302.3 61.28)" gradientUnits="userSpaceOnUse">
      <stop offset="0" stop-color="#ffe88a" stop-opacity=".9"/>
      <stop offset=".4" stop-color="#ffe88a" stop-opacity=".3"/>
      <stop offset="1" stop-color="#ffe88a" stop-opacity="0"/>
    </radialGradient>
  </defs>
  <g>
    <path class="cls-21" d="M513.53,125.25h-198c-4-4-5-8-2-14,6-12,22-20,48-20h120c26,4,40,12,44,24,3,6-2,10-12,10Z"/>
    <path class="cls-7" d="M433.53,125.25c0-16,12-28,28-28,16,0,28,12,28,28h-56Z"/>
    <path class="cls-7" d="M315.53,125.25c0-16,12-28,28-28,16,0,28,12,28,28h-56Z"/>
    <path class="cls-26" d="M507.53,113.25h-194c-7-4-8-11-4-18,6-10,26-18,54-18h108c30,6,48,18,52,30,2,5-6,6-16,6Z"/>
    <path class="cls-2" d="M507.53,93.25c-12,2-26,4-44,4h-86c-18,0-36-2-50-4,8-8,24-14,46-14h86c22,2,38,6,48,14Z"/>
    <path class="cls-9" d="M411.53,87.25v34c0,1.1-.9,2-2,2h0c-1.1,0-2-.9-2-2v-34c0-1.1.9-2,2-2h0c1.1,0,2,.9,2,2Z"/>
    <path class="cls-8" d="M451.53,86.75v29c0,.83-.67,1.5-1.5,1.5h0c-.83,0-1.5-.67-1.5-1.5v-29c0-.83.67-1.5,1.5-1.5h0c.83,0,1.5.67,1.5,1.5Z"/>
    <path class="cls-13" d="M457.53,77.25h-108s10-14,10-14c6-8,14-12,26-12h26c24,0,46,8,58,26,2,0-4,0-12,0Z"/>
    <path class="cls-18" d="M449.53,67.25c-24-2-52-4-80-6,28-6,58-6,76-2l4,8Z"/>
    <path class="cls-18" d="M381.53,61.25c-8,2-16,4-24,6,6-6,14-10,22-12l2,6Z"/>
    <path class="cls-10" d="M397.53,89.25c-14,2-26,2-34,0,0-12,6-20,18-20,10,0,16,6,18,16l-2,4Z"/>
    <g>
      <path class="cls-25" d="M384.23,77.72c-8-6-12-14-14-22-2-10,2-20,12-26,8-4,18-4,26,0s12,12,10,20c-2,12-12,18-16,24-4,8-12,10-18,4Z"/>
      <path class="cls-25" d="M360.23,33.72c-8-2-12-8-10-14s10-8,20-6c8,2,16,8,22,14-6,2-12,4-18,4s-10,2-14,2Z"/>
      <path class="cls-5" d="M360.23,25.72c8,2,16,2,24,0"/>
      <circle class="cls-11" cx="362.23" cy="19.72" r="2.2"/>
      <path class="cls-27" d="M394.23,63.72c-6-6-10-10-16-12-2,0-4,2-2,4,6,6,10,10,16,14l2-6Z"/>
      <path class="cls-5" d="M402.23,65.72c-6-2-12-4-18-6"/>
      <path class="cls-12" d="M396.23,31.72c3.31,0,6,1.79,6,4s-2.69,4-6,4-6-1.79-6-4c0-2.21,2.69-4,6-4Z"/>
      <path class="cls-12" d="M402.23,44.22c2.76,0,5,1.57,5,3.5s-2.24,3.5-5,3.5-5-1.57-5-3.5,2.24-3.5,5-3.5Z"/>
      <path class="cls-12" d="M372.23,38.22c2.76,0,5,1.57,5,3.5s-2.24,3.5-5,3.5-5-1.57-5-3.5c0-1.93,2.24-3.5,5-3.5Z"/>
      <path class="cls-15" d="M412.23,33.72l10-8-2,12-8-4ZM414.23,41.72l10-6-2,12-8-6ZM412.23,51.72l10-4-2,12-8-8Z"/>
    </g>
    <g>
      <ellipse class="cls-11" cx="357.53" cy="93.25" rx="10" ry="6"/>
      <ellipse class="cls-9" cx="357.53" cy="93.25" rx="6" ry="3"/>
    </g>
    <g>
      <g>
        <circle class="cls-20" cx="461.53" cy="127.25" r="22"/>
        <circle class="cls-14" cx="461.53" cy="127.25" r="18"/>
        <circle class="cls-17" cx="461.53" cy="127.25" r="12"/>
        <circle class="cls-16" cx="461.53" cy="127.25" r="5"/>
        <path class="cls-22" d="M453.53,127.25h16M461.53,135.25v-16M455.53,133.25l12-12M467.53,133.25l-12-12"/>
      </g>
      <g>
        <circle class="cls-20" cx="343.53" cy="127.25" r="22"/>
        <circle class="cls-14" cx="343.53" cy="127.25" r="18"/>
        <circle class="cls-17" cx="343.53" cy="127.25" r="12"/>
        <circle class="cls-16" cx="343.53" cy="127.25" r="5"/>
        <path class="cls-22" d="M335.53,127.25h16M343.53,135.25v-16M337.53,133.25l12-12M349.53,133.25l-12-12"/>
      </g>
    </g>
    <g class="cls-23">
      <circle class="cls-1" cx="503.53" cy="83.25" r="6"/>
      <circle class="cls-1" cx="489.53" cy="87.25" r="4.5"/>
      <circle class="cls-1" cx="327.53" cy="83.25" r="7"/>
      <circle class="cls-1" cx="339.53" cy="87.25" r="4.5"/>
    </g>
  </g>
  <g>
    <circle class="cls-19" cx="515.53" cy="97.25" r="5"/>
    <circle class="cls-3" cx="515.53" cy="97.25" r="18"/>
    <circle class="cls-24" cx="305.53" cy="97.25" r="5"/>
    <circle class="cls-6" cx="305.53" cy="97.25" r="20"/>
  </g>
  <ellipse class="cls-4" cx="162.94" cy="120.73" rx="151.15" ry="30.64" transform="translate(-7.93 11.51) rotate(-3.95)"/>
</svg>