<?xml version="1.0" encoding="UTF-8"?>
<svg id="Layer_1" data-name="Layer 1" xmlns="http://www.w3.org/2000/svg" xmlns:xlink="http://www.w3.org/1999/xlink" viewBox="0 0 153.92 102.85">
  <defs>
    <style>
      .cls-1, .cls-2, .cls-3, .cls-4, .cls-5, .cls-6, .cls-7, .cls-8 {
        isolation: isolate;
      }

      .cls-1, .cls-4, .cls-5, .cls-6 {
        opacity: .55;
      }

      .cls-1, .cls-9 {
        fill: #ff3b3b;
      }

      .cls-2 {
        fill: #4a181f;
        opacity: .95;
      }

      .cls-3 {
        opacity: .9;
      }

      .cls-3, .cls-8 {
        fill: #03191d;
      }

      .cls-10 {
        fill: #10131c;
      }

      .cls-11, .cls-12, .cls-6, .cls-7 {
        fill: #0a0d14;
      }

      .cls-4 {
        fill: #040508;
      }

      .cls-13 {
        fill: url(#linear-gradient);
      }

      .cls-5, .cls-14 {
        fill: #fff3bf;
      }

      .cls-12 {
        stroke: #0a0d14;
      }

      .cls-12, .cls-8 {
        stroke-linecap: round;
        stroke-width: 4.2px;
      }

      .cls-15 {
        fill: #4b2532;
      }

      .cls-16 {
        fill: #544105;
      }

      .cls-7 {
        opacity: .92;
      }

      .cls-8 {
        opacity: .75;
        stroke: #03191d;
      }

      .cls-17 {
        fill: #592626;
      }

      .cls-18 {
        fill: #04282e;
      }
    </style>
    <linearGradient id="linear-gradient" x1="444.46" y1="764.24" x2="445.46" y2="764.24" gradientTransform="translate(18496.79 9982.19) rotate(-180) scale(41.5 12.99)" gradientUnits="userSpaceOnUse">
      <stop offset="0" stop-color="#fff3bf" stop-opacity=".42"/>
      <stop offset=".55" stop-color="#f1bb0e" stop-opacity=".18"/>
      <stop offset="1" stop-color="#f1bb0e" stop-opacity="0"/>
    </linearGradient>
  </defs>
  <path class="cls-13" d="M51.64,61.18c-16,7.44-41.5,4.83-41.5-6.66,0-8.09,25.5-8.09,41.5-.26v6.92Z"/>
  <g>
    <g>
      <ellipse class="cls-11" cx="128.14" cy="72.53" rx="10.8" ry="14.09"/>
      <ellipse class="cls-10" cx="128.14" cy="72.53" rx="6.7" ry="8.74"/>
      <ellipse class="cls-3" cx="128.14" cy="72.53" rx="4.6" ry="6"/>
      <ellipse class="cls-6" cx="128.14" cy="72.53" rx="2" ry="2.61"/>
      <ellipse class="cls-11" cx="50.14" cy="72.53" rx="10.8" ry="14.09"/>
      <ellipse class="cls-10" cx="50.14" cy="72.53" rx="6.7" ry="8.74"/>
      <ellipse class="cls-3" cx="50.14" cy="72.53" rx="4.6" ry="6"/>
      <ellipse class="cls-6" cx="50.14" cy="72.53" rx="2" ry="2.61"/>
    </g>
    <g>
      <path class="cls-17" d="M141.34,73.84h-45.6c-2.8,0-4.6-2.61-4.1-6.79l1.7-13.31c.8-6,3.8-9.92,8.8-9.92h16c15.5,0,25.5,9.14,26,22.19.2,5.22-.8,7.83-2.8,7.83Z"/>
      <path class="cls-10" d="M107.64,73.45h-47.5c0-3.26,2-5.48,5-5.48h39c2,0,3.5,2.09,3.5,5.48Z"/>
      <path class="cls-17" d="M76.14,42.52l2.4,23.75c.4,4.44-1.6,7.57-5.4,7.57h-15c-3.2,0-5.5-2.61-5.5-6.53v-22.71c0-4.7,3-7.96,7-7.96h14.5c1,0,1.6,2.35,2,5.87Z"/>
      <path class="cls-11" d="M120.14,49.82h-36.5c-1.5-4.18,2-8.35,8.5-8.35h26c3.5,0,4.2,5.09,2,8.35Z"/>
      <path class="cls-4" d="M117.14,47.74h-29.9c-1-2.09,1.3-4.7,5.9-4.7h23s1,4.7,1,4.7Z"/>
      <path class="cls-11" d="M68.14,40.95l2,10.83c.4,2.35-.6,4.44-2.4,4.44h-2.6c-1.8,0-3.6-1.7-4-4.31l-1.8-10.7c-.6-3.65,1.8-6.79,5.6-6.79,2,0,2.8,2.87,3.2,6.53Z"/>
      <path class="cls-12" d="M52.14,34.16h20"/>
      <path class="cls-8" d="M52.14,34.16h7"/>
      <ellipse class="cls-3" cx="51.94" cy="34.16" rx="2.6" ry="3.39"/>
    </g>
    <g>
      <ellipse class="cls-15" cx="90.64" cy="23.59" rx="4.3" ry="5.61"/>
      <path class="cls-11" d="M93.34,24.51c-1.1,2.35-4,2.61-5.4,1.04-1.7,1.57-3.8,0-3.6-2.87-2-1.57-1.4-5.35,1-6,.6-3.39,4.2-4.44,6.2-2.09,2.6.52,4.6,3.13,3.2,7.05.4,1.31-.4,2.61-1.4,2.87Z"/>
      <path class="cls-16" d="M108.14,41.21c1,5.61-1,9.4-5.2,9.4h-17c-4.1,0-6.7-3.39-5.8-9.4,1-6.53,4.4-11.75,9.2-13.57,5-1.83,9.8-1.04,12.8,3.13,3.2,2.35,5.1,5.48,6,10.44Z"/>
      <path class="cls-2" d="M96.14,39.38c-2.9,1.7-7,1.7-9,0l3.6-8.61c1.4-1.57,3.4-1.57,4.6,0l.8,8.61Z"/>
      <path class="cls-7" d="M84.54,45.91c-5-.52-11.4-2.61-16.6-5.22l1.2-4.7c5,2.35,11,4.18,16,4.7l-.6,5.22Z"/>
      <ellipse class="cls-15" cx="67.64" cy="38.47" rx="1.8" ry="2.35"/>
      <path class="cls-18" d="M104.94,56.61l-5.2,16.05c-.6,2.09-1.8,3.26-3.6,3.26h-8.8c-1.8,0-3-1.83-2.2-4.18l5.6-14.62c1.6-4.18,5.2-6.79,9.4-6.79s5.8,3.13,4.8,6.26Z"/>
      <path class="cls-7" d="M93.14,53.22c.6,3.13-.8,7.05-3.2,9.92l-8.6,10.18c-1,1.17-2,1.83-3.4,1.83h-5c-2.4,0-3.2-3.26-1.8-4.96l8.6-10.7c3-3.65,7.4-6,11.4-6.26h2Z"/>
      <path class="cls-11" d="M83.94,76.71h-11.4c-.2-1.44.8-2.61,2.4-2.61h8.6s.4,2.61.4,2.61Z"/>
      <path class="cls-11" d="M101.34,77.1h-9.8c-.2-1.44.8-2.48,2.4-2.48h7s.4,2.48.4,2.48Z"/>
    </g>
  </g>
  <g>
    <ellipse class="cls-9" cx="142.14" cy="60.13" rx="1.4" ry="1.83"/>
    <ellipse class="cls-1" cx="142.14" cy="60.13" rx="4.2" ry="5.48"/>
    <ellipse class="cls-14" cx="51.34" cy="49.96" rx="1.6" ry="2.09"/>
    <ellipse class="cls-5" cx="51.34" cy="49.96" rx="4.8" ry="6.26"/>
  </g>
</svg>