<?xml version="1.0" encoding="UTF-8"?>
<svg id="Layer_1" data-name="Layer 1" xmlns="http://www.w3.org/2000/svg" xmlns:xlink="http://www.w3.org/1999/xlink" viewBox="0 0 655.03 198.5">
  <defs>
    <style>
      .cls-1, .cls-2, .cls-3, .cls-4, .cls-5, .cls-6, .cls-7, .cls-8, .cls-9, .cls-10, .cls-11 {
        isolation: isolate;
      }

      .cls-1, .cls-2, .cls-12 {
        fill: #ff3b3b;
      }

      .cls-1, .cls-3 {
        opacity: .5;
      }

      .cls-2, .cls-4, .cls-7, .cls-9, .cls-10, .cls-11 {
        opacity: .55;
      }

      .cls-13 {
        fill: #668695;
      }

      .cls-14 {
        fill: #10131c;
      }

      .cls-15, .cls-8, .cls-16 {
        fill: #0a0d14;
      }

      .cls-3 {
        fill: #6b7686;
      }

      .cls-4 {
        fill: url(#radial-gradient);
      }

      .cls-17 {
        fill: #10151c;
      }

      .cls-5 {
        fill: #e6edf3;
        opacity: .9;
      }

      .cls-7, .cls-18 {
        fill: #fff2b0;
      }

      .cls-19 {
        fill: #2a3440;
      }

      .cls-20 {
        fill: #1b222c;
      }

      .cls-8 {
        opacity: .6;
      }

      .cls-16 {
        stroke: #0a0d14;
        stroke-linecap: round;
        stroke-width: 2.2px;
      }

      .cls-9 {
        fill: url(#radial-gradient-2);
      }

      .cls-10 {
        fill: url(#radial-gradient-3);
      }

      .cls-11 {
        fill: url(#radial-gradient-4);
      }
    </style>
    <radialGradient id="radial-gradient" cx="-32.57" cy="1074.03" fx="-32.57" fy="1074.03" r=".52" gradientTransform="translate(10061.33 -65668.28) scale(302.3 61.28)" gradientUnits="userSpaceOnUse">
      <stop offset="0" stop-color="#ffe88a" stop-opacity=".9"/>
      <stop offset=".4" stop-color="#ffe88a" stop-opacity=".3"/>
      <stop offset="1" stop-color="#ffe88a" stop-opacity="0"/>
    </radialGradient>
    <radialGradient id="radial-gradient-2" cx="-34.02" cy="1077.39" fx="-34.02" fy="1077.39" r=".63" gradientTransform="translate(66540.69 4663.33) rotate(90) scale(132.98 61.28)" gradientUnits="userSpaceOnUse">
      <stop offset="0" stop-color="#ffefc1" stop-opacity=".9"/>
      <stop offset=".4" stop-color="#ffefc1" stop-opacity=".3"/>
      <stop offset="1" stop-color="#ffefc1" stop-opacity="0"/>
    </radialGradient>
    <radialGradient id="radial-gradient-3" cx="-34.01" cy="1076.36" fx="-34.01" fy="1076.36" r=".63" gradientTransform="translate(66540.68 4661.41) rotate(90) scale(132.98 61.28)" xlink:href="#radial-gradient-2"/>
    <radialGradient id="radial-gradient-4" cx="-34.03" cy="1078.49" fx="-34.03" fy="1078.49" r=".64" gradientTransform="translate(66540.62 4665.4) rotate(90) scale(132.98 61.28)" xlink:href="#radial-gradient-2"/>
  </defs>
  <ellipse class="cls-4" cx="124.13" cy="143.2" rx="92.17" ry="18.68" transform="translate(-4.34 3.88) rotate(-1.76)"/>
  <g>
    <g>
      <rect class="cls-13" x="416.61" y="30.55" width="211.35" height="105.09" rx=".8" ry=".8" transform="translate(1044.58 166.19) rotate(-180)"/>
      <g class="cls-6">
        <path d="M596.27,44.28h4.38v14.06s8.57-14.06,8.57-14.06h4.39v21.33h-4.39v-14.03s-8.55,14.03-8.55,14.03h-4.39v-21.33Z"/>
        <path d="M588.28,44.28h4.82s-7,13.59-7,13.59v7.73h-4.47v-7.73s-7-13.59-7-13.59h4.8s4.44,9.61,4.44,9.61l4.41-9.61Z"/>
        <path d="M554.12,44.28h4.39v8.64s8.57,0,8.57,0v-8.64h4.39v21.33h-4.39v-9.14s-8.57,0-8.57,0v9.14h-4.39v-21.33Z"/>
        <path d="M536.25,52.93h8.44s0-5.08,0-5.08h-9.87v-3.56h14.27v21.33h-14.3v-3.53h9.9s0-5.71,0-5.71h-8.44v-3.44Z"/>
        <path d="M524.4,65.61c-1.87,0-3.54-.44-5.02-1.29s-2.63-2.05-3.45-3.59-1.22-3.31-1.22-5.29v-.98c0-1.98.42-3.75,1.25-5.31s1.98-2.76,3.46-3.6c1.48-.84,3.16-1.27,5.03-1.27h6.56v21.33h-6.61ZM524.45,47.84c-1.73,0-3.04.56-3.94,1.68s-1.35,2.76-1.35,4.93v1.13c.02,2.09.48,3.7,1.39,4.82s2.22,1.68,3.94,1.68h2.12s0-14.24,0-14.24h-2.17Z"/>
        <path d="M500.13,61.8c.59.42,1.4.64,2.45.64,2.81,0,4.22-1.18,4.22-3.53h4.41c0,1.38-.35,2.59-1.06,3.63s-1.74,1.87-3.08,2.47-2.84.9-4.48.9c-2.36,0-4.24-.52-5.64-1.57s-2.09-2.5-2.09-4.34c0-1.66.57-3.05,1.71-4.16s2.96-2.05,5.46-2.8c1.36-.41,2.39-.85,3.08-1.32s1.05-1.05,1.05-1.74c0-.74-.3-1.34-.89-1.79s-1.43-.68-2.5-.68-1.98.27-2.59.81-.92,1.3-.92,2.28h-4.39c0-1.28.33-2.42.99-3.43.66-1.01,1.58-1.78,2.78-2.34s2.55-.83,4.07-.83,2.88.25,4.09.76c1.21.51,2.15,1.21,2.8,2.12.65.9.97,1.93.97,3.08,0,2.22-1.21,3.98-3.63,5.29-.89.48-2.09.96-3.62,1.46s-2.58.96-3.16,1.41-.88,1.08-.88,1.91c0,.76.29,1.35.88,1.78Z"/>
        <path d="M473.33,44.28h4.38v14.06s8.57-14.06,8.57-14.06h4.39v21.33h-4.39v-14.03s-8.55,14.03-8.55,14.03h-4.39v-21.33Z"/>
        <path d="M454.77,65.61h-4.67s7.98-21.33,7.98-21.33h4.07s7.94,21.33,7.94,21.33h-4.67s-1.46-4.39-1.46-4.39h-7.71s-1.48,4.39-1.48,4.39ZM460.12,49.67l-2.68,7.98h5.33s-2.65-7.98-2.65-7.98Z"/>
        <path d="M432.61,44.28h17.37v3.56h-6.45s0,17.77,0,17.77h-4.39v-17.77s-6.53,0-6.53,0v-3.56Z"/>
      </g>
      <g class="cls-6">
        <path d="M613.22,96.12h-1.74v-6.1s-5.1,0-5.1,0v-1.44h5.1s0-4.48,0-4.48h-5.52v-1.46h7.26v13.48Z"/>
        <path d="M602.68,96.08c-.88.1-1.92.16-3.16.16-2.62,0-4.7-.68-5.96-1.94-1.26-1.24-1.94-3.04-1.94-5.24s.7-3.74,1.9-4.84c1.18-1.1,2.96-1.68,5.46-1.68,1.38,0,2.64.12,3.7.28v13.26ZM600.94,84.1c-.46-.1-1.14-.18-2.04-.18-3.68,0-5.48,2.02-5.46,5.2,0,3.64,2.02,5.72,5.74,5.72.68,0,1.32-.02,1.76-.1v-10.64Z"/>
        <path d="M588.56,96.12h-1.74v-6.1s-5.1,0-5.1,0v-1.44h5.1s0-4.48,0-4.48h-5.52v-1.46h7.26v13.48Z"/>
        <path d="M570.38,96.12h-7.5v-1.46h5.76s0-12.02,0-12.02h1.74v13.48Z"/>
        <path d="M553.24,96.12c.12-.66.16-1.48.16-2.32v-3.62c0-1.94.72-3.96,3.68-3.96,1.22,0,2.38.34,3.18.86l-.4,1.16c-.68-.44-1.62-.72-2.52-.72-1.98,0-2.2,1.44-2.2,2.24v.2c3.74-.02,5.82,1.26,5.82,3.6,0,1.4-1,2.78-2.96,2.78-1.38,0-2.42-.68-2.96-1.44h-.06s-.14,1.22-.14,1.22h-1.6ZM555.1,92.86c0,.18.04.38.1.56.28.82,1.08,1.62,2.34,1.62.9,0,1.66-.54,1.66-1.68,0-1.88-2.18-2.22-4.1-2.18v1.68Z"/>
        <path d="M549.76,96.12h-1.76v-5.82c0-.3-.04-.6-.12-.82-.3-.98-1.2-1.8-2.36-1.8-1.66,0-2.24,1.3-2.24,2.86v5.58h-1.76v-5.78c0-3.32,2.08-4.12,3.42-4.12,1.6,0,2.72.9,3.2,1.82h.04s.1-1.6.1-1.6h1.56c-.06.8-.08,1.62-.08,2.62v7.06Z"/>
        <path d="M531.26,81.92v5.78s.04,0,.04,0c.44-.78,1.44-1.48,2.92-1.48,2.36,0,4.36,1.98,4.34,5.2,0,2.94-1.8,4.92-4.14,4.92-1.58,0-2.76-.82-3.3-1.9h-.04s-.08,1.68-.08,1.68h-1.58c.06-.66.08-1.64.08-2.5v-11.7h1.76ZM531.26,92.06c0,.28.02.52.08.76.32,1.32,1.4,2.1,2.58,2.1,1.9,0,2.86-1.62,2.86-3.58,0-2.14-1.08-3.74-2.9-3.74-1.32,0-2.28.92-2.54,2.04-.06.22-.08.52-.08.74v1.68Z"/>
        <path d="M526.46,95.66c-.68.4-1.66.66-2.72.66-2.3,0-3.62-1.2-3.62-2.9,0-1.44.86-2.28,2.54-2.92,1.26-.48,1.84-.84,1.84-1.64,0-.72-.58-1.32-1.62-1.32-.9,0-1.6.32-1.98.56l-.44-1.28c.54-.32,1.4-.6,2.38-.6,2.08,0,3.34,1.28,3.34,2.84,0,1.16-.82,2.12-2.56,2.74-1.3.48-1.8.94-1.8,1.78s.6,1.44,1.88,1.44c.88,0,1.8-.36,2.32-.7l.44,1.34Z"/>
        <path d="M510.46,81.92v5.78s.04,0,.04,0c.44-.78,1.44-1.48,2.92-1.48,2.36,0,4.36,1.98,4.34,5.2,0,2.94-1.8,4.92-4.14,4.92-1.58,0-2.76-.82-3.3-1.9h-.04s-.08,1.68-.08,1.68h-1.58c.06-.66.08-1.64.08-2.5v-11.7h1.76ZM510.46,92.06c0,.28.02.52.08.76.32,1.32,1.4,2.1,2.58,2.1,1.9,0,2.86-1.62,2.86-3.58,0-2.14-1.08-3.74-2.9-3.74-1.32,0-2.28.92-2.54,2.04-.06.22-.08.52-.08.74v1.68Z"/>
        <path d="M497.2,91.6c-.02-.18-.06-.46-.06-.82,0-1.78.84-4.56,4-4.56,2.82,0,4.54,2.3,4.54,5.22s-1.78,4.88-4.76,4.88c-1.54,0-2.6-.32-3.22-.6l.3-1.26c.66.28,1.42.5,2.68.5,1.76,0,3.28-.98,3.32-3.36h-6.8ZM503.98,90.34c-.14-1.22-.92-2.86-2.7-2.86-1.98,0-2.46,1.74-2.44,2.86h5.14Z"/>
        <path d="M494.16,96.12h-1.76v-14.2h1.76v14.2Z"/>
        <path d="M474.46,96.12v-3.54s-1.82,0-1.82,0v-1.38h1.82s0-8.08,0-8.08h1.9s5.8,8.3,5.8,8.3v1.16h-6.04s0,3.54,0,3.54h-1.66ZM480.39,91.2v-.04s-3.18-4.42-3.18-4.42c-.36-.6-.68-1.16-1.08-1.92h-.06c.04.68.06,1.36.06,2.04v4.34s4.26,0,4.26,0Z"/>
      </g>
    </g>
    <circle class="cls-15" cx="535.12" cy="154.66" r="18.76"/>
  </g>
  <path class="cls-16" d="M367.24,137.37h37.61"/>
  <g>
    <path class="cls-20" d="M346.9,139.24h-158.56s9.15-12.53,9.15-12.53c12.2-16.95,30.49-27.26,54.88-27.26h48.79c33.54,0,57.93,16.21,64.03,38.31,2.44-1.47-4.88,1.47-18.29,1.47Z"/>
    <path class="cls-17" d="M367.64,145.34c0,3.66-2.44,6.1-8.54,6.1h-164.65c-6.1,0-9.15-2.44-9.15-6.1,0-2.44,3.05-6.1,9.15-6.1h158.56c9.76,0,14.64,2.44,14.64,6.1Z"/>
    <path class="cls-5" d="M324.95,116.07c2.44,6.27,1.22,10.97-2.44,10.97h-88.43c6.1-12.54,18.29-20.38,30.49-20.38h51.84c3.66,0,6.1,3.14,8.54,9.41Z"/>
    <path class="cls-8" d="M296.9,107.69v19.23c0,.76-.82,1.37-1.83,1.37h0c-1.01,0-1.83-.62-1.83-1.37v-19.23c0-.76.82-1.37,1.83-1.37h0c1.01,0,1.83.62,1.83,1.37Z"/>
    <path class="cls-8" d="M278.6,107.69v19.23c0,.76-.82,1.37-1.83,1.37h0c-1.01,0-1.83-.62-1.83-1.37v-19.23c0-.76.82-1.37,1.83-1.37h0c1.01,0,1.83.62,1.83,1.37Z"/>
    <g>
      <g>
        <circle class="cls-15" cx="316.41" cy="156.32" r="15.86"/>
        <circle class="cls-19" cx="316.41" cy="156.32" r="10.98"/>
        <circle class="cls-3" cx="316.41" cy="156.32" r="3.66"/>
      </g>
      <g>
        <circle class="cls-15" cx="231.04" cy="156.32" r="15.86"/>
        <circle class="cls-19" cx="231.04" cy="156.32" r="10.98"/>
        <circle class="cls-3" cx="231.04" cy="156.32" r="3.66"/>
      </g>
    </g>
    <circle class="cls-12" cx="351.78" cy="136.81" r="3.66"/>
    <circle class="cls-1" cx="351.78" cy="136.81" r="10.98"/>
    <circle class="cls-18" cx="188.35" cy="136.81" r="3.66"/>
    <circle class="cls-7" cx="188.35" cy="136.81" r="7.43"/>
  </g>
  <ellipse class="cls-9" cx="523.32" cy="90.43" rx="22.67" ry="49.21" transform="translate(-2.53 16.12) rotate(-1.76)"/>
  <ellipse class="cls-10" cx="586.01" cy="89.22" rx="22.85" ry="49.58" transform="translate(-2.46 18.05) rotate(-1.76)"/>
  <ellipse class="cls-11" cx="455.97" cy="89.24" rx="23.23" ry="50.41" transform="translate(-2.53 14.05) rotate(-1.76)"/>
  <path class="cls-14" d="M638.77,149.72h-241.91s13.08-17.28,13.08-17.28h222.29s6.54,17.28,6.54,17.28Z"/>
  <circle class="cls-14" cx="535.12" cy="154.66" r="11.36"/>
  <circle class="cls-2" cx="632.52" cy="138.05" r="11.85"/>
  <circle class="cls-12" cx="632.52" cy="137.49" r="3.95"/>
</svg>