<?xml version="1.0" encoding="UTF-8"?>
<svg id="Layer_1" data-name="Layer 1" xmlns="http://www.w3.org/2000/svg" xmlns:xlink="http://www.w3.org/1999/xlink" viewBox="0 0 655.03 198.5">
  <defs>
    <style>
      .cls-1, .cls-2, .cls-3, .cls-4, .cls-5, .cls-6, .cls-7, .cls-8, .cls-9, .cls-10, .cls-11 {
        isolation: isolate;
      }

      .cls-1, .cls-2, .cls-12 {
        fill: #ff3b3b;
      }

      .cls-1, .cls-3 {
        opacity: .5;
      }

      .cls-2, .cls-4, .cls-7, .cls-9, .cls-10, .cls-11 {
        opacity: .55;
      }

      .cls-13 {
        fill: #668695;
      }

      .cls-14 {
        fill: #10131c;
      }

      .cls-15, .cls-8, .cls-16 {
        fill: #0a0d14;
      }

      .cls-3 {
        fill: #6b7686;
      }

      .cls-4 {
        fill: url(#radial-gradient);
      }

      .cls-17 {
        fill: #10151c;
      }

      .cls-5 {
        fill: #e6edf3;
        opacity: .9;
      }

      .cls-7, .cls-18 {
        fill: #fff2b0;
      }

      .cls-19 {
        fill: #2a3440;
      }

      .cls-20 {
        fill: #1b222c;
      }

      .cls-8 {
        opacity: .6;
      }

      .cls-16 {
        stroke: #0a0d14;
        stroke-linecap: round;
        stroke-width: 2.2px;
      }

      .cls-9 {
        fill: url(#radial-gradient-2);
      }

      .cls-10 {
        fill: url(#radial-gradient-3);
      }

      .cls-11 {
        fill: url(#radial-gradient-4);
      }
    </style>
    <radialGradient id="radial-gradient" cx="-32.57" cy="1074.03" fx="-32.57" fy="1074.03" r=".52" gradientTransform="translate(66363.72 -9794) rotate(-90) scale(302.3 -61.28)" gradientUnits="userSpaceOnUse">
      <stop offset="0" stop-color="#ffe88a" stop-opacity=".9"/>
      <stop offset=".4" stop-color="#ffe88a" stop-opacity=".3"/>
      <stop offset="1" stop-color="#ffe88a" stop-opacity="0"/>
    </radialGradient>
    <radialGradient id="radial-gradient-2" cx="-34.02" cy="1077.39" fx="-34.02" fy="1077.39" r=".63" gradientTransform="translate(-4419.85 -65926.94) rotate(-180) scale(132.98 -61.28)" gradientUnits="userSpaceOnUse">
      <stop offset="0" stop-color="#ffefc1" stop-opacity=".9"/>
      <stop offset=".4" stop-color="#ffefc1" stop-opacity=".3"/>
      <stop offset="1" stop-color="#ffefc1" stop-opacity="0"/>
    </radialGradient>
    <radialGradient id="radial-gradient-3" cx="-34.01" cy="1076.36" fx="-34.01" fy="1076.36" r=".63" gradientTransform="translate(-4481.83 -65865.45) rotate(-180) scale(132.98 -61.28)" xlink:href="#radial-gradient-2"/>
    <radialGradient id="radial-gradient-4" cx="-34.03" cy="1078.49" fx="-34.03" fy="1078.49" r=".64" gradientTransform="translate(-4355.76 -65995.41) rotate(-180) scale(132.98 -61.28)" xlink:href="#radial-gradient-2"/>
  </defs>
  <ellipse class="cls-4" cx="552.24" cy="143.2" rx="18.68" ry="92.17" transform="translate(392.15 690.78) rotate(-88.24)"/>
  <g>
    <g>
      <rect class="cls-13" x="48.41" y="30.55" width="211.35" height="105.09" rx=".8" ry=".8"/>
      <g class="cls-6">
        <path d="M80.11,65.61h-4.39s-8.55-14.03-8.55-14.03v14.03s-4.39,0-4.39,0v-21.33s4.39,0,4.39,0l8.57,14.06v-14.06h4.38v21.33Z"/>
        <path d="M92.5,53.89l4.44-9.61h4.8l-7,13.59v7.73s-4.47,0-4.47,0v-7.73s-7-13.59-7-13.59h4.82l4.41,9.61Z"/>
        <path d="M122.25,65.61h-4.39v-9.14h-8.57v9.14s-4.39,0-4.39,0v-21.33s4.39,0,4.39,0v8.64h8.57v-8.64s4.39,0,4.39,0v21.33Z"/>
        <path d="M140.12,56.37h-8.44s0,5.71,0,5.71h9.9v3.53h-14.3v-21.33s14.27,0,14.27,0v3.56s-9.87,0-9.87,0v5.08h8.44v3.44Z"/>
        <path d="M145.36,65.61v-21.33s6.56,0,6.56,0c1.88,0,3.55.42,5.03,1.27,1.48.84,2.63,2.05,3.46,3.6s1.25,3.33,1.25,5.31v.98c0,1.98-.41,3.75-1.22,5.29s-1.96,2.74-3.45,3.59-3.16,1.28-5.02,1.29h-6.61ZM149.76,47.84v14.24h2.12c1.72,0,3.03-.56,3.94-1.68s1.37-2.73,1.39-4.82v-1.13c0-2.17-.45-3.81-1.35-4.93s-2.21-1.68-3.94-1.68h-2.17Z"/>
        <path d="M177.12,60.02c0-.83-.29-1.47-.88-1.91s-1.64-.91-3.16-1.41-2.73-.98-3.62-1.46c-2.42-1.31-3.63-3.07-3.63-5.29,0-1.15.32-2.18.97-3.08.65-.9,1.58-1.61,2.8-2.12,1.22-.51,2.58-.76,4.09-.76s2.88.28,4.07.83,2.12,1.33,2.78,2.34c.66,1.01.99,2.15.99,3.43h-4.39c0-.98-.31-1.74-.92-2.28s-1.48-.81-2.59-.81-1.91.23-2.5.68-.89,1.05-.89,1.79c0,.69.35,1.27,1.05,1.74s1.73.91,3.08,1.32c2.5.75,4.32,1.68,5.46,2.8s1.71,2.5,1.71,4.16c0,1.85-.7,3.29-2.09,4.34s-3.28,1.57-5.64,1.57c-1.64,0-3.13-.3-4.48-.9s-2.38-1.42-3.08-2.47-1.06-2.26-1.06-3.63h4.41c0,2.35,1.41,3.53,4.22,3.53,1.04,0,1.86-.21,2.45-.64s.88-1.02.88-1.78Z"/>
        <path d="M203.05,65.61h-4.39l-8.55-14.03v14.03s-4.39,0-4.39,0v-21.33s4.39,0,4.39,0l8.57,14.06v-14.06h4.38v21.33Z"/>
        <path d="M220.12,61.22h-7.71l-1.46,4.39h-4.67l7.94-21.33h4.07l7.98,21.33h-4.67l-1.48-4.39ZM213.61,57.66h5.33l-2.68-7.98-2.65,7.98Z"/>
        <path d="M243.77,47.84h-6.53v17.77s-4.39,0-4.39,0v-17.77h-6.45v-3.56s17.37,0,17.37,0v3.56Z"/>
      </g>
      <g class="cls-6">
        <path d="M63.16,82.64h7.26s0,1.46,0,1.46h-5.52v4.48h5.1s0,1.44,0,1.44h-5.1v6.1s-1.74,0-1.74,0v-13.48Z"/>
        <path d="M73.7,82.82c1.06-.16,2.32-.28,3.7-.28,2.5,0,4.28.58,5.46,1.68,1.2,1.1,1.9,2.66,1.9,4.84,0,2.2-.68,4-1.94,5.24-1.26,1.26-3.34,1.94-5.96,1.94-1.24,0-2.28-.06-3.16-.16v-13.26ZM75.44,94.74c.44.08,1.08.1,1.76.1,3.72,0,5.74-2.08,5.74-5.72.02-3.18-1.78-5.2-5.46-5.2-.9,0-1.58.08-2.04.18v10.64Z"/>
        <path d="M87.82,82.64h7.26v1.46h-5.52s0,4.48,0,4.48h5.1v1.44h-5.1s0,6.1,0,6.1h-1.74v-13.48Z"/>
        <path d="M105.99,82.64h1.74v12.02h5.76v1.46h-7.5v-13.48Z"/>
        <path d="M121.53,96.12l-.14-1.22h-.06c-.54.76-1.58,1.44-2.96,1.44-1.96,0-2.96-1.38-2.96-2.78s2.08-3.62,5.82-3.6v-.2c0-.8-.22-2.24-2.2-2.24-.9,0-1.84.28-2.52.72l-.4-1.16c.8-.52,1.96-.86,3.18-.86,2.96,0,3.68,2.02,3.68,3.96v3.62c0,.84.04,1.66.16,2.32h-1.6ZM121.27,91.18c-1.92-.04-4.1.3-4.1,2.18,0,1.14.76,1.68,1.66,1.68,1.26,0,2.06-.8,2.34-1.62.06-.18.1-.38.1-.56v-1.68Z"/>
        <path d="M126.61,89.06c0-1-.02-1.82-.08-2.62h1.56l.1,1.6h.04c.48-.92,1.6-1.82,3.2-1.82,1.34,0,3.42.8,3.42,4.12v5.78h-1.76v-5.58c0-1.56-.58-2.86-2.24-2.86-1.16,0-2.06.82-2.36,1.8-.08.22-.12.52-.12.82v5.82h-1.76v-7.06Z"/>
        <path d="M146.87,81.92v11.7c0,.86.02,1.84.08,2.5h-1.58l-.08-1.68h-.04c-.54,1.08-1.72,1.9-3.3,1.9-2.34,0-4.14-1.98-4.14-4.92-.02-3.22,1.98-5.2,4.34-5.2,1.48,0,2.48.7,2.92,1.48h.04v-5.78s1.76,0,1.76,0ZM145.11,90.38c0-.22-.02-.52-.08-.74-.26-1.12-1.22-2.04-2.54-2.04-1.82,0-2.9,1.6-2.9,3.74,0,1.96.96,3.58,2.86,3.58,1.18,0,2.26-.78,2.58-2.1.06-.24.08-.48.08-.76v-1.68Z"/>
        <path d="M150.35,94.32c.52.34,1.44.7,2.32.7,1.28,0,1.88-.64,1.88-1.44,0-.84-.5-1.3-1.8-1.78-1.74-.62-2.56-1.58-2.56-2.74s1.26-2.84,3.34-2.84c.98,0,1.84.28,2.38.6l-.44,1.28c-.38-.24-1.08-.56-1.98-.56-1.04,0-1.62.6-1.62,1.32,0,.8.58,1.16,1.84,1.64,1.68.64,2.54,1.48,2.54,2.92,0,1.7-1.32,2.9-3.62,2.9-1.06,0-2.04-.26-2.72-.66l.44-1.34Z"/>
        <path d="M167.67,81.92v11.7c0,.86.02,1.84.08,2.5h-1.58l-.08-1.68h-.04c-.54,1.08-1.72,1.9-3.3,1.9-2.34,0-4.14-1.98-4.14-4.92-.02-3.22,1.98-5.2,4.34-5.2,1.48,0,2.48.7,2.92,1.48h.04v-5.78s1.76,0,1.76,0ZM165.91,90.38c0-.22-.02-.52-.08-.74-.26-1.12-1.22-2.04-2.54-2.04-1.82,0-2.9,1.6-2.9,3.74,0,1.96.96,3.58,2.86,3.58,1.18,0,2.26-.78,2.58-2.1.06-.24.08-.48.08-.76v-1.68Z"/>
        <path d="M172.37,91.6c.04,2.38,1.56,3.36,3.32,3.36,1.26,0,2.02-.22,2.68-.5l.3,1.26c-.62.28-1.68.6-3.22.6-2.98,0-4.76-1.96-4.76-4.88,0-2.92,1.72-5.22,4.54-5.22,3.16,0,4,2.78,4,4.56,0,.36-.04.64-.06.82h-6.8ZM177.53,90.34c.02-1.12-.46-2.86-2.44-2.86-1.78,0-2.56,1.64-2.7,2.86h5.14Z"/>
        <path d="M182.21,81.92h1.76v14.2s-1.76,0-1.76,0v-14.2Z"/>
        <path d="M200.25,96.12v-3.54h-6.04s0-1.16,0-1.16l5.8-8.3h1.9v8.08s1.82,0,1.82,0v1.38h-1.82v3.54s-1.66,0-1.66,0ZM200.25,91.2v-4.34c0-.68.02-1.36.06-2.04h-.06c-.4.76-.72,1.32-1.08,1.92l-3.18,4.42v.04h4.26Z"/>
      </g>
    </g>
    <path class="cls-15" d="M141.25,135.89c10.36,0,18.76,8.4,18.76,18.76,0,10.36-8.4,18.76-18.76,18.76-10.36,0-18.76-8.4-18.76-18.76,0-10.36,8.4-18.76,18.76-18.76Z"/>
  </g>
  <path class="cls-16" d="M271.53,137.37h37.61"/>
  <g>
    <path class="cls-20" d="M311.17,137.77c6.1-22.1,30.49-38.31,64.03-38.31h48.79c24.39,0,42.69,10.32,54.88,27.26l9.15,12.53h-158.56c-13.42,0-20.73-2.95-18.29-1.47Z"/>
    <path class="cls-17" d="M323.37,139.24h158.56c6.1,0,9.15,3.66,9.15,6.1,0,3.66-3.05,6.1-9.15,6.1h-164.65c-6.1,0-8.54-2.44-8.54-6.1,0-3.66,4.88-6.1,14.64-6.1Z"/>
    <path class="cls-5" d="M359.96,106.67h51.84c12.2,0,24.39,7.84,30.49,20.38h-88.43c-3.66,0-4.88-4.7-2.44-10.97,2.44-6.27,4.88-9.41,8.54-9.41Z"/>
    <path class="cls-8" d="M381.3,106.31h0c1.01,0,1.83.62,1.83,1.37v19.23c0,.76-.82,1.37-1.83,1.37h0c-1.01,0-1.83-.62-1.83-1.37v-19.23c0-.76.82-1.37,1.83-1.37Z"/>
    <path class="cls-8" d="M399.6,106.31h0c1.01,0,1.83.62,1.83,1.37v19.23c0,.76-.82,1.37-1.83,1.37h0c-1.01,0-1.83-.62-1.83-1.37v-19.23c0-.76.82-1.37,1.83-1.37Z"/>
    <g>
      <g>
        <path class="cls-15" d="M359.96,140.46c8.76,0,15.86,7.1,15.86,15.86s-7.1,15.86-15.86,15.86c-8.76,0-15.86-7.1-15.86-15.86s7.1-15.86,15.86-15.86Z"/>
        <path class="cls-19" d="M359.96,145.34c6.06,0,10.98,4.91,10.98,10.98,0,6.06-4.91,10.98-10.98,10.98-6.06,0-10.98-4.91-10.98-10.98,0-6.06,4.91-10.98,10.98-10.98Z"/>
        <path class="cls-3" d="M359.96,152.66c2.02,0,3.66,1.64,3.66,3.66s-1.64,3.66-3.66,3.66-3.66-1.64-3.66-3.66,1.64-3.66,3.66-3.66Z"/>
      </g>
      <g>
        <circle class="cls-15" cx="445.34" cy="156.32" r="15.86"/>
        <circle class="cls-19" cx="445.34" cy="156.32" r="10.98"/>
        <circle class="cls-3" cx="445.34" cy="156.32" r="3.66"/>
      </g>
    </g>
    <path class="cls-12" d="M324.59,133.15c2.02,0,3.66,1.64,3.66,3.66s-1.64,3.66-3.66,3.66-3.66-1.64-3.66-3.66,1.64-3.66,3.66-3.66Z"/>
    <path class="cls-1" d="M324.59,125.83c6.06,0,10.98,4.91,10.98,10.98s-4.91,10.98-10.98,10.98c-6.06,0-10.98-4.91-10.98-10.98,0-6.06,4.91-10.98,10.98-10.98Z"/>
    <path class="cls-18" d="M488.02,133.15c2.02,0,3.66,1.64,3.66,3.66s-1.64,3.66-3.66,3.66-3.66-1.64-3.66-3.66,1.64-3.66,3.66-3.66Z"/>
    <circle class="cls-7" cx="488.02" cy="136.81" r="7.43"/>
  </g>
  <ellipse class="cls-9" cx="153.06" cy="90.43" rx="49.21" ry="22.67" transform="translate(57.97 240.63) rotate(-88.24)"/>
  <ellipse class="cls-10" cx="90.36" cy="89.22" rx="49.58" ry="22.85" transform="translate(-1.59 176.79) rotate(-88.24)"/>
  <ellipse class="cls-11" cx="220.4" cy="89.24" rx="50.41" ry="23.23" transform="translate(124.43 306.8) rotate(-88.24)"/>
  <path class="cls-14" d="M44.14,132.44h222.29s13.08,17.28,13.08,17.28H37.6s6.54-17.28,6.54-17.28Z"/>
  <circle class="cls-14" cx="141.25" cy="154.66" r="11.36"/>
  <circle class="cls-2" cx="43.85" cy="138.05" r="11.85"/>
  <circle class="cls-12" cx="43.85" cy="137.49" r="3.95"/>
</svg>