<?xml version="1.0" encoding="UTF-8"?>
<svg id="Layer_1" data-name="Layer 1" xmlns="http://www.w3.org/2000/svg" xmlns:xlink="http://www.w3.org/1999/xlink" viewBox="0 0 655.03 198.5">
  <defs>
    <style>
      .cls-1, .cls-2, .cls-3, .cls-4, .cls-5, .cls-6, .cls-7, .cls-8, .cls-9, .cls-10, .cls-11 {
        isolation: isolate;
      }

      .cls-1, .cls-2, .cls-12 {
        fill: #ff3b3b;
      }

      .cls-1, .cls-3 {
        opacity: .5;
      }

      .cls-2, .cls-4, .cls-7, .cls-9, .cls-10, .cls-11 {
        opacity: .55;
      }

      .cls-13 {
        fill: #10131c;
      }

      .cls-14, .cls-8, .cls-15 {
        fill: #0a0d14;
      }

      .cls-3 {
        fill: #6b7686;
      }

      .cls-4 {
        fill: url(#radial-gradient);
      }

      .cls-16 {
        fill: #10151c;
      }

      .cls-17 {
        fill: #7ca4b6;
      }

      .cls-5 {
        fill: #e6edf3;
        opacity: .9;
      }

      .cls-7, .cls-18 {
        fill: #fff2b0;
      }

      .cls-19 {
        fill: #2a3440;
      }

      .cls-20 {
        fill: #1b222c;
      }

      .cls-8 {
        opacity: .6;
      }

      .cls-15 {
        stroke: #0a0d14;
        stroke-linecap: round;
        stroke-width: 2.2px;
      }

      .cls-9 {
        fill: url(#radial-gradient-2);
      }

      .cls-10 {
        fill: url(#radial-gradient-3);
      }

      .cls-11 {
        fill: url(#radial-gradient-4);
      }
    </style>
    <radialGradient id="radial-gradient" cx="-30.74" cy="802.18" fx="-30.74" fy="802.18" r=".52" gradientTransform="translate(9509.11 -49010.45) scale(302.3 61.28)" gradientUnits="userSpaceOnUse">
      <stop offset="0" stop-color="#ffe88a" stop-opacity=".9"/>
      <stop offset=".4" stop-color="#ffe88a" stop-opacity=".3"/>
      <stop offset="1" stop-color="#ffe88a" stop-opacity="0"/>
    </radialGradient>
    <radialGradient id="radial-gradient-2" cx="-30.02" cy="801.16" fx="-30.02" fy="801.16" r=".64" gradientTransform="translate(61561.8 4139.52) rotate(90) scale(132.98 76.18)" gradientUnits="userSpaceOnUse">
      <stop offset="0" stop-color="#fff5cd" stop-opacity=".9"/>
      <stop offset=".4" stop-color="#fff5cd" stop-opacity=".3"/>
      <stop offset="1" stop-color="#fff5cd" stop-opacity="0"/>
    </radialGradient>
    <radialGradient id="radial-gradient-3" cx="-30.01" cy="799.96" fx="-30.01" fy="799.96" gradientTransform="translate(58464.5 4137.48) rotate(90) scale(132.98 72.34)" xlink:href="#radial-gradient-2"/>
    <radialGradient id="radial-gradient-4" cx="-30.07" cy="802.32" fx="-30.07" fy="802.32" gradientTransform="translate(62037.11 4141.66) rotate(90) scale(132.98 76.75)" xlink:href="#radial-gradient-2"/>
  </defs>
  <ellipse class="cls-4" cx="124.13" cy="143.2" rx="92.17" ry="18.68" transform="translate(-4.34 3.88) rotate(-1.76)"/>
  <g>
    <g>
      <rect class="cls-17" x="416.61" y="30.55" width="211.35" height="105.09" rx=".8" ry=".8" transform="translate(1044.58 166.19) rotate(-180)"/>
      <g class="cls-6">
        <path d="M445.95,65.61h-4.39l-8.55-14.03v14.03h-4.39v-21.33h4.39l8.57,14.06v-14.06h4.38v21.33Z"/>
        <path d="M458.34,53.89l4.44-9.61h4.8l-7,13.59v7.73h-4.47v-7.73l-7-13.59h4.82l4.41,9.61Z"/>
        <path d="M488.09,65.61h-4.39v-9.14h-8.57v9.14h-4.39v-21.33h4.39v8.64h8.57v-8.64h4.39v21.33Z"/>
        <path d="M505.96,56.37h-8.44v5.71h9.9v3.53h-14.3v-21.33h14.27v3.56h-9.87v5.08h8.44v3.44Z"/>
        <path d="M511.21,65.61v-21.33h6.56c1.88,0,3.55.42,5.03,1.27,1.48.84,2.63,2.05,3.46,3.6s1.25,3.33,1.25,5.31v.98c0,1.98-.41,3.75-1.22,5.29s-1.96,2.74-3.45,3.59-3.16,1.28-5.02,1.29h-6.61ZM515.6,47.84v14.24h2.12c1.72,0,3.03-.56,3.94-1.68s1.37-2.73,1.39-4.82v-1.13c0-2.17-.45-3.81-1.35-4.93s-2.21-1.68-3.94-1.68h-2.17Z"/>
        <path d="M542.96,60.02c0-.83-.29-1.47-.88-1.91s-1.64-.91-3.16-1.41-2.73-.98-3.62-1.46c-2.42-1.31-3.63-3.07-3.63-5.29,0-1.15.32-2.18.97-3.08.65-.9,1.58-1.61,2.8-2.12,1.22-.51,2.58-.76,4.09-.76s2.88.28,4.07.83,2.12,1.33,2.78,2.34c.66,1.01.99,2.15.99,3.43h-4.39c0-.98-.31-1.74-.92-2.28s-1.48-.81-2.59-.81-1.91.23-2.5.68-.89,1.05-.89,1.79c0,.69.35,1.27,1.05,1.74s1.73.91,3.08,1.32c2.5.75,4.32,1.68,5.46,2.8s1.71,2.5,1.71,4.16c0,1.85-.7,3.29-2.09,4.34s-3.28,1.57-5.64,1.57c-1.64,0-3.13-.3-4.48-.9s-2.38-1.42-3.08-2.47-1.06-2.26-1.06-3.63h4.41c0,2.35,1.41,3.53,4.22,3.53,1.04,0,1.86-.21,2.45-.64s.88-1.02.88-1.78Z"/>
        <path d="M568.89,65.61h-4.39l-8.55-14.03v14.03h-4.39v-21.33h4.39l8.57,14.06v-14.06h4.38v21.33Z"/>
        <path d="M585.97,61.22h-7.71l-1.46,4.39h-4.67l7.94-21.33h4.07l7.98,21.33h-4.67l-1.48-4.39ZM579.45,57.66h5.33l-2.68-7.98-2.65,7.98Z"/>
        <path d="M609.61,47.84h-6.53v17.77h-4.39v-17.77h-6.45v-3.56h17.37v3.56Z"/>
      </g>
      <g class="cls-6">
        <path d="M429,82.64h7.26v1.46h-5.52v4.48h5.1v1.44h-5.1v6.1h-1.74v-13.48Z"/>
        <path d="M439.54,82.82c1.06-.16,2.32-.28,3.7-.28,2.5,0,4.28.58,5.46,1.68,1.2,1.1,1.9,2.66,1.9,4.84s-.68,4-1.94,5.24c-1.26,1.26-3.34,1.94-5.96,1.94-1.24,0-2.28-.06-3.16-.16v-13.26ZM441.28,94.74c.44.08,1.08.1,1.76.1,3.72,0,5.74-2.08,5.74-5.72.02-3.18-1.78-5.2-5.46-5.2-.9,0-1.58.08-2.04.18v10.64Z"/>
        <path d="M453.66,82.64h7.26v1.46h-5.52v4.48h5.1v1.44h-5.1v6.1h-1.74v-13.48Z"/>
        <path d="M471.84,82.64h1.74v12.02h5.76v1.46h-7.5v-13.48Z"/>
        <path d="M487.38,96.12l-.14-1.22h-.06c-.54.76-1.58,1.44-2.96,1.44-1.96,0-2.96-1.38-2.96-2.78,0-2.34,2.08-3.62,5.82-3.6v-.2c0-.8-.22-2.24-2.2-2.24-.9,0-1.84.28-2.52.72l-.4-1.16c.8-.52,1.96-.86,3.18-.86,2.96,0,3.68,2.02,3.68,3.96v3.62c0,.84.04,1.66.16,2.32h-1.6ZM487.12,91.18c-1.92-.04-4.1.3-4.1,2.18,0,1.14.76,1.68,1.66,1.68,1.26,0,2.06-.8,2.34-1.62.06-.18.1-.38.1-.56v-1.68Z"/>
        <path d="M492.46,89.06c0-1-.02-1.82-.08-2.62h1.56l.1,1.6h.04c.48-.92,1.6-1.82,3.2-1.82,1.34,0,3.42.8,3.42,4.12v5.78h-1.76v-5.58c0-1.56-.58-2.86-2.24-2.86-1.16,0-2.06.82-2.36,1.8-.08.22-.12.52-.12.82v5.82h-1.76v-7.06Z"/>
        <path d="M512.72,81.92v11.7c0,.86.02,1.84.08,2.5h-1.58l-.08-1.68h-.04c-.54,1.08-1.72,1.9-3.3,1.9-2.34,0-4.14-1.98-4.14-4.92-.02-3.22,1.98-5.2,4.34-5.2,1.48,0,2.48.7,2.92,1.48h.04v-5.78h1.76ZM510.96,90.38c0-.22-.02-.52-.08-.74-.26-1.12-1.22-2.04-2.54-2.04-1.82,0-2.9,1.6-2.9,3.74,0,1.96.96,3.58,2.86,3.58,1.18,0,2.26-.78,2.58-2.1.06-.24.08-.48.08-.76v-1.68Z"/>
        <path d="M516.2,94.32c.52.34,1.44.7,2.32.7,1.28,0,1.88-.64,1.88-1.44,0-.84-.5-1.3-1.8-1.78-1.74-.62-2.56-1.58-2.56-2.74,0-1.56,1.26-2.84,3.34-2.84.98,0,1.84.28,2.38.6l-.44,1.28c-.38-.24-1.08-.56-1.98-.56-1.04,0-1.62.6-1.62,1.32,0,.8.58,1.16,1.84,1.64,1.68.64,2.54,1.48,2.54,2.92,0,1.7-1.32,2.9-3.62,2.9-1.06,0-2.04-.26-2.72-.66l.44-1.34Z"/>
        <path d="M533.52,81.92v11.7c0,.86.02,1.84.08,2.5h-1.58l-.08-1.68h-.04c-.54,1.08-1.72,1.9-3.3,1.9-2.34,0-4.14-1.98-4.14-4.92-.02-3.22,1.98-5.2,4.34-5.2,1.48,0,2.48.7,2.92,1.48h.04v-5.78h1.76ZM531.76,90.38c0-.22-.02-.52-.08-.74-.26-1.12-1.22-2.04-2.54-2.04-1.82,0-2.9,1.6-2.9,3.74,0,1.96.96,3.58,2.86,3.58,1.18,0,2.26-.78,2.58-2.1.06-.24.08-.48.08-.76v-1.68Z"/>
        <path d="M538.22,91.6c.04,2.38,1.56,3.36,3.32,3.36,1.26,0,2.02-.22,2.68-.5l.3,1.26c-.62.28-1.68.6-3.22.6-2.98,0-4.76-1.96-4.76-4.88s1.72-5.22,4.54-5.22c3.16,0,4,2.78,4,4.56,0,.36-.04.64-.06.82h-6.8ZM543.38,90.34c.02-1.12-.46-2.86-2.44-2.86-1.78,0-2.56,1.64-2.7,2.86h5.14Z"/>
        <path d="M548.06,81.92h1.76v14.2h-1.76v-14.2Z"/>
        <path d="M566.09,96.12v-3.54h-6.04v-1.16l5.8-8.3h1.9v8.08h1.82v1.38h-1.82v3.54h-1.66ZM566.09,91.2v-4.34c0-.68.02-1.36.06-2.04h-.06c-.4.76-.72,1.32-1.08,1.92l-3.18,4.42v.04h4.26Z"/>
      </g>
    </g>
    <circle class="cls-14" cx="535.12" cy="154.66" r="18.76"/>
  </g>
  <path class="cls-15" d="M367.24,137.37h37.61"/>
  <g>
    <path class="cls-20" d="M346.9,139.24h-158.56s9.15-12.53,9.15-12.53c12.2-16.95,30.49-27.26,54.88-27.26h48.79c33.54,0,57.93,16.21,64.03,38.31,2.44-1.47-4.88,1.47-18.29,1.47Z"/>
    <path class="cls-16" d="M367.64,145.34c0,3.66-2.44,6.1-8.54,6.1h-164.65c-6.1,0-9.15-2.44-9.15-6.1,0-2.44,3.05-6.1,9.15-6.1h158.56c9.76,0,14.64,2.44,14.64,6.1Z"/>
    <path class="cls-5" d="M324.95,116.07c2.44,6.27,1.22,10.97-2.44,10.97h-88.43c6.1-12.54,18.29-20.38,30.49-20.38h51.84c3.66,0,6.1,3.14,8.54,9.41Z"/>
    <path class="cls-8" d="M296.9,107.69v19.23c0,.76-.82,1.37-1.83,1.37h0c-1.01,0-1.83-.62-1.83-1.37v-19.23c0-.76.82-1.37,1.83-1.37h0c1.01,0,1.83.62,1.83,1.37Z"/>
    <path class="cls-8" d="M278.6,107.69v19.23c0,.76-.82,1.37-1.83,1.37h0c-1.01,0-1.83-.62-1.83-1.37v-19.23c0-.76.82-1.37,1.83-1.37h0c1.01,0,1.83.62,1.83,1.37Z"/>
    <g>
      <g>
        <circle class="cls-14" cx="316.41" cy="156.32" r="15.86"/>
        <circle class="cls-19" cx="316.41" cy="156.32" r="10.98"/>
        <circle class="cls-3" cx="316.41" cy="156.32" r="3.66"/>
      </g>
      <g>
        <circle class="cls-14" cx="231.04" cy="156.32" r="15.86"/>
        <circle class="cls-19" cx="231.04" cy="156.32" r="10.98"/>
        <circle class="cls-3" cx="231.04" cy="156.32" r="3.66"/>
      </g>
    </g>
    <circle class="cls-12" cx="351.78" cy="136.81" r="3.66"/>
    <circle class="cls-1" cx="351.78" cy="136.81" r="10.98"/>
    <circle class="cls-18" cx="188.35" cy="136.81" r="3.66"/>
    <circle class="cls-7" cx="188.35" cy="136.81" r="7.43"/>
  </g>
  <ellipse class="cls-9" cx="528.94" cy="96.98" rx="28.89" ry="50.42" transform="translate(-2.73 16.3) rotate(-1.76)"/>
  <ellipse class="cls-10" cx="595.22" cy="96.84" rx="27.43" ry="50.42" transform="translate(-2.69 18.33) rotate(-1.76)"/>
  <ellipse class="cls-11" cx="459.35" cy="93.08" rx="29.1" ry="50.42" transform="translate(-2.64 14.16) rotate(-1.76)"/>
  <path class="cls-13" d="M638.77,149.72h-241.91s13.08-17.28,13.08-17.28h222.29s6.54,17.28,6.54,17.28Z"/>
  <circle class="cls-13" cx="535.12" cy="154.66" r="11.36"/>
  <circle class="cls-2" cx="632.52" cy="138.05" r="11.85"/>
  <circle class="cls-12" cx="632.52" cy="137.49" r="3.95"/>
</svg>