<?xml version="1.0" encoding="UTF-8"?>
<svg id="Layer_1" data-name="Layer 1" xmlns="http://www.w3.org/2000/svg" xmlns:xlink="http://www.w3.org/1999/xlink" viewBox="0 0 828.23 288.95">
  <defs>
    <style>
      .cls-1 {
        fill: #10131c;
      }

      .cls-2 {
        opacity: .3;
      }

      .cls-2, .cls-3, .cls-4, .cls-5, .cls-6, .cls-7, .cls-8 {
        isolation: isolate;
      }

      .cls-3 {
        fill: url(#radial-gradient);
        opacity: .55;
      }

      .cls-9 {
        fill: #ffe88a;
      }

      .cls-4 {
        fill: #1b2438;
        opacity: .9;
      }

      .cls-10 {
        fill: #ff4b5c;
      }

      .cls-5 {
        fill: #0f1624;
        opacity: .65;
      }

      .cls-6 {
        fill: #0a0d14;
      }

      .cls-6, .cls-7 {
        opacity: .85;
      }

      .cls-11 {
        fill: #0c0f16;
      }

      .cls-12 {
        fill: #070a12;
      }

      .cls-7 {
        fill: #111a2a;
      }

      .cls-8 {
        fill: #2a3653;
        opacity: .8;
      }
    </style>
    <radialGradient id="radial-gradient" cx="430.79" cy="-552.23" fx="430.79" fy="-552.23" r=".85" gradientTransform="translate(-129865.55 -52774.17) scale(302.3 -96)" gradientUnits="userSpaceOnUse">
      <stop offset="0" stop-color="#ffe88a" stop-opacity=".9"/>
      <stop offset=".4" stop-color="#ffe88a" stop-opacity=".3"/>
      <stop offset="1" stop-color="#ffe88a" stop-opacity="0"/>
    </radialGradient>
  </defs>
  <g id="car">
    <ellipse class="cls-2" cx="460.05" cy="226.47" rx="170" ry="26"/>
    <ellipse class="cls-3" cx="208.48" cy="239.46" rx="151.15" ry="48"/>
    <g>
      <path class="cls-1" d="M310.05,216.47c10-26,35-40,78-46l58-8c32-30,70-42,126-40,48,2,78,16,108,40l40,6c40,6,62,22,74,48,6,14-2,24-18,28l-430,12c-22,2-40-10-40-24,0-6,2-12,4-16Z"/>
      <path class="cls-11" d="M472.05,162.47c24-24,50-34,98-32,42,2,66,14,92,34-22,2-64,4-96,4s-72-2-94-6Z"/>
      <path class="cls-6" d="M326.05,226.47c44-10,114-18,194-20,90-2,168,4,246,18-4,10-14,16-30,18l-370,12c-18,0-32-8-40-28Z"/>
    </g>
    <g>
      <path class="cls-7" d="M494.05,160.47c16-16,36-24,76-22,36,2,56,10,76,26h-80c-24,0-50-1-72-4Z"/>
      <path class="cls-5" d="M516.05,158.47c14-10,30-14,54-12,22,2,36,6,50,16h-54c-18,0-34-1-50-4Z"/>
    </g>
    <g>
      <path class="cls-6" d="M760.05,202.47c14,0,24,6,28,14-6,2-16,4-26,4s-20-2-26-6c4-8,12-12,24-12Z"/>
      <path class="cls-10" d="M762.05,208.47c10,0,18,5,20,10-6,2-12,3-19,3s-13-1-19-4c3-5,10-9,18-9Z"/>
      <path class="cls-6" d="M332.05,204.47c14,2,22,10,24,20-8,2-18,2-26,0s-14-6-16-12c4-6,10-10,18-8Z"/>
      <path class="cls-9" d="M332.05,210.47c10,2,16,8,17,14-5,2-11,2-17,0s-10-6-12-10c3-3,7-5,12-4Z"/>
    </g>
    <g>
      <circle class="cls-12" cx="400.05" cy="252.47" r="28"/>
      <circle class="cls-4" cx="400.05" cy="252.47" r="18"/>
      <circle class="cls-8" cx="400.05" cy="252.47" r="6"/>
      <circle class="cls-12" cx="680.05" cy="252.47" r="28"/>
      <circle class="cls-4" cx="680.05" cy="252.47" r="18"/>
      <circle class="cls-8" cx="680.05" cy="252.47" r="6"/>
    </g>
  </g>
</svg>