<?xml version="1.0" encoding="UTF-8"?>
<svg id="Layer_2" data-name="Layer 2" xmlns="http://www.w3.org/2000/svg" xmlns:xlink="http://www.w3.org/1999/xlink" viewBox="0 0 244.67 72.8">
  <defs>
    <style>
      .cls-1 {
        fill: #2a364a;
      }

      .cls-1, .cls-2, .cls-3, .cls-4, .cls-5, .cls-6, .cls-7, .cls-8, .cls-9, .cls-10, .cls-11, .cls-12, .cls-13 {
        isolation: isolate;
      }

      .cls-1, .cls-9 {
        opacity: .75;
      }

      .cls-2, .cls-3, .cls-4, .cls-14 {
        fill: #0b0f17;
      }

      .cls-2, .cls-13 {
        opacity: .95;
      }

      .cls-3 {
        opacity: .65;
      }

      .cls-4 {
        opacity: .55;
      }

      .cls-15 {
        fill: url(#linear-gradient);
      }

      .cls-5, .cls-7, .cls-16 {
        fill: #2bff6a;
      }

      .cls-5, .cls-12 {
        opacity: .25;
      }

      .cls-6 {
        fill: #121a26;
      }

      .cls-6, .cls-8 {
        opacity: .85;
      }

      .cls-7, .cls-11 {
        opacity: .22;
      }

      .cls-17, .cls-9 {
        fill: #b7c0cc;
      }

      .cls-18 {
        fill: #0a0f17;
      }

      .cls-8 {
        fill: #cfd6df;
      }

      .cls-10 {
        fill: none;
        opacity: .28;
        stroke: #0b0f17;
        stroke-linecap: round;
        stroke-linejoin: round;
        stroke-width: 1.2px;
      }

      .cls-19, .cls-11, .cls-12 {
        fill: #ff2a2a;
      }

      .cls-20 {
        fill: #1b2536;
      }

      .cls-13 {
        fill: #1a2230;
      }
    </style>
    <linearGradient id="linear-gradient" x1="-1345.2" y1="31.37" x2="-1344.2" y2="30.37" gradientTransform="translate(158808.71 1297.3) scale(118 -41)" gradientUnits="userSpaceOnUse">
      <stop offset="0" stop-color="#f6f8fb"/>
      <stop offset=".55" stop-color="#e1e7ef"/>
      <stop offset="1" stop-color="#cfd6df"/>
    </linearGradient>
  </defs>
  <g id="drone">
    <g id="propRear">
      <ellipse class="cls-13" cx="44.73" cy="24.77" rx="38" ry="5"/>
      <ellipse class="cls-1" cx="54.73" cy="25.77" rx="26" ry="3.6"/>
      <rect class="cls-14" x="38.73" y="18.77" width="12" height="12" rx="4" ry="4"/>
    </g>
    <g id="propFront">
      <ellipse class="cls-13" cx="188.73" cy="22.77" rx="38" ry="5"/>
      <ellipse class="cls-1" cx="178.73" cy="23.77" rx="26" ry="3.6"/>
      <rect class="cls-14" x="182.73" y="16.77" width="12" height="12" rx="4" ry="4"/>
    </g>
    <path class="cls-17" d="M66.73,30.77c26-4,48-5,66-4s42-1,66-4l2,6c-24,3-48,5-68,5s-42,1-64,5l-2-8Z"/>
    <path class="cls-10" d="M68.73,35.77c26-5,46-6,64-5,19,1,43-1,66-4"/>
    <path class="cls-15" d="M80.73,22.77c10-8,29-12,54-12,22,0,42,4,52,11,5,4,8,9,8,13,0,6-5,10-12,12-11,3-27,5-46,5-21,0-38-2-48-6-8-3-12-7-12-12,0-4,1-7,4-11Z"/>
    <path class="cls-8" d="M108.73,17.77c8-3,18-4,28-4,12,0,22,2,30,6,3,2,4,5,4,8,0,2-1,4-3,5-7,4-18,6-31,6-12,0-22-2-29-5-2-1-3-3-3-6,0-4,1-8,4-10Z"/>
    <g id="gimbal">
      <path class="cls-2" d="M142.73,40.77c2-6,9-10,18-10,8,0,15,4,17,10,1,3,0,6-2,8-4,4-9,6-15,6-8,0-14-3-17-7-1-2-2-5-1-7Z"/>
      <rect class="cls-2" x="156.73" y="34.77" width="14" height="14" rx="3" ry="3"/>
      <circle class="cls-20" cx="163.73" cy="41.77" r="4.2"/>
      <circle class="cls-18" cx="163.73" cy="41.77" r="2.2"/>
      <circle class="cls-9" cx="165.23" cy="40.17" r=".8"/>
    </g>
    <g id="legs">
      <path class="cls-17" d="M74.73,34.77l-12,26c-1,2,0,4,3,4h3c2,0,3-1,4-3l11-23-9-4Z"/>
      <path class="cls-17" d="M192.73,30.77l12,28c1,2,0,4-3,4h-3c-2,0-3-1-4-3l-10-23,8-6Z"/>
      <path class="cls-10" d="M71.73,44.77l-6,14"/>
      <path class="cls-10" d="M190.73,41.77l7,15"/>
    </g>
    <g id="nav-green-1">
      <circle class="cls-16" cx="52.73" cy="50.77" r="5.2"/>
      <circle class="cls-5" cx="52.73" cy="50.77" r="9.8"/>
      <circle class="cls-6" cx="52.73" cy="49.57" r="3.4"/>
    </g>
    <g id="nav-green-2">
      <circle class="cls-16" cx="82.73" cy="46.77" r="4.6"/>
      <circle class="cls-7" cx="82.73" cy="46.77" r="9.2"/>
      <circle class="cls-6" cx="82.73" cy="45.77" r="3"/>
    </g>
    <g id="nav-red-1">
      <circle class="cls-19" cx="198.73" cy="44.77" r="5.2"/>
      <circle class="cls-12" cx="198.73" cy="44.77" r="10"/>
      <circle class="cls-6" cx="198.73" cy="43.57" r="3.4"/>
    </g>
    <g id="nav-red-2">
      <circle class="cls-19" cx="178.73" cy="48.77" r="4.6"/>
      <circle class="cls-11" cx="178.73" cy="48.77" r="9.2"/>
      <circle class="cls-6" cx="178.73" cy="47.77" r="3"/>
    </g>
    <path class="cls-10" d="M92.73,28.77c16-6,36-8,54-7s32,5,40,10"/>
    <path class="cls-10" d="M120.73,40.77c8,2,20,2,30,0"/>
    <rect class="cls-3" x="168.73" y="23.77" width="9" height="5" rx="2" ry="2"/>
    <circle class="cls-4" cx="157.73" cy="26.77" r="2.1"/>
  </g>
</svg>