<?xml version="1.0" encoding="UTF-8"?>
<svg id="Layer_1" data-name="Layer 1" xmlns="http://www.w3.org/2000/svg" viewBox="0 0 481.89 577.29">
  <defs>
    <style>
      .cls-1 {
        fill: #e5231b;
      }

      .cls-2 {
        fill: #fff;
      }

      .cls-3 {
        fill: #003253;
      }
    </style>
  </defs>
  <path class="cls-2" d="M481.16,112.76c-46.21-18.86-94.19-32.05-142.87-39.57C326.07,30.97,287.06,0,240.94,0s-85.1,30.95-97.33,73.15C94.93,80.65,46.95,93.82.74,112.65c-4.23,85.88,9.63,173.97,43.83,258.83-32.33,39.75-30,98.5,7.01,135.51,29.7,29.7,73.4,37.07,110.05,22.11,24.45,19.32,51.12,35.48,79.32,48.2,28.2-12.72,54.87-28.88,79.32-48.2,36.65,14.96,80.35,7.59,110.05-22.11,37.01-37.01,39.34-95.75,7.01-135.51,34.18-84.82,48.04-172.87,43.84-258.71Z"/>
  <path class="cls-1" d="M428.46,246.42c6.43-34.39,9.58-68.92,9.62-103.17-54.95-19.39-112.2-30.42-169.75-33.09v136.26h160.14Z"/>
  <path class="cls-1" d="M268.33,312.14v203.8c54.49-37.21,99.13-90.16,126.27-155.67,6.6-15.93,12.42-31.99,17.48-48.13h-143.75Z"/>
  <path class="cls-3" d="M481.16,112.76c-46.21-18.86-94.19-32.05-142.87-39.57C326.07,30.97,287.06,0,240.94,0s-85.1,30.95-97.33,73.15C94.93,80.65,46.95,93.82.74,112.65c-4.23,85.88,9.63,173.97,43.83,258.83-32.33,39.75-30,98.5,7.01,135.51,29.7,29.7,73.4,37.07,110.05,22.11,24.45,19.32,51.12,35.48,79.32,48.2,28.2-12.72,54.87-28.88,79.32-48.2,36.65,14.96,80.35,7.59,110.05-22.11,37.01-37.01,39.34-95.75,7.01-135.51,34.18-84.82,48.04-172.87,43.84-258.71ZM422.57,499.24c-27.94,27.94-69.77,33.72-103.46,17.35-23.97,19.89-50.27,36.61-78.17,49.86-27.9-13.25-54.19-29.97-78.17-49.86-33.69,16.37-75.52,10.59-103.46-17.35-34.53-34.53-35.21-90.28-2.06-125.65-.1-.25-.21-.5-.31-.75C22.69,290.12,8.22,204.15,11.37,120.19c45.69-18.02,93.07-30.45,141.1-37.27,8.52-41.03,44.95-71.96,88.47-71.96s79.98,30.95,88.48,72c48.03,6.85,95.41,19.3,141.1,37.34,3.13,83.93-11.34,169.86-45.58,252.54-.1.25-.21.5-.31.75,33.16,35.37,32.47,91.12-2.06,125.65Z"/>
  <polygon class="cls-3" points="146.48 277.91 146.48 288.86 125.95 288.86 125.95 301.18 109.52 301.18 109.52 257.37 153.33 257.37 153.33 269.7 125.95 269.7 125.95 277.91 146.48 277.91"/>
  <polygon class="cls-3" points="365.53 277.91 365.53 288.86 344.99 288.86 344.99 301.18 328.56 301.18 328.56 257.37 372.37 257.37 372.37 269.7 344.99 269.7 344.99 277.91 365.53 277.91"/>
  <path class="cls-3" d="M221.93,98.87c1.2-9.43,9.25-16.73,19.01-16.73s17.82,7.3,19.01,16.74c13.89.44,27.77,1.36,41.61,2.75.13-.81-.23-1.69-1.07-2.13l-18.74-9.95c-.98-.52-1.37-1.72-.88-2.72l9.32-19.06c.72-1.48-.5-3.17-2.13-2.93l-21.01,2.97c-1.1.15-2.12-.59-2.31-1.68l-3.67-20.9c-.28-1.62-2.27-2.27-3.45-1.12l-15.25,14.75c-.8.77-2.06.77-2.86,0l-15.25-14.75c-1.18-1.14-3.17-.5-3.45,1.12l-3.67,20.9c-.19,1.09-1.21,1.83-2.31,1.68l-21.01-2.97c-1.63-.23-2.86,1.46-2.13,2.93l9.32,19.06c.49.99.1,2.2-.88,2.72l-18.74,9.95c-.83.44-1.18,1.3-1.07,2.11,13.84-1.39,27.72-2.3,41.61-2.73Z"/>
  <path class="cls-3" d="M130,453.28c-6.83,2.58-14.84,1.12-20.34-4.38-6.97-6.97-7.45-17.98-1.43-25.51-7.68-11.79-14.74-24.14-21.11-37.02-.31.41-.47.93-.38,1.51l2.97,21.01c.15,1.1-.59,2.12-1.68,2.31l-20.9,3.67c-1.62.28-2.27,2.27-1.12,3.45l14.75,15.25c.77.8.77,2.06,0,2.86l-14.75,15.25c-1.14,1.18-.5,3.17,1.12,3.45l20.9,3.67c1.09.19,1.83,1.21,1.68,2.31l-2.97,21.01c-.23,1.63,1.46,2.86,2.93,2.13l19.06-9.32c.99-.49,2.2-.1,2.72.88l9.95,18.74c.77,1.45,2.86,1.45,3.63,0l9.95-18.74c.52-.98,1.72-1.37,2.72-.88l19.06,9.32c.55.27,1.14.27,1.64.07-10.01-9.72-19.5-20.08-28.39-31.05Z"/>
  <path class="cls-3" d="M415.88,418.32c1.14-1.18.5-3.17-1.12-3.45l-20.9-3.67c-1.09-.19-1.83-1.21-1.68-2.31l2.97-21.01c.08-.58-.08-1.11-.38-1.51-6.37,12.89-13.42,25.23-21.11,37.02,6.02,7.52,5.54,18.53-1.43,25.51-5.5,5.5-13.51,6.96-20.34,4.38-8.9,10.97-18.38,21.32-28.39,31.05.5.2,1.09.2,1.64-.07l19.06-9.32c.99-.49,2.2-.1,2.72.88l9.95,18.74c.77,1.45,2.86,1.45,3.63,0l9.95-18.74c.52-.98,1.72-1.37,2.72-.88l19.06,9.32c1.48.72,3.17-.5,2.93-2.13l-2.97-21.01c-.15-1.1.59-2.12,1.68-2.31l20.9-3.67c1.62-.28,2.27-2.27,1.12-3.45l-14.75-15.25c-.77-.8-.77-2.06,0-2.86l14.75-15.25Z"/>
  <path class="cls-1" d="M213.56,246.42V110.15c-57.56,2.64-114.8,13.64-169.75,33,.03,34.29,3.19,68.84,9.62,103.27h160.14Z"/>
  <path class="cls-1" d="M69.82,312.14c5.06,16.14,10.88,32.2,17.48,48.13,27.13,65.51,71.78,118.46,126.27,155.67v-203.8H69.82Z"/>
  <path class="cls-3" d="M236.07,257.37h-22.51v43.81h22.51c12.93,0,34.99,0,34.99-21.9s-22.07-21.9-34.99-21.9ZM240.94,288.86h-10.95v-19.17h10.95c9.01,0,13.69,3.13,13.69,9.58s-4.68,9.58-13.69,9.58Z"/>
</svg>