<?xml version="1.0" encoding="UTF-8"?>
<svg id="Layer_1" data-name="Layer 1" xmlns="http://www.w3.org/2000/svg" xmlns:xlink="http://www.w3.org/1999/xlink" viewBox="0 0 603.91 160">
  <defs>
    <style>
      .cls-1 {
        fill: url(#radial-gradient);
      }

      .cls-2 {
        fill: #fbcf44;
      }

      .cls-3 {
        fill: #fff;
      }

      .cls-4 {
        fill: #fffcee;
      }
    </style>
    <radialGradient id="radial-gradient" cx="135.09" cy="22.27" fx="135.09" fy="22.27" r="57.67" gradientTransform="translate(-2.73 -3.67) scale(1.05 1.11)" gradientUnits="userSpaceOnUse">
      <stop offset="0" stop-color="#e16772"/>
      <stop offset=".11" stop-color="#e25562"/>
      <stop offset=".33" stop-color="#e53b4b"/>
      <stop offset=".54" stop-color="#e7283a"/>
      <stop offset=".76" stop-color="#e81c30"/>
      <stop offset="1" stop-color="#e9192d"/>
    </radialGradient>
  </defs>
  <path class="cls-4" d="M368.86,123.32c-2.37-6.16-3.88-7.37-10.4-8.37,6.16-2.37,7.37-3.88,8.37-10.4,2.37,6.16,3.88,7.37,10.4,8.37-6.16,2.37-7.37,3.88-8.37,10.4Z"/>
  <path class="cls-4" d="M140.36,122.71c5.94-3.65,6.91-5.46,6.68-12.42,3.65,5.94,5.46,6.91,12.42,6.68-5.94,3.65-6.91,5.46-6.68,12.42-3.65-5.94-5.46-6.91-12.42-6.68Z"/>
  <path class="cls-2" d="M489.31,26.66c5.88-3.62,6.84-5.4,6.61-12.3,3.62,5.88,5.4,6.84,12.3,6.61-5.88,3.62-6.84,5.4-6.61,12.3-3.62-5.88-5.4-6.84-12.3-6.61Z"/>
  <path class="cls-4" d="M284.29,51.98c-6.61-.99-8.43-.26-12.56,4.99.99-6.61.26-8.43-4.99-12.56,6.61.99,8.43.26,12.56-4.99-.99,6.61-.26,8.43,4.99,12.56Z"/>
  <g>
    <path class="cls-2" d="M93.73,40.18h16.11l-13.59,64.26h-14.67l-15.93-38.97-8.19,38.97h-16.11l13.59-64.26h14.85l15.84,38.97,8.1-38.97Z"/>
    <path class="cls-2" d="M133.42,84.01l14.04-26.82h17.1l-29.61,49.05c-2.28,3.84-4.49,6.99-6.62,9.45-2.13,2.46-4.38,4.28-6.75,5.45-2.37,1.17-5.12,1.75-8.23,1.75-3.84,0-7.44-.78-10.8-2.34l4.68-11.52c1.56.78,3.27,1.17,5.13,1.17s3.46-.56,4.81-1.67c1.35-1.11,2.6-2.6,3.73-4.46l2.16-3.69-10.08-43.2h16.74l3.69,26.82Z"/>
    <path class="cls-2" d="M205.96,104.44h-16.2l5.94-28.17c.48-2.16.42-3.9-.18-5.22-.6-1.32-1.86-1.98-3.78-1.98-2.1,0-4.02.69-5.76,2.07-.96.72-1.74,1.55-2.34,2.47-.6.93-1.05,2.08-1.35,3.47l-5.76,27.36h-16.2l13.68-64.26h16.2l-4.68,21.78c2.1-2.1,4.3-3.66,6.62-4.68,2.31-1.02,4.69-1.53,7.15-1.53,3.54,0,6.39.84,8.55,2.52s3.61,3.95,4.37,6.79c.75,2.85.73,6.08-.04,9.67l-6.21,29.7Z"/>
    <path class="cls-2" d="M235.34,91.53c1.05,2.01,3.13,3.01,6.26,3.01,1.98,0,3.52-.43,4.63-1.3,1.11-.87,1.93-2.12,2.47-3.74h15.03c-1.14,5.1-3.72,9.11-7.74,12.02-4.02,2.91-9.24,4.37-15.66,4.37-4.68,0-8.54-.81-11.56-2.43s-5.36-3.78-6.97-6.48-2.6-5.7-2.93-9c-.33-3.3-.13-6.63.59-9.99.84-3.96,2.38-7.62,4.63-10.98,2.25-3.36,5.21-6.08,8.87-8.15,3.66-2.07,7.98-3.1,12.96-3.1,4.26,0,7.79.76,10.58,2.29,2.79,1.53,4.93,3.59,6.44,6.16,1.5,2.58,2.4,5.43,2.7,8.55.3,3.12.12,6.3-.54,9.54l-.45,2.07h-30.6c-.18,2.76.25,5.15,1.3,7.16ZM239.08,69.61c-1.5,1.8-2.64,3.87-3.42,6.21h15.3c.48-2.7.27-4.86-.63-6.48-.9-1.62-2.67-2.43-5.31-2.43-2.46,0-4.44.9-5.94,2.7Z"/>
    <path class="cls-2" d="M272.15,87.57c-.03-3.15.22-6.08.76-8.78.6-2.88,1.53-5.68,2.79-8.41s2.82-5.19,4.68-7.38c1.86-2.19,4.06-3.94,6.62-5.26,2.55-1.32,5.45-1.98,8.69-1.98,2.58,0,4.96.55,7.15,1.66,2.19,1.11,3.97,2.81,5.36,5.09l4.68-22.32h16.2l-13.59,64.26h-15.66l1.17-5.94c-1.74,2.52-3.84,4.38-6.3,5.58-2.46,1.2-4.98,1.8-7.56,1.8-3.72,0-6.68-.89-8.87-2.66-2.19-1.77-3.75-4.04-4.68-6.79-.93-2.76-1.41-5.71-1.44-8.87ZM305,74.52c-.15-1.71-.69-3.12-1.62-4.23s-2.42-1.67-4.46-1.67c-1.8,0-3.34.54-4.63,1.62-1.29,1.08-2.34,2.45-3.15,4.09-.81,1.65-1.43,3.41-1.84,5.27-.3,1.32-.5,2.73-.59,4.23s.03,2.92.36,4.27c.33,1.35.91,2.46,1.75,3.33.84.87,2.07,1.3,3.69,1.3,2.4,0,4.46-.96,6.17-2.88,1.71-1.92,2.87-4.38,3.46-7.38l.54-2.7c.36-1.8.46-3.55.31-5.26Z"/>
    <path class="cls-2" d="M325.75,89.59h15.3c.18,1.86.86,3.17,2.03,3.92,1.17.75,2.69,1.12,4.54,1.12,3.36,0,5.28-1.08,5.76-3.24.36-1.44.2-2.57-.49-3.38-.69-.81-1.79-1.36-3.29-1.67l-4.95-.99c-5.1-1.14-8.9-3.16-11.38-6.07-2.49-2.91-3.23-6.62-2.21-11.12.9-3.9,3.24-6.94,7.02-9.13,3.78-2.19,8.49-3.29,14.13-3.29,6.24,0,11.14,1.26,14.71,3.78s5.47,6.03,5.72,10.53l-14.76,1.35c-.24-1.68-.81-2.94-1.71-3.78-.9-.84-2.31-1.26-4.23-1.26-1.68,0-2.97.3-3.87.9-.9.6-1.5,1.35-1.8,2.25-.42,1.68-.09,2.85.99,3.51,1.08.66,2.46,1.17,4.14,1.53l3.96.81c5.46,1.14,9.5,3.17,12.11,6.08,2.61,2.91,3.31,6.86,2.12,11.83-.96,4.08-3.44,7.2-7.43,9.36s-8.93,3.24-14.8,3.24c-6.36,0-11.52-1.35-15.48-4.05-3.96-2.7-6-6.78-6.12-12.24Z"/>
    <path class="cls-3" d="M427.72,40.18h16.11l-13.59,64.26h-14.67l-15.93-38.97-8.19,38.97h-16.11l13.59-64.26h14.85l15.84,38.97,8.1-38.97Z"/>
    <path class="cls-3" d="M474.79,74.11c.42-1.92.34-3.63-.23-5.13-.57-1.5-2.17-2.25-4.81-2.25-1.98,0-3.51.38-4.59,1.12-1.08.75-1.92,2-2.52,3.74l-14.31-1.17c1.08-4.8,3.63-8.45,7.65-10.94,4.02-2.49,9.18-3.73,15.48-3.73,5.52,0,9.73,1,12.64,3.01,2.91,2.01,4.75,4.67,5.54,7.96.78,3.3.75,6.96-.09,10.98l-5.85,26.73h-14.76l1.08-5.04c-1.98,2.04-4.09,3.59-6.34,4.63-2.25,1.05-4.85,1.58-7.79,1.58-3.84,0-6.87-.83-9.09-2.47-2.22-1.65-3.71-3.75-4.46-6.3-.75-2.55-.83-5.2-.22-7.96.96-4.44,3.64-7.74,8.05-9.9,4.41-2.16,10.24-3.39,17.5-3.69l6.93-.27.18-.9ZM472.09,86.71l.54-2.61-4.86.18c-3.48.18-6.09.69-7.83,1.53-1.74.84-2.76,2.04-3.06,3.6-.3,1.56-.09,2.85.63,3.87.72,1.02,2.07,1.53,4.05,1.53,2.52,0,4.77-.73,6.75-2.21,1.98-1.47,3.24-3.43,3.78-5.9Z"/>
    <path class="cls-3" d="M527.61,103.45c-1.5.54-3.33.99-5.49,1.35-2.16.36-4.29.54-6.39.54-6.06,0-10.35-1.56-12.87-4.68-2.52-3.12-3.15-7.59-1.89-13.41l3.69-17.37h-7.65l2.7-12.69h7.65l2.61-12.42h16.2l-2.61,12.42h10.44l-2.7,12.69h-10.44l-3.42,16.2c-.42,1.92-.35,3.42.22,4.5s1.79,1.62,3.65,1.62c.78,0,1.51-.06,2.21-.18.69-.12,1.48-.3,2.38-.54l1.71,11.97Z"/>
  </g>
  <polygon class="cls-1" points="214.78 32.6 54.19 32.6 63.56 9.62 224.15 9.62 214.78 32.6"/>
  <g>
    <path class="cls-3" d="M80.48,22.78c-.18.86-.7,1.54-1.56,2.04-.86.5-2,.74-3.43.74h-4.94l2.42-11.42h4.46c.87,0,1.61.14,2.21.41.6.27,1.02.66,1.28,1.18.26.51.3,1.13.14,1.86-.11.47-.33.88-.66,1.25-.33.36-.77.64-1.31.83.61.31,1.03.74,1.26,1.28s.27,1.16.14,1.84ZM77.59,22.23c.11-.48.04-.86-.19-1.14s-.63-.42-1.18-.42h-1.82l-.54,2.64h1.89c1.09,0,1.71-.36,1.86-1.09ZM78.03,16.69c-.22-.21-.56-.31-1.03-.31h-1.7l-.46,2.22h1.79c.42,0,.77-.07,1.06-.22s.47-.39.54-.74c.08-.43.02-.74-.2-.95Z"/>
    <path class="cls-3" d="M84.28,25.56h-2.9l2.42-11.42h4.42c1,0,1.83.18,2.48.53.65.35,1.1.85,1.36,1.49.26.64.28,1.39.08,2.26-.3,1.29-1.14,2.21-2.51,2.75l1.5,4.4h-3.06l-1.15-3.95h-1.81l-.83,3.95ZM89.02,16.88c-.27-.29-.72-.44-1.34-.44h-1.47l-.62,2.9h1.65c.53,0,.97-.09,1.32-.28s.57-.47.66-.86c.14-.59.07-1.03-.2-1.32Z"/>
    <path class="cls-3" d="M101.2,20.97h-4.88l-.46,2.19h5.47l-.69,2.4h-8.3l2.42-11.42h8.21l-.51,2.4h-5.2l-.42,2.02h4.86l-.5,2.42Z"/>
    <path class="cls-3" d="M109.99,23.37h-3.98l-1.14,2.19h-3.06l6.3-11.42h3.7l1.49,11.42h-3.09l-.22-2.19ZM109.41,16.66l-2.19,4.27h2.58l-.38-4.27Z"/>
    <path class="cls-3" d="M119.2,18.39l4.35-4.26h3.42l-4.7,4.56,2.7,6.86h-3.23l-1.76-4.82-1.62,1.55-.69,3.26h-3.06l2.42-11.42h3.06l-.9,4.26Z"/>
    <path class="cls-3" d="M128.61,14.14h3.06l-2.42,11.42h-3.06l2.42-11.42Z"/>
    <path class="cls-3" d="M140.64,14.14h2.86l-2.42,11.42h-2.61l-2.83-6.93-1.46,6.93h-2.86l2.42-11.42h2.64l2.82,6.93,1.44-6.93Z"/>
    <path class="cls-3" d="M154.87,17.54l-3.06.35c-.16-.98-.73-1.47-1.7-1.47-.5,0-.94.12-1.33.38s-.7.58-.96,1-.44.88-.54,1.39c-.15.74-.18,1.41-.1,2.03.08.62.31,1.12.68,1.5.37.38.9.57,1.59.57.34,0,.65-.04.94-.1.28-.07.54-.17.76-.3l.32-1.41h-1.9l.5-2.38h4.72l-1.14,5.39c-.58.41-1.27.74-2.07.99s-1.65.38-2.54.38c-.96,0-1.79-.18-2.5-.53-.7-.35-1.27-.84-1.7-1.46s-.7-1.35-.82-2.18c-.12-.83-.07-1.72.13-2.68.22-1.02.63-1.92,1.22-2.7.59-.77,1.31-1.38,2.18-1.81.86-.43,1.81-.65,2.85-.65,1.3,0,2.35.33,3.15.98.8.66,1.24,1.55,1.31,2.7Z"/>
    <path class="cls-3" d="M168,14.14h2.86l-2.42,11.42h-2.61l-2.83-6.93-1.46,6.93h-2.86l2.42-11.42h2.64l2.82,6.93,1.44-6.93Z"/>
    <path class="cls-3" d="M179.41,20.97h-4.88l-.46,2.19h5.47l-.69,2.4h-8.3l2.42-11.42h8.21l-.51,2.4h-5.2l-.42,2.02h4.86l-.5,2.42Z"/>
    <path class="cls-3" d="M191.33,22.14l3.2-8h3.15l-5.33,11.42h-3.2l-.08-7.42-3.12,7.42h-3.15l-.59-11.42h3.25l-.19,7.81,3.28-7.74h2.77l.02,7.94Z"/>
    <path class="cls-3" d="M196.77,21.91h3.02c.04.54.22.94.53,1.19.31.25.78.38,1.42.38.52,0,.93-.09,1.22-.26s.46-.41.53-.71c.09-.38.03-.68-.18-.89s-.52-.37-.94-.47l-1.28-.32c-1.18-.3-2.05-.76-2.6-1.39-.55-.63-.71-1.51-.47-2.64.19-.93.71-1.65,1.54-2.17.84-.52,1.89-.78,3.16-.78,1.4,0,2.48.3,3.26.9s1.2,1.44,1.27,2.52l-2.96.34c-.08-.48-.25-.83-.54-1.06-.28-.22-.7-.34-1.24-.34-.47,0-.83.08-1.08.22-.25.15-.4.35-.46.59-.08.39-.03.69.18.88.2.19.53.34.98.45l1.39.34c1.16.27,2,.73,2.53,1.39.52.66.66,1.56.42,2.69-.2.96-.74,1.71-1.62,2.26-.88.54-1.96.82-3.26.82-.96,0-1.8-.15-2.52-.44-.72-.29-1.28-.73-1.68-1.31-.4-.58-.61-1.31-.62-2.18Z"/>
  </g>
</svg>