<?xml version="1.0" encoding="UTF-8"?>
<svg id="Layer_1" data-name="Layer 1" xmlns="http://www.w3.org/2000/svg" xmlns:xlink="http://www.w3.org/1999/xlink" viewBox="0 0 1014.07 136.19">
  <defs>
    <style>
      .cls-1 {
        fill: url(#radial-gradient-2);
      }

      .cls-2 {
        fill: url(#radial-gradient);
      }

      .cls-3 {
        fill: #fff;
      }
    </style>
    <radialGradient id="radial-gradient" cx="2349.93" cy="111.43" fx="2349.93" fy="111.43" r="348.84" gradientTransform="translate(-1205.32 -55.81) scale(.65 1.11)" gradientUnits="userSpaceOnUse">
      <stop offset="0" stop-color="#e16772"/>
      <stop offset=".11" stop-color="#e25562"/>
      <stop offset=".33" stop-color="#e53b4b"/>
      <stop offset=".54" stop-color="#e7283a"/>
      <stop offset=".76" stop-color="#e81c30"/>
      <stop offset="1" stop-color="#e9192d"/>
    </radialGradient>
    <radialGradient id="radial-gradient-2" cx="6717.47" cy="111.33" fx="6717.47" fy="111.33" r="364.21" gradientTransform="translate(-1856.14 -55.81) scale(.4 1.11)" gradientUnits="userSpaceOnUse">
      <stop offset="0" stop-color="#0867a5"/>
      <stop offset="0" stop-color="#0866a4"/>
      <stop offset=".32" stop-color="#085792"/>
      <stop offset=".65" stop-color="#084e86"/>
      <stop offset="1" stop-color="#084b83"/>
    </radialGradient>
  </defs>
  <polygon class="cls-2" points="586.59 136.19 0 136.19 47.73 .11 634.32 .11 586.59 136.19"/>
  <polygon class="cls-1" points="967.43 136.09 607.95 136.09 654.59 0 1014.07 0 967.43 136.09"/>
  <g>
    <path class="cls-3" d="M130.31,84.17c-1.07,5.11-4.15,9.13-9.22,12.06-5.08,2.93-11.84,4.4-20.29,4.4h-29.22l14.28-67.52h26.38c5.17,0,9.52.8,13.05,2.41,3.53,1.61,6.05,3.92,7.57,6.95,1.51,3.03,1.8,6.68.85,10.97-.63,2.77-1.92,5.23-3.88,7.38-1.96,2.14-4.54,3.78-7.75,4.92,3.59,1.83,6.07,4.35,7.42,7.57,1.35,3.21,1.62,6.84.8,10.88ZM113.19,80.96c.63-2.84.25-5.07-1.13-6.71-1.39-1.64-3.72-2.46-7-2.46h-10.78l-3.21,15.6h11.16c6.43,0,10.09-2.14,10.97-6.43ZM115.79,48.19c-1.29-1.23-3.33-1.84-6.1-1.84h-10.02l-2.74,13.14h10.59c2.46,0,4.54-.44,6.24-1.32,1.7-.88,2.77-2.33,3.22-4.35.5-2.52.11-4.4-1.18-5.63Z"/>
    <path class="cls-3" d="M152.72,100.63h-17.12l14.28-67.52h26.1c5.92,0,10.81,1.04,14.66,3.12,3.84,2.08,6.53,5.01,8.04,8.79,1.51,3.78,1.67,8.23.47,13.33-1.77,7.63-6.71,13.05-14.85,16.27l8.89,26.01h-18.06l-6.81-23.36h-10.69l-4.92,23.36ZM180.76,49.32c-1.61-1.73-4.24-2.6-7.9-2.6h-8.7l-3.69,17.12h9.74c3.15,0,5.75-.55,7.8-1.66,2.05-1.1,3.36-2.79,3.92-5.06.82-3.47.42-6.07-1.18-7.8Z"/>
    <path class="cls-3" d="M252.77,73.49h-28.84l-2.74,12.96h32.34l-4.07,14.19h-49.08l14.28-67.52h48.51l-3.03,14.18h-30.74l-2.46,11.92h28.75l-2.93,14.28Z"/>
    <path class="cls-3" d="M304.69,87.67h-23.55l-6.71,12.96h-18.06l37.26-67.52h21.85l8.79,67.52h-18.25l-1.32-12.96ZM301.29,48.05l-12.96,25.25h15.23l-2.27-25.25Z"/>
    <path class="cls-3" d="M359.16,58.26l25.72-25.16h20.24l-27.8,26.95,15.98,40.57h-19.1l-10.4-28.46-9.55,9.17-4.07,19.29h-18.06l14.28-67.52h18.06l-5.3,25.16Z"/>
    <path class="cls-3" d="M414.77,33.1h18.06l-14.28,67.52h-18.06l14.28-67.52Z"/>
    <path class="cls-3" d="M485.88,33.1h16.93l-14.28,67.52h-15.42l-16.74-40.95-8.61,40.95h-16.93l14.28-67.52h15.6l16.64,40.95,8.51-40.95Z"/>
    <path class="cls-3" d="M569.95,53.25l-18.06,2.08c-.95-5.8-4.29-8.7-10.02-8.7-2.96,0-5.58.74-7.85,2.22-2.27,1.48-4.16,3.45-5.67,5.91-1.51,2.46-2.59,5.2-3.21,8.23-.88,4.35-1.07,8.35-.57,12.01.5,3.66,1.84,6.61,4.02,8.84,2.18,2.24,5.31,3.36,9.41,3.36,2.02,0,3.86-.2,5.53-.61,1.67-.41,3.17-.99,4.49-1.75l1.89-8.32h-11.25l2.93-14.09h27.9l-6.71,31.87c-3.41,2.4-7.49,4.35-12.25,5.86-4.76,1.51-9.76,2.27-14.99,2.27-5.67,0-10.59-1.04-14.75-3.12-4.16-2.08-7.5-4.97-10.02-8.65-2.52-3.69-4.13-7.97-4.82-12.86-.7-4.89-.44-10.17.76-15.84,1.32-6.05,3.72-11.36,7.19-15.93,3.47-4.57,7.75-8.13,12.86-10.69,5.11-2.55,10.72-3.83,16.83-3.83,7.69,0,13.9,1.94,18.63,5.82,4.73,3.88,7.31,9.19,7.75,15.93Z"/>
  </g>
  <g>
    <path class="cls-3" d="M728.19,33h16.93l-14.28,67.52h-15.42l-16.74-40.95-8.61,40.95h-16.93l14.28-67.52h15.6l16.64,40.95,8.51-40.95Z"/>
    <path class="cls-3" d="M795.62,73.38h-28.84l-2.74,12.96h32.34l-4.07,14.19h-49.08l14.28-67.52h48.51l-3.03,14.19h-30.74l-2.46,11.92h28.75l-2.93,14.28Z"/>
    <path class="cls-3" d="M866.07,80.28l18.91-47.28h18.63l-31.49,67.52h-18.91l-.47-43.88-18.44,43.88h-18.63l-3.5-67.52h19.2l-1.13,46.15,19.39-45.77h16.36l.09,46.91Z"/>
    <path class="cls-3" d="M898.23,78.96h17.87c.25,3.21,1.29,5.56,3.12,7.04,1.83,1.48,4.63,2.22,8.42,2.22,3.09,0,5.49-.52,7.19-1.56s2.74-2.44,3.12-4.21c.5-2.27.16-4.02-1.04-5.25-1.2-1.23-3.06-2.16-5.58-2.79l-7.57-1.89c-7-1.76-12.12-4.51-15.37-8.23-3.25-3.72-4.18-8.92-2.79-15.6,1.13-5.48,4.18-9.75,9.13-12.81,4.95-3.06,11.17-4.59,18.68-4.59,8.26,0,14.67,1.78,19.24,5.34,4.57,3.56,7.08,8.53,7.52,14.89l-17.5,1.99c-.44-2.84-1.5-4.92-3.17-6.24-1.67-1.32-4.11-1.99-7.33-1.99-2.78,0-4.9.44-6.38,1.32-1.48.88-2.38,2.05-2.7,3.5-.5,2.33-.16,4.07,1.04,5.2,1.2,1.13,3.12,2.02,5.77,2.65l8.23,1.99c6.87,1.58,11.85,4.32,14.94,8.23,3.09,3.91,3.91,9.21,2.46,15.89-1.2,5.67-4.38,10.12-9.55,13.33-5.17,3.22-11.6,4.82-19.29,4.82-5.67,0-10.64-.87-14.89-2.6s-7.57-4.32-9.93-7.75c-2.36-3.44-3.58-7.74-3.64-12.91Z"/>
  </g>
</svg>