<?xml version="1.0" encoding="UTF-8"?>
<svg id="Layer_1" data-name="Layer 1" xmlns="http://www.w3.org/2000/svg" xmlns:xlink="http://www.w3.org/1999/xlink" viewBox="0 0 859.73 136.09">
  <defs>
    <style>
      .cls-1 {
        fill: #fff;
      }

      .cls-2 {
        fill: url(#New_Gradient_Swatch_copy);
      }
    </style>
    <radialGradient id="New_Gradient_Swatch_copy" data-name="New Gradient Swatch copy" cx="428.3" cy="68.36" fx="428.3" fy="68.36" r="305.86" gradientTransform="translate(0 -49.02) scale(1 1.72)" gradientUnits="userSpaceOnUse">
      <stop offset="0" stop-color="#f2bfff"/>
      <stop offset=".01" stop-color="#efbafb"/>
      <stop offset=".14" stop-color="#d189d9"/>
      <stop offset=".28" stop-color="#b85fbb"/>
      <stop offset=".42" stop-color="#a33ca2"/>
      <stop offset=".56" stop-color="#932290"/>
      <stop offset=".7" stop-color="#880f82"/>
      <stop offset=".85" stop-color="#81037a"/>
      <stop offset="1" stop-color="#7f0078"/>
    </radialGradient>
  </defs>
  <polygon class="cls-2" points="807.73 136.41 1.14 136.41 48.88 .32 855.46 .32 807.73 136.41"/>
  <g>
    <path class="cls-1" d="M91.68,60.83l24.65-24.42,19.52-.13-26.64,26.16,15.66,39.02-18.42.12-10.21-27.38-9.15,8.91-3.8,18.63-17.42.11,13.35-65.2,17.42-.11-4.95,24.29Z"/>
    <path class="cls-1" d="M224.73,74.66l-25.62.16-2.56,12.51,29-.19-3.83,13.7-44.41.29,3.63-17.53-21.61.14-12.38,17.59-18.6.12,48.1-65.42,58-.37-2.74,13.7-27.45.18-2.3,11.51,25.53-.16-2.74,13.79ZM187.91,49.64l-4.83.03-14.19,20.34,14.86-.09,4.16-20.27Z"/>
    <path class="cls-1" d="M269.72,79.94l23.61-44.65,20.43-.13-13.35,65.2-15.96.1,7.96-38.72-20.36,38.8-12.58.08-4.62-38.18-7.87,38.26-15.68.1,13.35-65.2,19.79-.13,5.3,44.47Z"/>
    <path class="cls-1" d="M361.79,74.06c-4.84,3.25-10.91,4.9-18.21,4.95l-10.21.07-4.33,21.09-16.78.11,13.35-65.2,22.25-.14c8.88-.06,15.32,2.18,19.33,6.72s5.19,10.88,3.54,19.04c-1.12,5.66-4.1,10.12-8.94,13.37ZM346.67,48.62l-7.11.05-3.36,16.71,7.57-.05c3.1-.02,5.68-.57,7.74-1.65,2.06-1.08,3.29-2.77,3.71-5.09,1.42-6.7-1.43-10.02-8.54-9.98Z"/>
    <path class="cls-1" d="M422.33,73.39l-27.81.18-2.56,12.51,31.19-.2-3.83,13.7-47.33.3,13.35-65.2,46.78-.3-2.83,13.7-29.64.19-2.3,11.5,27.72-.18-2.74,13.79Z"/>
    <path class="cls-1" d="M501.06,33.95l16.32-.1-13.35,65.2-14.86.1-16.39-39.38-8.05,39.54-16.32.1,13.35-65.2,15.05-.1,16.3,39.38,7.95-39.54Z"/>
    <path class="cls-1" d="M550.26,98.74l-17.51.11,5.22-24.93-13.57-40.13,17.87-.12,6.64,25.77,17.34-25.92,19.06-.12-30.02,40.41-5.04,24.93Z"/>
    <path class="cls-1" d="M604.62,57.08l21.52-.14,4.86-23.83,17.42-.11-13.35,65.2-17.42.11,5.3-25.93-21.52.14-5.3,25.93-17.42.11,13.35-65.2,17.42-.11-4.86,23.83Z"/>
    <path class="cls-1" d="M697.27,71.63l-27.81.18-2.56,12.51,31.19-.2-3.83,13.7-47.33.3,13.35-65.2,46.78-.3-2.83,13.7-29.64.19-2.3,11.51,27.72-.18-2.74,13.79Z"/>
    <path class="cls-1" d="M761.82,84.03c-3.38,4.25-7.69,7.56-12.93,9.93-5.24,2.37-11.27,3.58-18.08,3.63l-26.9.17,13.35-65.2,23.8-.15c7.23-.05,13.14,1.54,17.72,4.76,4.58,3.22,7.72,7.63,9.43,13.21,1.71,5.58,1.82,11.88.35,18.88-1.12,5.6-3.37,10.53-6.74,14.77ZM751.35,56.96c-.57-3.04-1.86-5.46-3.88-7.27-2.02-1.81-4.85-2.71-8.5-2.68l-7.57.05-7.34,35.89,8.12-.05c5.05-.03,9.2-1.49,12.47-4.37,3.26-2.88,5.4-6.69,6.4-11.44.77-3.71.87-7.09.3-10.12Z"/>
    <path class="cls-1" d="M776.04,82.07l15.32-.1-3.09,15.25-15.32.1,3.09-15.25ZM784.83,32.13l17.88-.12-10.84,44.75-14.41.09,7.37-44.73Z"/>
  </g>
</svg>