<?xml version="1.0" encoding="UTF-8"?>
<svg id="Layer_1" data-name="Layer 1" xmlns="http://www.w3.org/2000/svg" xmlns:xlink="http://www.w3.org/1999/xlink" viewBox="0 0 1074.32 136.09">
  <defs>
    <style>
      .cls-1 {
        fill: url(#radial-gradient);
      }
    </style>
    <radialGradient id="radial-gradient" cx="537.16" cy="68.04" fx="537.16" fy="68.04" r="382.86" gradientUnits="userSpaceOnUse">
      <stop offset="0" stop-color="#fff"/>
      <stop offset=".09" stop-color="#ffecd8"/>
      <stop offset=".21" stop-color="#ffd4a7"/>
      <stop offset=".33" stop-color="#ffc07d"/>
      <stop offset=".46" stop-color="#ffb05a"/>
      <stop offset=".59" stop-color="#ffa340"/>
      <stop offset=".72" stop-color="#ff9a2d"/>
      <stop offset=".86" stop-color="#ff9421"/>
      <stop offset="1" stop-color="#ff931e"/>
    </radialGradient>
  </defs>
  <polygon class="cls-1" points="1026.59 136.09 0 136.09 47.73 0 1074.32 0 1026.59 136.09"/>
  <g>
    <path d="M126.62,33h16.93l-14.28,67.52h-15.42l-16.74-40.95-8.61,40.95h-16.93l14.28-67.52h15.6l16.64,40.95,8.51-40.95Z"/>
    <path d="M177.21,100.52h-18.16l5.58-25.82-13.81-41.7h18.54l6.71,26.76,18.16-26.76h19.77l-31.4,41.7-5.39,25.82Z"/>
    <path d="M218.44,33h57.59l-3.22,15.6h-19.86l-10.97,51.92h-18.06l11.06-51.92h-19.76l3.21-15.6Z"/>
    <path d="M345.26,33h16.93l-14.28,67.52h-15.42l-16.74-40.95-8.61,40.95h-16.93l14.28-67.52h15.6l16.64,40.95,8.51-40.95Z"/>
    <path d="M395.85,100.52h-18.16l5.58-25.82-13.81-41.7h18.54l6.71,26.76,18.16-26.76h19.77l-31.4,41.7-5.39,25.82Z"/>
    <path d="M437.09,33h57.59l-3.22,15.6h-19.86l-10.97,51.92h-18.06l11.06-51.92h-19.76l3.21-15.6Z"/>
    <path d="M563.9,33h16.93l-14.28,67.52h-15.42l-16.74-40.95-8.61,40.95h-16.93l14.28-67.52h15.6l16.64,40.95,8.51-40.95Z"/>
    <path d="M614.5,100.52h-18.16l5.58-25.82-13.81-41.7h18.54l6.71,26.76,18.16-26.76h19.77l-31.4,41.7-5.39,25.82Z"/>
    <path d="M655.73,33h57.59l-3.22,15.6h-19.86l-10.97,51.92h-18.06l11.06-51.92h-19.76l3.21-15.6Z"/>
    <path d="M782.54,33h16.93l-14.28,67.52h-15.42l-16.74-40.95-8.61,40.95h-16.93l14.28-67.52h15.6l16.64,40.95,8.51-40.95Z"/>
    <path d="M833.14,100.52h-18.16l5.58-25.82-13.81-41.7h18.54l6.71,26.76,18.16-26.76h19.77l-31.4,41.7-5.39,25.82Z"/>
    <path d="M874.37,33h57.59l-3.21,15.6h-19.86l-10.97,51.92h-18.06l11.06-51.92h-19.76l3.21-15.6Z"/>
    <path d="M929.88,84.73h15.89l-3.31,15.79h-15.89l3.31-15.79ZM939.34,33h18.54l-11.54,46.34h-14.94l7.94-46.34Z"/>
  </g>
</svg>