<?xml version="1.0" encoding="UTF-8"?>
<svg id="Layer_1" data-name="Layer 1" xmlns="http://www.w3.org/2000/svg" xmlns:xlink="http://www.w3.org/1999/xlink" viewBox="0 0 934.32 136.09">
  <defs>
    <style>
      .cls-1 {
        fill: url(#radial-gradient);
      }
    </style>
    <radialGradient id="radial-gradient" cx="467.16" cy="68.04" fx="467.16" fy="68.04" r="333.82" gradientTransform="translate(0 -48.79) scale(1 1.72)" gradientUnits="userSpaceOnUse">
      <stop offset="0" stop-color="#fdeaac"/>
      <stop offset="1" stop-color="#fbcf44"/>
    </radialGradient>
  </defs>
  <polygon class="cls-1" points="886.59 136.09 0 136.09 47.73 0 934.32 0 886.59 136.09"/>
  <g>
    <path d="M72.62,78.96h17.87c.25,3.22,1.29,5.56,3.12,7.05,1.83,1.48,4.63,2.22,8.42,2.22,3.09,0,5.48-.52,7.19-1.56,1.7-1.04,2.74-2.44,3.12-4.21.5-2.27.16-4.02-1.04-5.25-1.2-1.23-3.06-2.16-5.58-2.79l-7.57-1.89c-7-1.76-12.12-4.51-15.37-8.23-3.25-3.72-4.18-8.92-2.79-15.6,1.13-5.49,4.18-9.76,9.13-12.81,4.95-3.06,11.17-4.59,18.68-4.59,8.26,0,14.67,1.78,19.25,5.34,4.57,3.56,7.08,8.53,7.52,14.89l-17.5,1.99c-.44-2.84-1.5-4.92-3.17-6.24s-4.11-1.99-7.33-1.99c-2.78,0-4.9.44-6.38,1.32-1.48.88-2.38,2.05-2.7,3.5-.5,2.33-.16,4.07,1.04,5.2,1.2,1.13,3.12,2.02,5.77,2.65l8.23,1.99c6.87,1.58,11.85,4.32,14.94,8.23,3.09,3.91,3.91,9.21,2.46,15.89-1.2,5.67-4.38,10.12-9.55,13.33-5.17,3.21-11.6,4.82-19.29,4.82-5.67,0-10.64-.87-14.89-2.6-4.26-1.73-7.57-4.32-9.93-7.75-2.36-3.44-3.58-7.74-3.64-12.91Z"/>
    <path d="M145.25,33h57.59l-3.22,15.6h-19.86l-10.97,51.92h-18.06l11.06-51.92h-19.76l3.21-15.6Z"/>
    <path d="M200,76.69c-.51-4.73-.25-9.55.76-14.47,1.26-5.99,3.56-11.3,6.9-15.94,3.34-4.63,7.53-8.29,12.58-10.97,5.04-2.68,10.72-4.02,17.02-4.02s11.43,1.15,15.56,3.45c4.13,2.3,7.31,5.39,9.55,9.27,2.24,3.88,3.62,8.18,4.16,12.91.54,4.73.27,9.55-.8,14.47-1.2,5.93-3.48,11.21-6.86,15.84-3.37,4.63-7.58,8.29-12.62,10.97-5.04,2.68-10.72,4.02-17.02,4.02s-11.35-1.15-15.51-3.45c-4.16-2.3-7.36-5.37-9.6-9.22-2.24-3.84-3.61-8.13-4.11-12.86ZM219.3,64.02c-.5,2.4-.77,4.92-.8,7.57-.03,2.65.31,5.12,1.04,7.42.72,2.3,1.95,4.16,3.69,5.58,1.73,1.42,4.08,2.13,7.04,2.13,4.35,0,7.99-1.62,10.92-4.87s4.93-7.36,6-12.34c.5-2.4.77-4.92.8-7.57.03-2.65-.32-5.12-1.04-7.42-.72-2.3-1.96-4.16-3.69-5.58-1.73-1.42-4.08-2.13-7.04-2.13-4.35,0-7.99,1.61-10.92,4.82-2.93,3.21-4.93,7.34-6,12.39Z"/>
    <path d="M286.82,100.52h-17.12l14.28-67.52h26.1c5.92,0,10.81,1.04,14.66,3.12,3.84,2.08,6.53,5.01,8.04,8.79,1.51,3.78,1.67,8.23.47,13.33-1.77,7.63-6.71,13.05-14.85,16.27l8.89,26.01h-18.06l-6.81-23.36h-10.69l-4.92,23.36ZM314.86,49.22c-1.61-1.73-4.24-2.6-7.9-2.6h-8.7l-3.69,17.12h9.74c3.15,0,5.75-.55,7.8-1.66,2.05-1.1,3.36-2.79,3.92-5.06.82-3.47.43-6.07-1.18-7.8Z"/>
    <path d="M386.87,73.38h-28.84l-2.74,12.96h32.34l-4.07,14.19h-49.08l14.28-67.52h48.51l-3.03,14.18h-30.74l-2.46,11.92h28.75l-2.93,14.28Z"/>
    <path d="M468.77,33h16.93l-14.28,67.52h-15.42l-16.74-40.95-8.61,40.95h-16.93l14.28-67.52h15.6l16.64,40.95,8.51-40.95Z"/>
    <path d="M519.36,100.52h-18.16l5.58-25.82-13.81-41.7h18.54l6.71,26.76,18.16-26.76h19.77l-31.4,41.7-5.39,25.82Z"/>
    <path d="M576.01,57.68h22.32l5.2-24.68h18.06l-14.28,67.52h-18.06l5.67-26.86h-22.32l-5.67,26.86h-18.06l14.28-67.52h18.06l-5.2,24.68Z"/>
    <path d="M671.99,73.38h-28.84l-2.74,12.96h32.34l-4.07,14.19h-49.08l14.28-67.52h48.51l-3.03,14.18h-30.73l-2.46,11.92h28.75l-2.93,14.28Z"/>
    <path d="M738.85,86.67c-3.53,4.38-8.02,7.79-13.48,10.21-5.45,2.43-11.71,3.64-18.77,3.64h-27.9l14.28-67.52h24.68c7.5,0,13.62,1.69,18.35,5.06,4.73,3.37,7.96,7.96,9.69,13.76,1.73,5.8,1.81,12.33.24,19.58-1.2,5.8-3.56,10.89-7.09,15.27ZM728.17,58.53c-.57-3.15-1.89-5.67-3.97-7.57s-5.01-2.84-8.79-2.84h-7.85l-7.85,37.17h8.42c5.23,0,9.55-1.48,12.96-4.44,3.4-2.96,5.64-6.9,6.71-11.82.82-3.84.95-7.34.38-10.5Z"/>
    <path d="M802.12,73.38h-28.84l-2.74,12.96h32.34l-4.07,14.19h-49.08l14.28-67.52h48.51l-3.03,14.18h-30.74l-2.46,11.92h28.75l-2.93,14.28Z"/>
    <path d="M825.95,100.52h-17.12l14.28-67.52h26.1c5.92,0,10.81,1.04,14.66,3.12,3.84,2.08,6.53,5.01,8.04,8.79,1.51,3.78,1.67,8.23.47,13.33-1.77,7.63-6.71,13.05-14.85,16.27l8.89,26.01h-18.06l-6.81-23.36h-10.69l-4.92,23.36ZM853.99,49.22c-1.61-1.73-4.24-2.6-7.9-2.6h-8.7l-3.69,17.12h9.74c3.15,0,5.75-.55,7.8-1.66,2.05-1.1,3.36-2.79,3.92-5.06.82-3.47.43-6.07-1.18-7.8Z"/>
  </g>
</svg>