<?xml version="1.0" encoding="UTF-8"?>
<svg id="Layer_1" data-name="Layer 1" xmlns="http://www.w3.org/2000/svg" xmlns:xlink="http://www.w3.org/1999/xlink" viewBox="0 0 602.17 133.8">
  <defs>
    <style>
      .cls-1, .cls-2, .cls-3 {
        fill: #10131c;
      }

      .cls-4, .cls-5, .cls-6, .cls-7, .cls-8 {
        fill: #0a0d14;
      }

      .cls-9 {
        fill: #ddaa0d;
      }

      .cls-10 {
        stroke-width: .6px;
      }

      .cls-10, .cls-11, .cls-12, .cls-13, .cls-14 {
        fill: none;
        stroke: #0a0d14;
        stroke-linecap: round;
        stroke-linejoin: round;
      }

      .cls-11, .cls-12, .cls-13, .cls-14 {
        stroke-width: .18px;
      }

      .cls-15 {
        fill: #ffe88a;
      }

      .cls-5, .cls-6, .cls-7, .cls-8, .cls-2, .cls-3, .cls-12, .cls-16, .cls-13, .cls-14 {
        isolation: isolate;
      }

      .cls-5, .cls-17 {
        opacity: .65;
      }

      .cls-6 {
        opacity: .85;
      }

      .cls-7, .cls-12 {
        opacity: .7;
      }

      .cls-8 {
        opacity: .9;
      }

      .cls-2, .cls-14 {
        opacity: .55;
      }

      .cls-3, .cls-18 {
        opacity: .8;
      }

      .cls-19 {
        fill: #f1bb0e;
      }

      .cls-20 {
        opacity: .98;
      }

      .cls-21, .cls-16 {
        opacity: .95;
      }

      .cls-22 {
        fill: #111e17;
      }

      .cls-16 {
        fill: url(#linear-gradient);
      }

      .cls-13 {
        opacity: .6;
      }
    </style>
    <linearGradient id="linear-gradient" x1="508.76" y1="108.3" x2="528.95" y2="108.3" gradientUnits="userSpaceOnUse">
      <stop offset="0" stop-color="#0a0d14"/>
      <stop offset="1" stop-color="#000"/>
    </linearGradient>
  </defs>
  <path class="cls-4" d="M0,118.23c58.63-3.58,97.71-1.63,149.83-5.21,58.63-3.91,97.71.98,149.83-1.63,58.63-3.26,104.23,3.26,156.34.98,52.11-2.28,91.2,2.28,146.18.98v20.45H0v-15.57Z"/>
  <path class="cls-2" d="M0,118.56h602.17v15.24H0v-15.24Z"/>
  <g id="town">
    <g>
      <path class="cls-1" d="M7.17,118.23v-19.87l12.38-7.82,13.03,8.14v19.54H7.17Z"/>
      <path class="cls-5" d="M8.47,98.49l11.07-6.97,11.73,7.17v2.61l-11.73-7.17-11.07,7.17v-2.8Z"/>
      <rect class="cls-15" x="9.13" y="100.56" width="4.56" height="4.56" rx=".15" ry=".15"/>
      <rect class="cls-9" x="23.78" y="103.25" width="4.56" height="4.56" rx=".15" ry=".15"/>
      <rect class="cls-4" x="18.57" y="107.81" width="3.91" height="10.42" rx=".18" ry=".18"/>
      <path class="cls-11" d="M28.01,93.15v4.56"/>
    </g>
    <g>
      <path class="cls-8" d="M33.87,118.23c3.91-5.86,9.77-5.86,13.68,0h-13.68Z"/>
      <path class="cls-3" d="M37.13,118.23c2.61-3.91,7.17-3.91,9.12,0h-9.12Z"/>
    </g>
    <g>
      <path class="cls-1" d="M43.65,118.23v-27.03l9.77-7.82,10.42,8.14v26.71h-20.19Z"/>
      <path class="cls-7" d="M43.65,91.52l9.77-7.17,10.42,7.49v2.61l-10.42-7.49-9.77,6.84v-2.28Z"/>
      <rect class="cls-15" x="46.58" y="96.74" width="4.56" height="4.56" rx=".15" ry=".15"/>
      <rect class="cls-19" x="56.35" y="96.41" width="4.56" height="4.56" rx=".15" ry=".15"/>
      <rect class="cls-9" x="46.58" y="105.2" width="4.56" height="4.56" rx=".15" ry=".15"/>
      <rect class="cls-15" x="56.35" y="104.88" width="4.56" height="4.56" rx=".15" ry=".15"/>
      <rect class="cls-4" x="52.44" y="108.14" width="3.58" height="10.1" rx=".18" ry=".18"/>
      <path class="cls-11" d="M60.58,87.29v4.23"/>
    </g>
    <g>
      <path class="cls-1" d="M67.1,118.23v-20.52l14.98-10.42,15.63,10.42v20.52h-30.62Z"/>
      <path class="cls-4" d="M97.71,118.23v-13.35h10.42v13.35h-10.42Z"/>
      <rect class="cls-19" x="71.66" y="102.92" width="4.56" height="4.56" rx=".15" ry=".15"/>
      <rect class="cls-9" x="85.34" y="103.25" width="4.56" height="4.56" rx=".15" ry=".15"/>
      <rect class="cls-15" x="99.99" y="108.14" width="4.56" height="4.56" rx=".15" ry=".15"/>
      <rect class="cls-4" x="80.45" y="107.81" width="3.91" height="10.42" rx=".18" ry=".18"/>
      <path class="cls-11" d="M68.4,98.36l13.68-10.1,14.33,10.1"/>
    </g>
    <g>
      <path class="cls-1" d="M110.09,118.23v-21.17h30.62v21.17h-30.62Z"/>
      <path class="cls-4" d="M110.09,97.06l4.56-4.89h21.5l4.56,4.89h-30.62Z"/>
      <rect class="cls-19" x="114" y="101.95" width="4.56" height="4.56" rx=".15" ry=".15"/>
      <rect class="cls-15" x="120.51" y="101.95" width="4.56" height="4.56" rx=".15" ry=".15"/>
      <rect class="cls-9" x="127.03" y="101.95" width="4.56" height="4.56" rx=".15" ry=".15"/>
      <rect class="cls-15" x="133.54" y="101.95" width="4.56" height="4.56" rx=".15" ry=".15"/>
      <rect class="cls-4" x="123.12" y="107.16" width="4.56" height="11.07" rx=".18" ry=".18"/>
      <rect class="cls-4" x="114.32" y="94.78" width="9.77" height="3.91" rx=".18" ry=".18"/>
      <path class="cls-14" d="M115.63,96.74h7.17"/>
    </g>
    <g>
      <path class="cls-1" d="M162.86,118.23v-28.34l11.73-9.12,12.38,9.45v28.01h-24.1Z"/>
      <rect class="cls-4" x="182.07" y="82.08" width="3.58" height="7.82" rx=".18" ry=".18"/>
      <path class="cls-7" d="M162.86,90.22l11.73-8.47,12.38,8.79v2.28l-12.38-8.47-11.73,7.82v-1.95Z"/>
      <rect class="cls-15" x="166.44" y="96.08" width="4.56" height="4.56" rx=".15" ry=".15"/>
      <rect class="cls-19" x="176.86" y="95.76" width="4.56" height="4.56" rx=".15" ry=".15"/>
      <rect class="cls-9" x="166.44" y="104.55" width="4.56" height="4.56" rx=".15" ry=".15"/>
      <rect class="cls-15" x="176.86" y="104.23" width="4.56" height="4.56" rx=".15" ry=".15"/>
      <rect class="cls-4" x="172.95" y="108.14" width="3.58" height="10.1" rx=".18" ry=".18"/>
    </g>
    <g>
      <path class="cls-1" d="M190.21,118.23v-20.85l16.29-11.4,16.29,11.4v20.85h-32.57Z"/>
      <path class="cls-8" d="M203.24,97.39v-5.54l3.26-2.28,3.26,2.28v5.54h-6.51Z"/>
      <rect class="cls-15" x="195.1" y="102.6" width="4.56" height="4.56" rx=".15" ry=".15"/>
      <rect class="cls-15" x="213.96" y="102.45" width="4.56" height="4.56" rx=".15" ry=".15"/>
      <rect class="cls-4" x="204.55" y="107.81" width="3.91" height="10.42" rx=".18" ry=".18"/>
      <path class="cls-11" d="M218.88,89.9v4.56"/>
    </g>
    <g class="cls-18">
      <path class="cls-11" d="M226.04,116.93h29.97"/>
      <path class="cls-11" d="M228.32,116.93v-5.54M233.21,116.93v-5.54M238.09,116.93v-5.54M242.98,116.93v-5.54M247.87,116.93v-5.54M252.75,116.93v-5.54"/>
    </g>
    <g>
      <path class="cls-1" d="M259.27,118.23v-16.61l13.03-8.79,13.68,8.79v16.61h-26.71Z"/>
      <rect class="cls-19" x="263.5" y="104.55" width="4.56" height="4.56" rx=".15" ry=".15"/>
      <rect class="cls-15" x="278.75" y="106.28" width="4.08" height="4.08" rx=".15" ry=".15"/>
      <rect class="cls-4" x="271.32" y="108.46" width="3.58" height="9.77" rx=".18" ry=".18"/>
    </g>
    <g>
      <path class="cls-1" d="M320.5,118.23v-25.73l13.68-9.77,14.33,10.1v25.41h-28.01Z"/>
      <path class="cls-4" d="M348.51,118.23v-19.22h12.38v19.22h-12.38Z"/>
      <rect class="cls-19" x="324.73" y="98.36" width="4.56" height="4.56" rx=".15" ry=".15"/>
      <rect class="cls-9" x="340.18" y="101.99" width="4.56" height="4.56" rx=".15" ry=".15"/>
      <rect class="cls-15" x="353.07" y="104.23" width="4.56" height="4.56" rx=".15" ry=".15"/>
      <rect class="cls-4" x="333.85" y="107.81" width="3.91" height="10.42" rx=".18" ry=".18"/>
      <path class="cls-11" d="M327.01,88.59v4.56"/>
    </g>
    <g class="cls-21">
      <rect class="cls-4" x="363.49" y="109.44" width="6.51" height="8.14" rx=".18" ry=".18"/>
      <path class="cls-1" d="M365.45,111.39h2.61c.36,0,.65.29.65.65h0c0,.36-.29.65-.65.65h-2.61c-.36,0-.65-.29-.65-.65h0c0-.36.29-.65.65-.65Z"/>
      <rect class="cls-4" x="366.1" y="117.91" width="1.17" height=".91"/>
    </g>
    <g>
      <path class="cls-1" d="M376.52,118.23v-19.87l14.33-10.42,14.98,10.42v19.87h-29.31Z"/>
      <path class="cls-6" d="M385.64,98.36v-5.54l5.21-3.58,5.21,3.58v5.54h-10.42Z"/>
      <rect class="cls-15" x="381.08" y="103.58" width="4.56" height="4.56" rx=".15" ry=".15"/>
      <rect class="cls-9" x="394.76" y="104.23" width="4.56" height="4.56" rx=".15" ry=".15"/>
      <rect class="cls-4" x="389.55" y="108.14" width="3.58" height="10.1" rx=".18" ry=".18"/>
      <rect class="cls-8" x="399.65" y="92.18" width="2.93" height="6.19" rx=".16" ry=".16"/>
    </g>
    <path class="cls-8" d="M409.09,118.23c4.56-5.86,11.07-5.86,15.63,0h-15.63Z"/>
    <g>
      <path class="cls-1" d="M418.21,118.23v-28.99l11.07-8.79,11.73,8.79v28.99h-22.8Z"/>
      <rect class="cls-15" x="421.79" y="95.11" width="4.56" height="4.56" rx=".15" ry=".15"/>
      <rect class="cls-19" x="431.57" y="95.11" width="4.56" height="4.56" rx=".15" ry=".15"/>
      <rect class="cls-9" x="421.79" y="103.58" width="4.56" height="4.56" rx=".15" ry=".15"/>
      <rect class="cls-15" x="431.57" y="103.58" width="4.56" height="4.56" rx=".15" ry=".15"/>
      <rect class="cls-4" x="426.35" y="108.14" width="3.58" height="10.1" rx=".18" ry=".18"/>
      <path class="cls-13" d="M421.14,108.46h17.91"/>
    </g>
    <g>
      <path class="cls-1" d="M444.92,118.23v-16.94l13.03-8.79,14.33,8.79v16.94h-27.36Z"/>
      <rect class="cls-19" x="449.15" y="104.55" width="7.17" height="4.56" rx=".15" ry=".15"/>
      <rect class="cls-4" x="456.97" y="108.46" width="3.58" height="9.77" rx=".18" ry=".18"/>
      <path class="cls-14" d="M462.83,103.25v4.56"/>
    </g>
    <g>
      <path class="cls-1" d="M474.89,118.23v-20.19l14.98-10.75,15.63,10.75v20.19h-30.62Z"/>
      <path class="cls-8" d="M477.49,118.23v-9.12h7.82v9.12h-7.82Z"/>
      <rect class="cls-15" x="479.45" y="103.25" width="4.56" height="4.56" rx=".15" ry=".15"/>
      <rect class="cls-15" x="494.09" y="102.39" width="8.15" height="5.46" rx=".15" ry=".15"/>
      <rect class="cls-4" x="488.24" y="108.14" width="3.58" height="10.1" rx=".18" ry=".18"/>
      <path class="cls-11" d="M500.62,90.87v4.56"/>
    </g>
    <g>
      <path class="cls-16" d="M508.76,118.23v-12.7l10.42-7.17,9.77,7.17v12.7h-20.19Z"/>
      <rect class="cls-9" x="512.36" y="105.99" width="4.56" height="4.56" rx=".15" ry=".15"/>
      <path class="cls-12" d="M525.7,101.3v3.91"/>
    </g>
    <g>
      <path class="cls-1" d="M531.56,118.23v-18.57l13.68-9.12,13.68,9.12v18.57h-27.36Z"/>
      <rect class="cls-19" x="536.12" y="104.55" width="4.56" height="4.56" rx=".15" ry=".15"/>
      <rect class="cls-15" x="542.86" y="96.3" width="4.56" height="4.56" rx=".15" ry=".15"/>
      <rect class="cls-9" x="549.8" y="105.2" width="4.56" height="4.56" rx=".15" ry=".15"/>
      <rect class="cls-4" x="544.26" y="108.46" width="3.58" height="9.77" rx=".18" ry=".18"/>
      <rect class="cls-8" x="553.06" y="92.83" width="2.93" height="6.51" rx=".16" ry=".16"/>
    </g>
    <g class="cls-21">
      <rect x="308.27" y="104.6" width="3.26" height="14.66" rx=".18" ry=".18"/>
      <path class="cls-22" d="M303.06,106.88c2.93-6.84,10.1-7.82,14.01-.33,1.3,2.61-.98,5.54-6.51,5.54-4.56,0-8.47-1.63-7.49-5.21Z"/>
    </g>
    <g class="cls-21">
      <rect x="225.12" y="104.6" width="3.26" height="14.66" rx=".18" ry=".18"/>
      <path class="cls-22" d="M219.91,106.88c2.93-6.84,10.1-7.82,14.01-.33,1.3,2.61-.98,5.54-6.51,5.54-4.56,0-8.47-1.63-7.49-5.21Z"/>
    </g>
    <g class="cls-21">
      <rect x="577.84" y="105.69" width="3.26" height="14.66" rx=".18" ry=".18"/>
      <path class="cls-22" d="M572.62,107.97c2.93-6.84,10.1-7.82,14.01-.33,1.3,2.61-.98,5.54-6.51,5.54-4.56,0-8.47-1.63-7.49-5.21Z"/>
    </g>
    <g class="cls-21">
      <rect x="152.68" y="104.64" width="3.26" height="14.66" rx=".18" ry=".18"/>
      <path class="cls-22" d="M147.47,106.92c2.93-6.84,10.1-7.82,14.01-.33,1.3,2.61-.98,5.54-6.51,5.54-4.56,0-8.47-1.63-7.49-5.21Z"/>
    </g>
  </g>
  <g id="lamps" class="cls-20">
    <g>
      <rect class="cls-4" x="78.17" y="65.14" width="3.58" height="53.09" rx=".2" ry=".2"/>
      <path class="cls-11" d="M74.26,68.72c3.91-1.63,7.82-1.63,11.07,0"/>
    </g>
    <g>
      <rect class="cls-4" x="219.53" y="69.05" width="3.58" height="49.18" rx=".2" ry=".2"/>
      <path class="cls-11" d="M215.62,72.63c3.91-1.63,7.82-1.63,11.07,0"/>
    </g>
    <g>
      <rect class="cls-4" x="368.7" y="63.19" width="3.58" height="55.04" rx=".2" ry=".2"/>
      <path class="cls-11" d="M364.8,66.77c3.91-1.63,7.82-1.63,11.07,0"/>
    </g>
    <g>
      <rect class="cls-4" x="519.83" y="66.77" width="3.58" height="51.46" rx=".2" ry=".2"/>
      <path class="cls-11" d="M515.92,70.35c3.91-1.63,7.82-1.63,11.07,0"/>
    </g>
  </g>
  <g id="cables" class="cls-17">
    <rect class="cls-4" x="40.39" y="59.93" width="3.58" height="58.3" rx=".2" ry=".2"/>
    <path class="cls-4" d="M37.78,64.49h8.47c.72,0,1.3.51,1.3,1.14h0c0,.63-.58,1.14-1.3,1.14h-8.47c-.72,0-1.3-.51-1.3-1.14h0c0-.63.58-1.14,1.3-1.14Z"/>
    <path class="cls-10" d="M42.02,67.15c73.38-5.31,164.35-2.66,254-7.3,96.29-4.65,190.58.66,306.13-1.66"/>
    <path class="cls-10" d="M42.02,70.8c73.38-4.65,164.35-1.99,254-6.31,96.29-4.32,190.58.33,306.13-1.66"/>
  </g>
  <rect class="cls-15" x="461.8" y="104.52" width="3.6" height="4.56" rx=".15" ry=".15"/>
  <rect class="cls-15" x="467.22" y="104.49" width="3.58" height="4.56" rx=".15" ry=".15"/>
</svg>