<?xml version="1.0" encoding="UTF-8"?>
<svg id="Layer_1" data-name="Layer 1" xmlns="http://www.w3.org/2000/svg" xmlns:xlink="http://www.w3.org/1999/xlink" viewBox="0 0 602.17 133.8">
  <defs>
    <style>
      .cls-1, .cls-2, .cls-3 {
        fill: #10131c;
      }

      .cls-4, .cls-5, .cls-6, .cls-7, .cls-8, .cls-9, .cls-10 {
        fill: #0a0d14;
      }

      .cls-11 {
        fill: #ddaa0d;
      }

      .cls-12 {
        fill: url(#linear-gradient-4);
      }

      .cls-13 {
        fill: url(#linear-gradient-3);
      }

      .cls-14 {
        fill: url(#linear-gradient-2);
      }

      .cls-15, .cls-16, .cls-17, .cls-18 {
        fill: none;
        stroke: #0a0d14;
        stroke-linecap: round;
        stroke-linejoin: round;
        stroke-width: .18px;
      }

      .cls-19 {
        fill: #ffe88a;
      }

      .cls-20 {
        opacity: .62;
      }

      .cls-20, .cls-21, .cls-22, .cls-23, .cls-5, .cls-6, .cls-7, .cls-8, .cls-9, .cls-10, .cls-2, .cls-3, .cls-16, .cls-17, .cls-18 {
        isolation: isolate;
      }

      .cls-20, .cls-21, .cls-22, .cls-23, .cls-24 {
        fill: #f1bb0e;
      }

      .cls-21, .cls-17 {
        opacity: .6;
      }

      .cls-22, .cls-5, .cls-25 {
        opacity: .65;
      }

      .cls-23 {
        opacity: .66;
      }

      .cls-26 {
        fill: url(#linear-gradient);
      }

      .cls-6 {
        opacity: .75;
      }

      .cls-7 {
        opacity: .85;
      }

      .cls-8, .cls-16 {
        opacity: .7;
      }

      .cls-9, .cls-27 {
        opacity: .95;
      }

      .cls-10, .cls-28 {
        opacity: .9;
      }

      .cls-2, .cls-18 {
        opacity: .55;
      }

      .cls-3, .cls-29 {
        opacity: .8;
      }

      .cls-30 {
        opacity: .98;
      }
    </style>
    <linearGradient id="linear-gradient" x1="-126" y1="-246.34" x2="-126" y2="-252.86" gradientTransform="translate(760.51 -1879.33) scale(5.4 -7.9)" gradientUnits="userSpaceOnUse">
      <stop offset="0" stop-color="#f1bb0e" stop-opacity=".45"/>
      <stop offset=".55" stop-color="#ddaa0d" stop-opacity=".18"/>
      <stop offset="1" stop-color="#ddaa0d" stop-opacity="0"/>
    </linearGradient>
    <linearGradient id="linear-gradient-2" x1="-83.71" y1="-254.22" x2="-83.71" y2="-260.73" gradientTransform="translate(606.53 -1785.12) scale(4.6 -7.3)" xlink:href="#linear-gradient"/>
    <linearGradient id="linear-gradient-3" x1="-94.37" y1="-242.84" x2="-94.37" y2="-249.35" gradientTransform="translate(936.87 -1926.43) scale(6 -8.2)" xlink:href="#linear-gradient"/>
    <linearGradient id="linear-gradient-4" x1="-43.74" y1="-249.47" x2="-43.74" y2="-255.99" gradientTransform="translate(740.47 -1840.07) scale(5 -7.65)" xlink:href="#linear-gradient"/>
  </defs>
  <path class="cls-4" d="M0,118.23c58.63-3.58,97.71-1.63,149.83-5.21,58.63-3.91,97.71.98,149.83-1.63,58.63-3.26,104.23,3.26,156.34.98,52.11-2.28,91.2,2.28,146.18.98v20.45H0v-15.57Z"/>
  <path class="cls-2" d="M0,118.56h602.17v15.24H0v-15.24Z"/>
  <g id="town">
    <g>
      <path class="cls-1" d="M7.17,118.23v-19.87l12.38-7.82,13.03,8.14v19.54H7.17Z"/>
      <path class="cls-5" d="M8.47,98.49l11.07-6.97,11.73,7.17v2.61l-11.73-7.17-11.07,7.17v-2.8Z"/>
      <rect class="cls-24" x="10.75" y="102.6" width="4.56" height="4.56" rx=".15" ry=".15"/>
      <rect class="cls-19" x="17.26" y="101.3" width="4.56" height="4.56" rx=".15" ry=".15"/>
      <rect class="cls-11" x="23.78" y="103.25" width="4.56" height="4.56" rx=".15" ry=".15"/>
      <rect class="cls-4" x="18.57" y="107.81" width="3.91" height="10.42" rx=".18" ry=".18"/>
      <path class="cls-15" d="M28.01,93.15v4.56"/>
    </g>
    <g>
      <path class="cls-10" d="M33.87,118.23c3.91-5.86,9.77-5.86,13.68,0h-13.68Z"/>
      <path class="cls-3" d="M37.13,118.23c2.61-3.91,7.17-3.91,9.12,0h-9.12Z"/>
    </g>
    <g>
      <path class="cls-1" d="M43.65,118.23v-27.03l9.77-7.82,10.42,8.14v26.71h-20.19Z"/>
      <path class="cls-8" d="M43.65,91.52l9.77-7.17,10.42,7.49v2.61l-10.42-7.49-9.77,6.84v-2.28Z"/>
      <rect class="cls-19" x="46.58" y="96.74" width="4.56" height="4.56" rx=".15" ry=".15"/>
      <rect class="cls-24" x="56.35" y="96.41" width="4.56" height="4.56" rx=".15" ry=".15"/>
      <rect class="cls-11" x="46.58" y="105.2" width="4.56" height="4.56" rx=".15" ry=".15"/>
      <rect class="cls-19" x="56.35" y="104.88" width="4.56" height="4.56" rx=".15" ry=".15"/>
      <rect class="cls-4" x="52.44" y="108.14" width="3.58" height="10.1" rx=".18" ry=".18"/>
      <path class="cls-15" d="M60.58,87.29v4.23"/>
    </g>
    <g>
      <path class="cls-1" d="M67.1,118.23v-20.52l14.98-10.42,15.63,10.42v20.52h-30.62Z"/>
      <path class="cls-4" d="M97.71,118.23v-13.35h10.42v13.35h-10.42Z"/>
      <rect class="cls-24" x="71.66" y="102.92" width="4.56" height="4.56" rx=".15" ry=".15"/>
      <rect class="cls-19" x="78.5" y="101.3" width="4.56" height="4.56" rx=".15" ry=".15"/>
      <rect class="cls-11" x="85.34" y="103.25" width="4.56" height="4.56" rx=".15" ry=".15"/>
      <rect class="cls-19" x="99.99" y="108.14" width="4.56" height="4.56" rx=".15" ry=".15"/>
      <rect class="cls-4" x="80.45" y="107.81" width="3.91" height="10.42" rx=".18" ry=".18"/>
      <path class="cls-15" d="M68.4,98.36l13.68-10.1,14.33,10.1"/>
    </g>
    <g>
      <path class="cls-1" d="M110.09,118.23v-21.17h30.62v21.17h-30.62Z"/>
      <path class="cls-4" d="M110.09,97.06l4.56-4.89h21.5l4.56,4.89h-30.62Z"/>
      <rect class="cls-24" x="114" y="101.95" width="4.56" height="4.56" rx=".15" ry=".15"/>
      <rect class="cls-19" x="120.51" y="101.95" width="4.56" height="4.56" rx=".15" ry=".15"/>
      <rect class="cls-11" x="127.03" y="101.95" width="4.56" height="4.56" rx=".15" ry=".15"/>
      <rect class="cls-19" x="133.54" y="101.95" width="4.56" height="4.56" rx=".15" ry=".15"/>
      <rect class="cls-4" x="123.12" y="107.16" width="4.56" height="11.07" rx=".18" ry=".18"/>
      <rect class="cls-4" x="114.32" y="94.78" width="9.77" height="3.91" rx=".18" ry=".18"/>
      <path class="cls-18" d="M115.63,96.74h7.17"/>
    </g>
    <g>
      <rect class="cls-4" x="150.48" y="100.97" width="3.58" height="17.26" rx=".18" ry=".18"/>
      <path class="cls-1" d="M144.62,103.58c3.26-8.47,11.73-9.77,16.29-.33,1.63,3.26-1.3,7.17-7.82,7.17-5.54,0-9.45-2.93-8.47-6.84Z"/>
      <path class="cls-6" d="M147.55,102.27c2.61-4.56,8.47-4.89,11.07,0,1.63,2.61-.98,5.21-5.54,5.21-3.58,0-6.19-1.95-5.54-5.21Z"/>
    </g>
    <g>
      <path class="cls-1" d="M162.86,118.23v-28.34l11.73-9.12,12.38,9.45v28.01h-24.1Z"/>
      <rect class="cls-4" x="182.07" y="82.08" width="3.58" height="7.82" rx=".18" ry=".18"/>
      <path class="cls-8" d="M162.86,90.22l11.73-8.47,12.38,8.79v2.28l-12.38-8.47-11.73,7.82v-1.95Z"/>
      <rect class="cls-19" x="166.44" y="96.08" width="4.56" height="4.56" rx=".15" ry=".15"/>
      <rect class="cls-24" x="176.86" y="95.76" width="4.56" height="4.56" rx=".15" ry=".15"/>
      <rect class="cls-11" x="166.44" y="104.55" width="4.56" height="4.56" rx=".15" ry=".15"/>
      <rect class="cls-19" x="176.86" y="104.23" width="4.56" height="4.56" rx=".15" ry=".15"/>
      <rect class="cls-4" x="172.95" y="108.14" width="3.58" height="10.1" rx=".18" ry=".18"/>
    </g>
    <g>
      <path class="cls-1" d="M190.21,118.23v-20.85l16.29-11.4,16.29,11.4v20.85h-32.57Z"/>
      <path class="cls-10" d="M203.24,97.39v-5.54l3.26-2.28,3.26,2.28v5.54h-6.51Z"/>
      <rect class="cls-19" x="195.1" y="102.6" width="4.56" height="4.56" rx=".15" ry=".15"/>
      <rect class="cls-24" x="201.94" y="101.3" width="4.56" height="4.56" rx=".15" ry=".15"/>
      <rect class="cls-11" x="208.78" y="103.25" width="4.56" height="4.56" rx=".15" ry=".15"/>
      <rect class="cls-19" x="215.62" y="101.62" width="4.56" height="4.56" rx=".15" ry=".15"/>
      <rect class="cls-4" x="204.55" y="107.81" width="3.91" height="10.42" rx=".18" ry=".18"/>
      <path class="cls-15" d="M218.88,89.9v4.56"/>
    </g>
    <g class="cls-29">
      <path class="cls-15" d="M226.04,116.93h29.97"/>
      <path class="cls-15" d="M228.32,116.93v-5.54M233.21,116.93v-5.54M238.09,116.93v-5.54M242.98,116.93v-5.54M247.87,116.93v-5.54M252.75,116.93v-5.54"/>
    </g>
    <g>
      <path class="cls-1" d="M259.27,118.23v-16.61l13.03-8.79,13.68,8.79v16.61h-26.71Z"/>
      <rect class="cls-24" x="263.5" y="104.55" width="4.56" height="4.56" rx=".15" ry=".15"/>
      <rect class="cls-19" x="270.01" y="103.25" width="4.56" height="4.56" rx=".15" ry=".15"/>
      <rect class="cls-11" x="276.53" y="105.2" width="4.56" height="4.56" rx=".15" ry=".15"/>
      <rect class="cls-4" x="271.32" y="108.46" width="3.58" height="9.77" rx=".18" ry=".18"/>
    </g>
    <g class="cls-28">
      <path class="cls-4" d="M289.23,118.23c1.3-4.56,6.19-5.21,9.45-5.21h9.77c3.26,0,8.14.65,9.45,5.21h-28.66Z"/>
      <path class="cls-1" d="M295.74,113.02l3.58-3.91h8.47l3.58,3.91h-15.63Z"/>
      <circle class="cls-1" cx="297.37" cy="117.58" r="1.82"/>
      <circle class="cls-1" cx="312.36" cy="117.58" r="1.82"/>
    </g>
    <g>
      <path class="cls-1" d="M320.5,118.23v-25.73l13.68-9.77,14.33,10.1v25.41h-28.01Z"/>
      <path class="cls-4" d="M348.51,118.23v-19.22h12.38v19.22h-12.38Z"/>
      <rect class="cls-24" x="324.73" y="98.36" width="4.56" height="4.56" rx=".15" ry=".15"/>
      <rect class="cls-19" x="331.25" y="97.06" width="4.56" height="4.56" rx=".15" ry=".15"/>
      <rect class="cls-11" x="337.76" y="99.02" width="4.56" height="4.56" rx=".15" ry=".15"/>
      <rect class="cls-19" x="353.07" y="104.23" width="4.56" height="4.56" rx=".15" ry=".15"/>
      <rect class="cls-4" x="333.85" y="107.81" width="3.91" height="10.42" rx=".18" ry=".18"/>
      <path class="cls-15" d="M327.01,88.59v4.56"/>
    </g>
    <g class="cls-27">
      <rect class="cls-4" x="363.49" y="109.44" width="6.51" height="8.14" rx=".18" ry=".18"/>
      <path class="cls-1" d="M365.45,111.39h2.61c.36,0,.65.29.65.65h0c0,.36-.29.65-.65.65h-2.61c-.36,0-.65-.29-.65-.65h0c0-.36.29-.65.65-.65Z"/>
      <rect class="cls-4" x="366.1" y="117.91" width="1.17" height=".91"/>
    </g>
    <g>
      <path class="cls-1" d="M376.52,118.23v-19.87l14.33-10.42,14.98,10.42v19.87h-29.31Z"/>
      <path class="cls-7" d="M385.64,98.36v-5.54l5.21-3.58,5.21,3.58v5.54h-10.42Z"/>
      <rect class="cls-19" x="381.08" y="103.58" width="4.56" height="4.56" rx=".15" ry=".15"/>
      <rect class="cls-24" x="387.92" y="102.27" width="4.56" height="4.56" rx=".15" ry=".15"/>
      <rect class="cls-11" x="394.76" y="104.23" width="4.56" height="4.56" rx=".15" ry=".15"/>
      <rect class="cls-4" x="389.55" y="108.14" width="3.58" height="10.1" rx=".18" ry=".18"/>
      <rect class="cls-10" x="399.65" y="92.18" width="2.93" height="6.19" rx=".16" ry=".16"/>
    </g>
    <path class="cls-10" d="M409.09,118.23c4.56-5.86,11.07-5.86,15.63,0h-15.63Z"/>
    <g>
      <path class="cls-1" d="M418.21,118.23v-28.99l11.07-8.79,11.73,8.79v28.99h-22.8Z"/>
      <rect class="cls-19" x="421.79" y="95.11" width="4.56" height="4.56" rx=".15" ry=".15"/>
      <rect class="cls-24" x="431.57" y="95.11" width="4.56" height="4.56" rx=".15" ry=".15"/>
      <rect class="cls-11" x="421.79" y="103.58" width="4.56" height="4.56" rx=".15" ry=".15"/>
      <rect class="cls-19" x="431.57" y="103.58" width="4.56" height="4.56" rx=".15" ry=".15"/>
      <rect class="cls-4" x="426.35" y="108.14" width="3.58" height="10.1" rx=".18" ry=".18"/>
      <path class="cls-17" d="M421.14,108.46h17.91"/>
    </g>
    <g>
      <path class="cls-1" d="M444.92,118.23v-16.94l13.03-8.79,14.33,8.79v16.94h-27.36Z"/>
      <rect class="cls-24" x="449.15" y="104.55" width="7.17" height="4.56" rx=".15" ry=".15"/>
      <rect class="cls-19" x="458.27" y="103.25" width="9.12" height="4.56" rx=".15" ry=".15"/>
      <rect class="cls-4" x="456.97" y="108.46" width="3.58" height="9.77" rx=".18" ry=".18"/>
      <path class="cls-18" d="M462.83,103.25v4.56"/>
    </g>
    <g>
      <path class="cls-1" d="M474.89,118.23v-20.19l14.98-10.75,15.63,10.75v20.19h-30.62Z"/>
      <path class="cls-10" d="M477.49,118.23v-9.12h7.82v9.12h-7.82Z"/>
      <rect class="cls-19" x="479.45" y="103.25" width="4.56" height="4.56" rx=".15" ry=".15"/>
      <rect class="cls-24" x="486.29" y="101.95" width="4.56" height="4.56" rx=".15" ry=".15"/>
      <rect class="cls-11" x="493.12" y="103.9" width="4.56" height="4.56" rx=".15" ry=".15"/>
      <rect class="cls-19" x="499.96" y="102.6" width="4.56" height="4.56" rx=".15" ry=".15"/>
      <rect class="cls-4" x="488.24" y="108.14" width="3.58" height="10.1" rx=".18" ry=".18"/>
      <path class="cls-15" d="M500.62,90.87v4.56"/>
    </g>
    <g>
      <path class="cls-9" d="M508.76,118.23v-12.7l10.42-7.17,9.77,7.17v12.7h-20.19Z"/>
      <rect class="cls-11" x="512.99" y="109.11" width="4.56" height="4.56" rx=".15" ry=".15"/>
      <path class="cls-16" d="M525.7,101.3v3.91"/>
    </g>
    <g>
      <path class="cls-1" d="M531.56,118.23v-18.57l13.68-9.12,13.68,9.12v18.57h-27.36Z"/>
      <rect class="cls-24" x="536.12" y="104.55" width="4.56" height="4.56" rx=".15" ry=".15"/>
      <rect class="cls-19" x="542.96" y="103.25" width="4.56" height="4.56" rx=".15" ry=".15"/>
      <rect class="cls-11" x="549.8" y="105.2" width="4.56" height="4.56" rx=".15" ry=".15"/>
      <rect class="cls-4" x="544.26" y="108.46" width="3.58" height="9.77" rx=".18" ry=".18"/>
      <rect class="cls-10" x="553.06" y="92.83" width="2.93" height="6.51" rx=".16" ry=".16"/>
    </g>
    <g class="cls-27">
      <rect class="cls-4" x="575.2" y="103.58" width="3.26" height="14.66" rx=".18" ry=".18"/>
      <path class="cls-1" d="M569.99,105.86c2.93-6.84,10.1-7.82,14.01-.33,1.3,2.61-.98,5.54-6.51,5.54-4.56,0-8.47-1.63-7.49-5.21Z"/>
    </g>
  </g>
  <g id="lamps" class="cls-30">
    <g>
      <rect class="cls-4" x="78.17" y="65.14" width="3.58" height="53.09" rx=".2" ry=".2"/>
      <circle class="cls-24" cx="79.99" cy="65.79" r="1.17"/>
      <circle class="cls-22" cx="79.99" cy="65.79" r="4.04"/>
      <path class="cls-26" d="M79.99,66.77l-17.46,51.46h35.18l-17.72-51.46Z"/>
      <path class="cls-15" d="M74.26,68.72c3.91-1.63,7.82-1.63,11.07,0"/>
    </g>
    <g>
      <rect class="cls-4" x="219.53" y="69.05" width="3.58" height="49.18" rx=".2" ry=".2"/>
      <circle class="cls-24" cx="221.35" cy="69.7" r="1.17"/>
      <circle class="cls-20" cx="221.35" cy="69.7" r="4.04"/>
      <path class="cls-14" d="M221.35,70.68l-14.85,47.55h29.97l-15.11-47.55Z"/>
      <path class="cls-15" d="M215.62,72.63c3.91-1.63,7.82-1.63,11.07,0"/>
    </g>
    <g>
      <rect class="cls-4" x="368.7" y="63.19" width="3.58" height="55.04" rx=".2" ry=".2"/>
      <circle class="cls-24" cx="370.53" cy="63.84" r="1.17"/>
      <circle class="cls-23" cx="370.53" cy="63.84" r="4.04"/>
      <path class="cls-13" d="M370.53,64.82l-19.41,53.42h39.09l-19.67-53.42Z"/>
      <path class="cls-15" d="M364.8,66.77c3.91-1.63,7.82-1.63,11.07,0"/>
    </g>
    <g>
      <rect class="cls-4" x="519.83" y="66.77" width="3.58" height="51.46" rx=".2" ry=".2"/>
      <circle class="cls-24" cx="521.66" cy="67.42" r="1.17"/>
      <circle class="cls-21" cx="521.66" cy="67.42" r="4.04"/>
      <path class="cls-12" d="M521.66,68.4l-16.16,49.83h32.57l-16.42-49.83Z"/>
      <path class="cls-15" d="M515.92,70.35c3.91-1.63,7.82-1.63,11.07,0"/>
    </g>
  </g>
  <g id="cables" class="cls-25">
    <rect class="cls-4" x="40.39" y="59.93" width="3.58" height="58.3" rx=".2" ry=".2"/>
    <path class="cls-4" d="M37.78,64.49h8.47c.72,0,1.3.51,1.3,1.14h0c0,.63-.58,1.14-1.3,1.14h-8.47c-.72,0-1.3-.51-1.3-1.14h0c0-.63.58-1.14,1.3-1.14Z"/>
    <path class="cls-15" d="M42.02,67.1c71.98-5.21,161.23-2.61,249.17-7.17,94.46-4.56,186.96.65,300.3-1.63"/>
    <path class="cls-15" d="M42.02,70.68c71.98-4.56,161.23-1.95,249.17-6.19,94.46-4.23,186.96.33,300.3-1.63"/>
  </g>
</svg>