<?xml version="1.0" encoding="UTF-8"?>
<svg xmlns="http://www.w3.org/2000/svg" xmlns:xlink="http://www.w3.org/1999/xlink" viewBox="0 0 160 160">
  <defs>
    <style>
      .cls-1 {
        fill: url(#radial-gradient-2);
      }

      .cls-2 {
        fill: #e6e6e6;
      }

      .cls-3 {
        mix-blend-mode: multiply;
        opacity: .72;
      }

      .cls-4 {
        fill: url(#radial-gradient);
      }

      .cls-5 {
        isolation: isolate;
      }

      .cls-6 {
        mix-blend-mode: overlay;
      }
    </style>
    <radialGradient id="radial-gradient" cx="14.95" cy="-387.18" fx="14.95" fy="-387.18" r="108.59" gradientTransform="translate(-188.54 311.95) rotate(40.76)" gradientUnits="userSpaceOnUse">
      <stop offset=".07" stop-color="#fff"/>
      <stop offset=".37" stop-color="#fcfcfc"/>
      <stop offset=".53" stop-color="#f4f4f4"/>
      <stop offset=".66" stop-color="#e6e6e6"/>
      <stop offset=".77" stop-color="#d3d3d3"/>
      <stop offset=".87" stop-color="#bababa"/>
      <stop offset=".94" stop-color="#a3a3a3"/>
    </radialGradient>
    <radialGradient id="radial-gradient-2" cx="51.09" cy="-349.93" fx="51.09" fy="-349.93" r="71.9" gradientTransform="translate(-188.54 311.95) rotate(40.76)" gradientUnits="userSpaceOnUse">
      <stop offset=".9" stop-color="gray"/>
      <stop offset="1" stop-color="#cdcdcc"/>
    </radialGradient>
  </defs>
  <g class="cls-5">
    <g id="Layer_1" data-name="Layer 1">
      <g>
        <path class="cls-4" d="M133.09,127.21c-25.93,30.07-71.33,33.44-101.4,7.51C1.62,108.79-1.75,63.39,24.18,33.32,50.11,3.24,95.51-.12,125.58,25.81c30.07,25.93,33.44,71.32,7.51,101.4Z"/>
        <g class="cls-6">
          <path class="cls-1" d="M133.09,127.21c-25.93,30.07-71.33,33.44-101.4,7.51C1.62,108.79-1.75,63.39,24.18,33.32,50.11,3.24,95.51-.12,125.58,25.81c30.07,25.93,33.44,71.32,7.51,101.4Z"/>
        </g>
        <g class="cls-3">
          <path class="cls-2" d="M142.61,53.18c.03-.16-.28-.72-.3-.89.07,0,.98.02,1.02.18-.07-.2-.46-.13-.52-.26-.15-.8-.18-2.1-.87-1.71-.09-1.11-.47.3-1.76-2.06-.16.14-.73-2.83-2.01-4.65-.5-.87-1.11-.94-1.71-1.34-.82,1.2-.08,2.12.34,3.28-1.2.6-1.69,1.3-.94,2.62.27-.09.48.27.64.21-.3.45-.53,1.93-.62,2.45,1.49-.69,1.14,1.17,1.83,2.22.4.6,1.83.47,2.19.96.34.45-.08,1.56.31,2.12.92,1.32,1.28,1.73,2,3.41.47,1.1,1.05,3.09,1.67,3.9.98-.85.46-3.78-.15-5.95.03.02.9-.22.94-.2-.06-.09-1.02.14-1.06.06-.07-.23-.09-.55-.17-.77.04-.15,1.33-.07,1.6-.04-.2-.33-1.36-.95-1.6-1.53.07-.06.33-.07.39-.18.43-.71-.51-1.37-1.25-1.83Z"/>
          <path class="cls-2" d="M134.53,43.75s-.11.08-.1.06c.06.05-.01.42.04.48.44.51-.14,1.75,1.12,1.53-.27-1.33-1.38-2.92-1.99-4.13,0-.01.7-.37.7-.38-.04-.08-.46.02-.5-.06-.48-1.35-1.54-2.04-1.91-2.56.2-.08,1.15-.93,1.41-.95.09.21.2.53.31.76.12-.13.27.31.27.15.13-.06.55-.38.63-.51-.27-.44-1.71-.26-2.07-.59.13-.05,1.45-.67,1.53-.68-.22-.35-1.64-.85-2.46-1.67-.06-.09-.15-.16-.23-.23-.13-.13-.32-.18-.47-.28-1.16-1.12-2.13-1.37-2.19-1.37,0,0-.17-.68-.17-.68-.07-.04-.07-.14-.16-.17,0,.01.39-.72.39-.7-.2-.13-.45.23-.68.19.72,1.15-.35,1.99-1.78.69.22.7.37.6.54,1.04-.04.06.82.44.78.52-.03,0-.16-.59-.18-.6-.34-.8-.69-1.51-1.17-1.66-.28-.25-1.12.82-1.37.86-.52-.3-.73-.65-.62-.36-.05-.01.47-.68.42-.71-.42-.25-1.36.21-1.74-.01-.74-.44-3.92-1.99-4.62-1.75.57.83,1.67,1.7,2.57,2.39.86.65,1.91,1.05,2.91,1.48,1.14.5,4.41,1.19,3.14,3.11.73.66.67,1.71,1.73.85.68,1.06,1.37,2.98,2.67,2.73.3,1.27,1.15.9,1.99,1.51.21.32-.16,1.22-.04,1.35.23.24.22.75.5.96.06.09.75-.66.8-.6Z"/>
          <path class="cls-2" d="M111.38,49.31c-.25,1.87-.74,1.74.95,3.33,1.43,1.35,2.19.71,3.84.98,1.35.22,2.27,1.76,3.76.8,1.45-.94.04-1.78-.01-2.73.14-.12.7.62.83.5.22.2,1.25.02,1.43.17,0-.35.11-.95.14-1.32.35-.4-.13-1.96.15-2.38.56.34.81,1.26,1.14,1.85,1.09-1.04.78-1.48.38-2.48.04,0,.58-.13.62-.16-.09-.13-.38-.55-.49-.6-.03-.12.1.3.09.18.04-.18-.24-.26-.22-.43.27-.48.76-.96.15-1.87-.26-.39-1.31-.15-1.78-.38-.22-1.31,1.98-1.39.98-2.52-2.17-3.28-3.89.28-4.15,1.03-.62-2.58-1.53-4.73-3.78-4.97-.62-.4-1.49-.15-2.55-.13-1.22.01-4.23-.75-5.09.08.67,1.32,2.03.48,3.05.89,0,0-.79,1.09-.78,1.09,0,0,.38-.26.38-.26.13.08.15.27.29.35.43.36.95.25,1.68.12.17.09.85,0,1.03.09.4,1,.59,3.11,1.62,2.75.55.61.33.25.48,1.22-.54.16-2.01-1.19-2.06-1.25.02.11-.58-.07-.96.85-.24-.26-.03.22-.14.16-.08-.18-.02-.5-.11-.71-.07-.55-.12-1.13-.68-1.76-.15-.43-.6-1.23-.6-1.23-.31.25-.62,1.43-.87,1.17-.08.06.29-.31.24-.23-.73-.07-1.17-.07-1.23.74-.09,1.1,3.1,1.67,2.83,3-.09.12-.82-.07-.89.05-.53,0-.98-1.36-1.72-.61-.04.04-1.49,2.92-1.45,3.1.27,1.39,2.38,2.19,3.52,1.52Z"/>
          <path class="cls-2" d="M130.43,53.73c-.07.05-.21.17-.28.2.32.7,1.17.99,1.59,1.56-.02-.02-.45.25-.47.23.13.17.12,1.04.29,1.95,0,.01.79.11.79.13-.49,1.93-1.45.33-2.84,0-.32,1.26,1.03,1.37,1.42,2.29.3.69.41,1.64.72,2.43-.13.1-1.04.54-1.16.58-1.43-1.87-1.03-2.49-1.57-1.98-.54.24-1.35-.63-1.63-.14-.77-.75-1.79-.58-2.45-.06-2.46-.18-5.94,1.35-4.77,2.37-.5.03-1.16-.39-1.24-.42.13-.18.27-.31.28-.46.07-.25.88-.69.29-1.14,0,.1-.37,1.31-.39,1.38-.72-.25-2.36-.46-2.18.87.52.33,1.54,1.36,2.17,2.42.31.71.98,1.08,1.02,1.71-.03.14.39.78.32.9-.21-.01-.71-.37-.57-.18-.03.02-.64.09-.67.11-.03-.41.3-.83.11-1.18-.15-.87,0-1.54-.96-.26-.73.98-.22,2.91.76,3.55.01.1-.62-.23-.61-.13-.23.42-.2,1.5.04,1.92,0,.06.94-.92.93-.87-.33-.17-1.15.69-1.43.52-.2-.12-.95-.5-1.2-.75-.84-1.8.41-5.53.05-6.96-1,.82-1.07,1.08-1.04.33-.09.05-3.01,3.07-3.32,3.54.14-.23.76-.62.73-1.15.03-.15.2-.55.13-.98-.02,0-1.46.29-1.48.3-.09-.62-.28-1.51-.43-2.04.2.12,1.14-.08,1.24-.09.74-.05.55-.75,1.37-.88-.15-.46-.14-.71-.36-.91-.08-.13-.49-.23-1.16-.43,1.11-.71.96,1.72,1.31-1.12.04-.16.41-.31.4-.45,0-.07.35-.22.35-.29-.02,0-.85.12-.86.12-.13-.67-.8-.74-1.47-1.46-.52.33-.51,1.21-.68,1.82-.57-.23-1.38-1.02-1.74-1.28-.49-.35-.89-.7-1.15-1.23-.91.29-1.78,1.29-1.44,2.18-.06.04.44-.8.38-.78-.54-.24-.68-.24-1.14-.85-.27-.6-.95-1.12-1.23-1.35-.01.03.56-.07.55-.04-.27-.57-1.31-.81-1.56-1.62-1.31.57-.42,1.69-.54,1.76-1.33-.84-2.84.77-3.05.68.08-.05.69,1.59,1.05,1.94-2.13-1.49-1.63,2.04-1.36,2.56-.74-.18-1.44-.92-1.01.27-1.98-.68-2.58.18-3.72.18.12-.1-.18-.12-.05-.17-.1-1.2-.42-2.75-1.54-.96-.37-.15-.05-.18-.17-.42.22-.07-.31-.56-.36-.92,1.37-.77-.67-2.17-1.3-3-.25.33-.82.89-.97,1.35-.31-.72.06-1.84-.29-2.51-1.17.23-.41-1.82-.88-2.53-.71-1.06-1.83-.62-3.09-1.07.38-.56.8-1.11,1.39-1.44-.45-1.42-.97-.5-1.87-.6-.77-.08-1.73-1.3-2.66-1.02.09.3.82,1.46.93,1.76-.11-.02-.18,0-.26-.07-.15.38-.77.51-1.08.78-.48-.59.22-1.87.69-2.44-.67-.12-1.27.57-1.46,1.12-.7-.77-1.23-1.83-1.26-2.29-.81.3.54,2.61-1.36,1.21,1.46-5.21-.8-.82-1.77,2.17-.42-.54-.89-1.29-1.28-1.88-.39.35-.98.62-1.26,1.14-.13-.26-1.14-.96-1.25-1.23-.22.76.47,3.83-.97,3.43-1.45-.4-.2-2.31-.26-3.27-.92.65-2.24.33-2.99.6-.17-.96.15-2.45-.83-2.23.63,1.49-.52,2.54-.88,4.06-.01.05.28-.34.27-.29-.49.14-.8.8-1.57.43-.06.4-.98.83-1.11,2.04-.65.35-.26,1.28-.49,1.54-.62.73.32,1.63-1.32,1.55-.79-.04-.95-1.34-1.91-.81-1.7.94,3.43,2.77,3.73,3.73-.6.51-1.62,2.13-.98,2.99-.03,0,.29-.36.23-.26.08.13.12-.23.14-.3.04,0,.03.71.07.71.08.09.8-.26.89-.18-.02.48-1.08,1.33-1.05,1.49-.57-1.05.2.49.19.5-.02-.57.51-.02,1.28.25-.62.48-1.65,1.57-.95.77,1.02.11,2.38.8,2.84,1.61-.07.03-1.46.51-1.52.53.38,1.19-.99,1.21-.63,2.34.34,1.06,2.2.51,2.98.28.56,1.97.95,3.72,3.08,3.55-1.35.29-1.8,2.23-3.41,3.13.44,1.26.36,1.37,2.13,1.84.65-2.54,1.31-2.76,2.65-2.81-.05.1.2-.06.13.04.42.57.26.1.85-.25,0,.01.89,1.23.86,1.22-.16.57-.8.89-1.32,1.21.42,1.13,1.66,1.84,2.59,2.44-.33-.85-.26-1.95.63-2.02-.65-.75-.58-1.5-.28-1.98,1.05-.24,2.21.51,3.37.06.67,1.1-4.88.84.47,2.74-.55.51-.32.79-.48,1.29-.21,0-.54-.4-.76-.46-.44-.83-.93-.98-1.61-.21.41.56.14.91-.01,1.48-.28-.12-.26-.8-.65-.87-.52-.29-1.08-.33-1.66-.61-.08-.12-.42.15-.5.03-.07.05-.27.77-.37.81-.17-.08-.06-.84-.22-.91-.12-.65-.81-.74-1.4-.55.31-.35-.5-.51-.62-.25-.08-.03.07.21-.02.18-.15-.58.31-.88.18-1.45-.24.37-1.44-.09-1.52.34-.15.22.58.77.46.96-1.33-.39-2.47-.87-3.02-.51-.14-.19.01.57-.09.34-1.13.61-2.07-.69-3.1-.03.74.03.9.03,1.18.83-.15.08-.05-.32-.19-.21.62.17.37,1.02.77,1.33-.05.26-.18.93-.24,1.27-.64-.18-1.55-.3-2,.2.39.4.65,1.11.91,1.22,0,.08,0-.43.05-.42-.15.31.23.84.2,1.3-.23.05,1.14-.21,1.32.26-.35.23-.44,1.3.07,1.49-.19-.04-.3-.75-.63-.83.02-.01.42.11.45.08.11-.13-.19-.61-.32-.42.06.06-.1.39-.04.45-.12-.04-.32-.34-.35-.39-.42.42-.21,1.42.46,1.83-.11.31.09-.51-.08-.4-.12,0,.12.16-.01.16-.09-.04-.33.83-.45.72-.05.08.08.34.03.42-.44.03-1.33.11-1.8.2-.02-.31-.13-1.16.13-.6-.15.04-.45-.2-.6-.15-.29-.18-.73.64-.93.28-.52.28-.77.42-1.3.71-.14-.08-1.04-.53-1.19-.57-.22-1.23,1.22-2.91.89-4.13-.77.62-2.25,2.08-2.94,2.99,0-.03-.64-.26-.64-.28.15-.46,1.38-.79,1.5-1.54.15-.12-.12-.32-.08-.47.42-.34.67-.56.51-1.48,1.59,1.08,1.33-.82,1.7-1.69.37-.88,1.67-1.2.31-2.33-.18.34-.67.59-.79,1.05-.4-.52-.32-.64-.74-1.12.91-.92-.94-1.92-1.86-1.12-1.35,1.18,0,1.18-2.33,1.45-1.19.14-2.47.73-3.32-.39-1.07-1.43.63-1.58,1.27-2.82-1.89-1.53-.54-1.71.09-3.48.12-.32-.06-.95.03-1.32.11-.43.21-.83.24-1.34.05-.97-.5-.7-1.37-.44,0,0-.57-1.06-.57-1.06.75-.72.26-1.53-.69-1.42-.36-.41-.4-1.78-.44-2.32-.06-.82.29-.66-.3-1.46-.99,1.11-.99,2.1-.61,3.59.07.76-.05,2.32-.06,2.34-.41-.35-.45-1-.86-.73.25-.75-.39-1.12-.81-1.65.03-.15,1.02-1.74.88-1.66.08.05-1.61-.62-1.61-.58-.95-1.11-.85.21-1.01,0,.22-.17-.94-1.67-.68-2.7.26-.38.6-.87.77-1.28.08-.07.68.16.78.12-.07,0-.02-.06-.08-.06.11-.27-.39.25-.37.12.17.21.42-.4.55-.15-.14-.97-.46-.83-1.07-.52,0-.02-.63.12-.64.1-.01-.02.6-.14.54-.05-.12.07.07.42-.04.5.37-.35-.08-1.34-.35-1.92-.45-.97-.43-.27-1.1.18,0-.18-.18-.83-.19-1.01-2.71.52-2.54-2.84-4.27-3.9-.08.62.84,3.34-.16,3.29.07-.09.08-.4.19-.51-.15-.17-.61-.14-.96-.14-.4-1.04-.97-3.71-2.33-2.37.03.16.96.29,1.03.44.27-.04-.04,1.29.26,1.24-.13.34.98.33,1.06.71-.07.06-1.37.54-1.38.63.07.02.93-.37.99-.35.13.45-.32,1.03-.17,1.48.04.63.79,1.94-.77,1.59-.06.16-1.11-3.15-1.07-3.51-.38.38-.71.28-1.08.67.01-.53-.41-2.34-.57-2.77-.3.51-.42.64-.7-.18-1.08.28-3.18,3.86-3.04,2.79-1.75,1.45,2.85.63,3.19.36.91,1.43-3.37,2.04-3.57,1.83-.13.15.2.36.12.5-.48.39-.13-.19-.09.36.07-.06-.41.1-.35.06-.11.55-.37,1.55-.49,2.13-.48-.64-.7-1.23-1.15-1.89-.1.84-.19.69-1.03,1.06-.7-.84-.66-2.23-1.87-1.77-1.3.5.15,1.85.35,2.64.04.15-.02-.23.07-.02-.34-.34-1.11.42-1.9,1.19-.25-.2-.6-.75-.7-1.05.11-.13-.64.1-.54-.04-.37-.67-.92-1.66-1.5-.66-.32.56.36,1.74.66,1.83-.19.39-.07.85-.17,1.44-.66.86-.13,2.38.8,3.68.58,1.57,1.67,2.96,1.95,3.62-.05.08-.24.57-.32.63-1.28-.91-1.5-4.65-3.19-4.64.43.68,1.2,2.31,1.07,3.15-.19,1.3-.51.64-.99-.4-2.45,1.32.57,1.94.8,2.68.04.13.6-.27.47-.06-.84-.28-2.22-.26-3.06.49.43.75,1.16,1.51,1.8,1.77.04.62,1.5,1.28,1.39,1.92-.32-.2-.68-.92-1.02-1.33-.11.03-.19-.31-.32-.33-.12-.1-.61.88-.7.82-.04.04-.06-.16-.09-.11-.58-.2-1.08-.55-1.56-.11-.85.77.58,2.22,1.48,1.57.08.07,0-.37,0-.41.09.29-.58.82-.65,1.26.2-.08,1.44-1.02,1.65-1.12.39.34.83,1.48.89,1.99-.04,0-.28-.05-.31-.04-.12-.36-.62-.09-1.13-.24-.17.15-.29-.9-.44-.76-.22-.15-.75-.3-.92-.5-.32.42-.61.79-1.19.92-.14-.07.2-.08.09-.12-.06-.07-.1.51-.12.44.36-1.72-.59-3.59-1.22-5.34.15-.85-.47-1.23-1.52-2.57.7-.41,2.14-1.25,2.01-2.12-1.54.02-1.93-1.76-1.89-3.06,0,0-.34.1-.34.09.96.05.6-1.61,1.17-2.07.15-.07.57-.46.74-.52.97-.11,1.32,2.22,2.07.82.13.22,1.1.97,1.22,1.21,1.24-2.03-1.55-2.97-2.25-4.38-.69-1.38-1.73-1.34-.87-2.32.48-.55,2.66-.97,1.73-2.08-1.04.18-1.86,1.28-2.6,1.86-.18-.08.37-.26.31-.31-.03-.04-.33.83-.34.82,2.94-1.29-.7-4.89-2.6-1.88-.35.55-.59,3.13-1.52,2.96-1.33-.25.41-2.94.7-3.6-.29.27-1.1.4-1.4.66.03-.12.36-.81.48-1.12-.24.15-.45,0-.69.14-.66-1.08.55-1.39.77-2.44.19-.93-1.29-2.72-1.17-3.66-.42,1.2-.76,2.35-.98,3.71-.17,1.03.84,1.78.43,2.8-.81,1.96-2.23,3.46-1.91,5.56-.14-.11.09-.16-.05-.28-.55.4-.3.98-.39,1.55-.72,1.89-.8,4.5-.97,6.98-.17.47-.69.96-.82,1.44-.34,1.23.57,1.76.62,2.68-.02.43-1.02.8-1.04,1.1-.04.27.66.72.58,1.03,0,0-1.24-.37-1.24-.37-.01.06.32.23.3.28-.03.12-.32.17-.35.31-.28.99-.18,5.07,1.36,4.7.02.78,1.18,1.4.82,2.22-.11-.06-1.44-.06-1.57-.18,0,0-.32-.37-.33-.37-.03-.15,1.07-1.18,1.01-1.33.34.28.43,1.16-.43.19-.16.09-.69-.51-.71-.41-.03-.05,1.18.71,1.15.66-.09.35-.41.57-.39,1-.15.07-.97.12-1.06.2.19.55.92,1.12,1.24,1.76.34,1.11.82,1.84,1.19,2.02-.03.01.36.62.58.42,0,0-.84-1.05-.84-1.05.03-.02,1.02.7,1.05.67.78-2.5,1.5-4.15,2.28-2.15.23.09-.24.93-.18,1.89-.04.64.13,1.38.37,1.72.03.13.29.11.33.23.02-.07.45.33.49.26.02.01-1.13-.34-1.11-.33.04.73.93.69,1.23.08.32.3,1.75,2.35,1.58,3.42-.22.17-1.19-.49-1.73-.75-.79-.37-1.81-1.29-2.56-1.88.12.41.48.34.54.82-.93-1.95-2.62-1.23-3.49-3.46-.04.42.62.95.66,1.61-.05-.01-1.22.04-1.28.03.07.11,1.38.08,1.43.2.12,2.09-.28,4.95.26,6.14,0,.01.43-.61.55-.63.09.07,1.39,2.33.76,2.59-.63-.88.15-.92-.3-1.4-.24.17-.58.66-.63,1.07,0,0,1.01.16,1.01.16-.35,2.09,1.07,5.29,1.86,7.36.15.38-.75,2.51-.48,2.74.03.03.57-.6.6-.58.33.77.62,1.24.68,1.45.36-.35.33.37.42,1.46-.18-.09.4-.06.22-.13-.06-.12.18-.58-.03-.88.09.19-.7.77-.62.94-.06-.03-.1-.54-.16-.57-.51.88.43,2.37,1.21,2.77.11.26.1.15.18.35.26.83,1.43,1.38,1.81,2.22.33.73,1.04,2.94,1.11.79.1.07.71-.04.85.07.07.19-.01.43.05.61.03-.1-.18.21-.14.1.23.2.41.26.65.5.53,1.16.83,2.29.83,1.44.07.16.3.47.25.56.23.48,1.9.72,2.95,1.42.11.13-.2.8-.09.94.14.09.48-.01.62.08.68.43.68,1.12,1,1.73.02.28.23.39-.11.66.41.61,1.69.39,2.15.92.03.17-.21.67-.05.78.16.33-.41.94-.23,1.28.62,1.14,2.06,1.55,3.25,2.42-.09-.21-.64-.26-.67-.48.45-.19.81.48.47-.59.02-.16.2-.94.23-1.08.97.71,1.72,2.17,2.06,3.25-.04.03-.6-.18-.62-.15-.05-.02-.6.37-.64.39.04.03,1.43-.1,1.46-.08-.01.1-.54.17-.38.3.06.13-.38.82-.27,1.01.08-.05.21-.24.16-.37,1.27.79,4.72,2.23,7.38,3.5,0,0-.44,0-.44,0,.52.7.98,2.13,2.29.67-.12-.2.04.73-.06.52.49.29,1.93-.52,2.19-.23-.42-.71-2.8-1.12-3.09-2.1.17-.17.87-.11,1.01-.16.13.03.06.22.15.2.68.34.94,1.24,1.84,1.19,0-.09.35-.03.38-.14.13.16.71.54.73.54-.06-.07-.59.22-.68.11.06-.23.17-1.05.2-1.26.42.39,1.17,1.19,1.57,1.6-.04.1-.59.7-.66.79-.33,0-.3-.26-.72-.19.82.91.78,1.66,1.03,1.89.1,0,.57.75.67.75,0-.04-.21-1.1-.18-1.12.41.24.91.36,1.41.56.46.19,2.31.8,3,.98-.67-1.05-2.61-1.37-3.21-2.57-.01-.12.04-.25.03-.41.51.08-.02-.59.37-.63-.39-.53-.01-.78-.44-1.24.74-.03,1.38.71,2.08.82.26-.74-.04-1.68.37-1.99-.2,2.3,5.69-.83,2.78,2.27.75.06,6.16-.67,4.08,1.54-.84.9-2.91-.09-2.19,1.97.23.67,1.25,1.09,1.79,1.51.57.71,2.06.68,2.91,1.38,1.24,1.28,2.08,2.23,4.11,2.88,1.06.34,2.23,1.8,3.12,2.01.94.22,1.74-.65,2.72-.51-.36-.22-.84-.48-1.14-.77.2-.2.74.38,1,.33.13.04.29,0,.38-.08.91-.01,2.33,0,3.15-.26-.27-.65-1.79-1.37-2.42-1.57.71-.67.5-1.59-.44-1.82.49-1.19,1.59-.5,2.38-.93.48-.26.49-1.21.95-1.58-.5.05-.22-.23-.76-.43-.1-.04,0-1.19-.37-1.3-.48-.14-1.34,1.55-1.74,1.47-2.61-.58-1.25-2.03.17-2.97-.63-1.19-3.77,2.38-5.5,1.54-3.12-1.51.15-2.81.95-4.05.45-.31.95-.29,1.17-.48.2-.02.53-.35.71-.3-.17-.5-.76-.11-1.26-.35-.06.02-.11-.57-.17-.56.12-.09,1.06-.19,1.16-.3-.18-.23-1.17-.11-1.52-.21,0-.04.06-.26.05-.3-.17,0-.24-.71-.34-.71-.17-.03,0,.07-.17.05-.11-.16-.08.06-.19-.1-.07-.25-.56-.77-.53-1.01.68.4.83,1.19,1.62,1.21.14-.8-.08-1.25-.69-1.57.03-.14-.23-.8-.15-.95,1.38-.18,2.15.22,3.57,1.36,1.09.88,2.43,2.55.79,3.18.15,1.67.51-.26,1.28-.56,1.29-.5,2.05-.25,3.45.19.75.24,1.86.12,1,1.37-.17.25-.47,1.4-.88,1.37-.8-.38-.97-1.1-1.32-.86.02.02-.41-1.18-.39-1.16-.1-.01.31.66.22.66.45,1.24,1.18,1.22,2.25,1.33.24.05.39.73.63.75.24.04.79-.64,1-.55.22.29.08,1.04.41,1.17-.1.02-.15-.21-.26-.18.05.23.3.65.59.57.48.45.97.24,1.57-.1.36.04,0-.21-.01-.5,0,0,.06.4.07.4.19.37,1.09-.3,1.26.08.57-.85,1.53-.93,2.22-1.47.75-.35,1.21-1.3,1.94-1.72.22-.07.75.5.99.44,1.81-.45,4.65-1.13,5.39-3.16-.59.6-.14.33-.61-.18.26-.21-.14-.23-.07-.32-.62-.8-.2-.78-.38-1.18.08-.71.21-1.93.39-2.4-.6-.02-1.51,1.48-1.77,2.18-1.51-.79.26-3.53.16-4.88-.12-1.51-1.46-2.53-2.54-3.66-1.67.9-1.62,2.71-3.74,1.01-.16.68-.59.18-1.26.3-.51,0-1.47.28-1.82.25.39-.22,2.97-2.23,2.95-2.48-.09-.99-1.37-.76-1.87-.27-.02-.03-.1-.09-.12-.12-.2.19-.85-.04-.78,0-.09.13.51.04.46.21-.49-.56-.67-1.4-1.17-1.74-.19-.13-.87.27-1.03.29-1.05-1.35-1.69-2.96-3.05-3.2.03-.05-.69.77-.66.73-.4-.89-.51-1.02-1.09-.36-.01,0-.43.56-.44.56-.89-.69-1.09-1.77-2-.92.49,1.06.48,1.04.65,1.8.01.12,1.11.14,1.12.26,0,.06-.35.22-.35.29-.1,1.19-1.32.67-.27,1.66.51.48.13,1.33.54,1.44.25.34.4.64.74,1.1,0,.28.19.59.44.86.12.13.92-.34,1.13-.31,1.39,2,2.72,3.86.86,2.32.1-.65-1.21-.41-2.01-.76.02-.23.09-.53-.51-.3.01.02-.19.07-.17.09-.58-.17-1.37.13-1.96.03,0-.09.08-.15-.04-.11-1.04-.16-2.68-.91-2.74-.96.03-2.88-6.5.71-7.43-3.04,1-.6,3.22-.09,2.31-1.49-.12.02-.29-.73-.39-.73,1.02-1.35-1.34-2.2-2.87-2.9.25-2.07-1.13-1.19-2.45-1.44.58.58,1.03.91,1.83,1.19.08.1.38-.03.53.17-.26.28-.57.58-.83.89-.49-.75-1.83-.98-2.46-.54.26.59,1.53,1.13,1.96,1.55.01.05-.15.41-.14.46-.5.03-1.67-.82-1.96-.67-.85.46.57,1.54,1.27,1.53-1,1.35-2.35-.64-3.55-.77-.67-.08-1.38,1.6-2.13,1.53-.57-.06-1.34-1.09-1.94-1.23-.73-.16-1.92-.42-2.76-.65-.2-.1-.2-.29-.38-.41-.45-.45-.56-.21-.4-.52.2.1.24-.24.34-.27-.14-.12-.19-.11-.28-.19.26-.3.9.08,1.42.14-.12-.26-.74-.39-.93-.6-.26.13-1.13,0-1.38.13-.37-.92.86-1.91,1.53-2.42-.68-1.33-1.77-.51-2.56.08,0,0,.39.93.38.94-.1.01-.46-.7-.55-.6-.37.17.17.49-.2,1.14-.17.3-.41.43-.4.72-.19.11.49,0,.58.54-.01.04-1.24-.04-1.26,0-.27.5-1.5,2.16-2.08,2.02-1.82-.43.27-1.68.36-2.38-1.9-.04-1.69.9-2.83.84-.47-.26-1.4.48-1.82.23-.12-.6,1.73-1.99,1.38-2.84-.76,0-1.76.92-2.33,1.36-.4-.29-1.24-.6-1.33-.78,1.75-1.62,1.32-.36.46-.39.05-.22-.03-.18-.05-.33-.23.05-.29-.03-.54.1-.07-.09-.28-.09-.29-.24,1.33.65,1.36-.66,2.43-.94-.33-.21-2.74-2.8-2.89-3.54,1.32.37,2.84.66,3.03.55.15.13.03-3.12-.27-3.64,2.52,2.01,2.11,2.29,4.37,5.21-.23,3.07,9.18-.58,8.31-2.07-1.02-.93-2.62,1.29-2.88,1.87-.04-.15-1.44-.77-1.68-.69.33-.36,1.28-.87.44-.63-.38-.92,2.58-.66-.29-1.5-1.49.84-.32.77-1.95,1.17-.24-.57,1.38-2.79,1.36-2.76-.18-.11-4.94-2.41-2.03-2.38-.15-.57-3.93-1.74-4.18-1.95,3.45,1.77,1.09-3.12.39-3.65.2.07.12.62.3.68.04.04.19-.17.2-.13.03-.03.33-.93.34-.95,1.93.61,1.91.86,2.9,1.6,1.28-1.35.4-3.1,1.11-3.78.48.52.61.65.27.8,0,0-.64-.87-.65-.87.2-.19,1.53.26,2.06.25-.45-.68-.48-.97.07-.55-1.03-2.81-1.84,3.29-2.37-2.07.52,1.8-.06.27-.2-.28.96,1.12,2.65,2.62,2.66.96.33-.08,1.76.23,2.14.76,4.22-.15.88-.4-.59-2.85.43-.39.67-.44-.16-.29-.17.3-1.24.37-1.33.56-.41-.93.21-2.78.99-4.21.71,1.42,3.96,6.74,4.97,6.8.5,1.62.28,1.88.5,2.49,1.51.56.67-4.74-.89-4.51-.11.29.91,1.52.95,1.64-.12.07-1.68.55-1.89.79-.68-1.01-.52-3.51-.31-4.65,1.66.68-.17,2.33,1.72,2.02.3.62-1.28-3.43-2.06-4.88,1.24,1.01,2.31,2.95,2.07,3.5.2-.23.37-.99.57-1.37.6-.08.96,4.79,1.86,3.72.16.31.6-2.42.93-4.08.02.02-1.15-.47-1.12-.45.06-.13.88.08.81-.05.14-.55-.22-.97.02-1.14,2.1,3.55-.18.31.66,2.58.92-.77.63.36,1.06.75.66-2.08,2.15.29,2.51-.51-.32-1.07-2.13-3.03-.76-4.48.15-.07-.13-.54-.14-.64.16-.13-.13.17.09.06.05.56.49,4.77,1.94,4.54-.48.56-.55.97-.96,1.03.34.08.06-.68.38-.91,0,.07.73,1.04.72,1.12-.11.08-.91-.16-1.06-.07.17.13.74.14.82.24,0,.17.29.8.31.95-.33.3-2.51.05-2.96.15.52.45,1.78,1.54,2.64,1.25.71-.24.86-1.37,1.61-1.84.12.03-.12-.89-.03-.8.19-.14.63.91.85.83.08.09-.15-.06-.09.03.03.08.83-.15.87-.06.21.61-.75,1.32-1.22,1.77.26.02,1.24-.3,1.53-.27.02.07-.93.68-.92.8-.16.29.65,1.37.65,1.68-1.94.27-.3,1.62,1.44,2.65.06.08-.38-.43-.37-.39-2.71,2.09,2.4,4.99,1.91,5.49-.67-.21-1.19.23-1.71.7-.38-.16,1.22.29,1.92.79-.42.22-1.81,1.48-2.15,1.69-.46-.47-.53-1.25-.55-1.18-1.36.34-1.08-.25.2.56-.29-.19-.74.18-1.04.18-.27-.31-.97.04-1.08-.35.09-.21.5-.35.27-.3-.04,0-.59-.82-.56-.85,1.17-.9,3.1-2.99,2.31-2.35-.21-.24-1.09-.05-1.51-.03-1.12-1.03-1.98-2.5-3.71-2.01.45.46.69.78.95,1.43-1.25.17-1.65.81-2.92.4-.62,1.1-.06,2.74,1.03,2.93.63.4,1.81-1.35,1.86.02-.14.08.27.96.17,1.07-.17-.05-.28-.89-.17-.79-.04-.02-.31.12-.76.33.31.37-.07,1.25.33,1.69-.16-.02.41-.69.28-.66-.87.22-1.34.03-2.01.57.87,1.48,2.5.29,3.42,1.87.52-.6.75.06,1.33.28.14.13.6-.84.7-.86.12.08-.34,1.38-.22,1.44.19.19.75.26,1.01.26.04.01.65-.8.69-.78.56.73.97,1.81,1.72,1.91-.11-.45-.71-.76-.91-1.22.03-.01.87-.62.9-.63.62.27.96.45,1.6.15.03-.13.26-.33.24-.46.25.1.38.48.63.56-.05-.74-.94-1.44-1.43-1.91.86-.83,2.54-.6,3.24.45.27-.32.13-.71.11-1.14-.35-.12.09-.37-.14-.49,1.81-.81,1.91-2.09,1.54-3.66.32.26,4.94,1.99,2.69-.23-.2.17.37.54.21.74-.07-.09.03-.83.06-1.03.06-.08-.04-.25-.06-.38.36-1.37,1.48-3.8-.89-2.8-.28.12-.31.87-.46,1.07-.64.02-1.81.45-2.66.35.36-.11.64-.79-.25-.39-.12-.05-.2.04-.32-.08-.4-.96.44-1.2.87-1.22-.28-.36-1.02-.93-1.47-1.36-.06-.26-.3-.78-.34-1,.49-.08.89-.26,1.48-.11.06-.56-.63-.46-.53-.9-.55-.91-1.77.36-2.79.93-.04-.03.38-1.01.36-1.07-.04-.08-.2-.59-.21-.68.06-.05-.55.43-.47.41.18.07.59-.79.78-.61-.04-.15-.09.48-.11.35.68.06.82-.37,1.19-1.21-.08-.22.59-.06.43-.34.36-.06.09-.76.54-.83,2.04-.29,1.1-.28.62-2.15.85-.27,2.17,1.32,2.97,1.81.14-.79-1.29-2.66-1.81-3.59.12,0,.23-.04.37-.04.5.11,1.16-.29,1.61-.42,1.81.25,4.47,1.69,4.68,1.77-.07-.28,1.98-2.15,2.11-2.02-1.54,1.04,3.22-.37,2.6-1.11-.36-.08-1.03-.13-.88.25-.17-.01.34-2.2.76-2.43-.05.22.31.56.39.88,1.21-.27,1.06-1.05.79-1.62.29.45.44.68,1.47.04-1.24-2.21.47-4.54-.72-6.8-.46.28-1.31-.18-1.44-.69,1.99-.35,1.06-1.46-.48-2.07-.05-.05-.19.17-.28.18-.76-.24-1.98-.91-2.52-.3,0,0-.04-.28-.1-.21-.21.1-.68.56-1.01.94,0,0,1.36.96,1.36.96.23-.42-.54-1.01-.54-1.06-.03-.01-.42-1.2-.87-1.44,1.25.01,4.23.38,6.58-.63.17-.03-.07-.48.08-.51.25.41.45,1.48.83,1.72,1.32.84,1.17-.73,1.29-.95.26-.46-.22-1.49.15-1.84.1.03.19.08.41-.24,0,0,0-.16,0-.17.43-.34,1.28-.13,1.77-.48.35-.15.67-.26.73-.25-.47.48.21.46,1.07.44-.83.33.08,1.75-.07,2.79-.09-.12-.93-.39-.98-.43-.13-.87-1.36-1.01-2.25.09.42.41.93,1.72,1.87,2.27-.11,1.4-1.57.32-1.6.36.42.4-.98,2.62-.97,2.67.52-.12,3.28.73,3.56,1.07-.76,1.07,3.37,4.27,3.61,3.86-.73.74-.18.44-1.33,1.04.67,1.27.95-.03.76,1.29-.22.1.88.45.88.71,0,.61.42,1.95.75,2.52.35-.66.4-2.14.87-2.8.93,1.01,1.04,1.53,2.18,1.58.63.65,1.39,1.2,1.31,1.05.4-.09.77-.86,1.15-.99.36.61.17,1.05,1.29.89.82-.12,1.52-1.1,2.59-.18.14-.04-.02.14.13.16,1.06,1.55,2.35,1.13,1.69-.58-.11-.28.57-1.44,0-1.85.31.1.93.73,1.23.98-.31-.78-1.51-2-1.34-2.82.33.54,1.49,3.58,2.48,4.27.88.83,3.21.42,2.94-1.33-.09-.59-1-1.02-1.48-1.5.02-.08.23-.56.16-.64-.04.02-.1.19-.13.21-.09-.11.16-.08.13-.19,0-.11.38.02.38-.09.06-.23-.77-1.52-.34-1.8.22.15.79,1.27.99,1.37.67-.96,0-2.26-.56-2.87-.14-.15-.58.05-.8-.17-.04-2.02.31-3.82.04-4.6.75-2.72,5.8,1.77,5.35-2.7.83.26,2.84.31,3.66.79-.48-1.82-2.8-.6-2.2-2.51.26.49.89.64,1.46.68-.07-.1-.17-.65-.33-1.39.1-.14.15.17.19-.03.11.18-.46.21-.31.56.13.52.82.52,1,.44.39.96.78,1.41,1.38,1.38.28-.01.82.15,1.03-.07,1.26,1.71,2.32,3.33,3.21,4.84.04.24-.31.54-.27.83.1.91-.14,3.42,1.12,2.35.23-.2.58-.06.6-.43,1.12-.68,2.06-1.61,2.98-1.05.55,1.02-.33,3.18.52,4.15.62-.28.17-1.54,0-2.09.03-.06.88-.38.9-.43.71.54,1.83.94,2.73,1.47.44-.95.12-2.51-.58-2.79-.41-.75-.9-1.75-.92-2.01.54.63,1.3,2.98,2.48,1.93-.21-1.05-.35-3.45-.21-5.61.25-.02,0,.52.18.56.32.08,1.06-.08,1.08-.08.91-.06,1.39-.67,1.09-1.65-.23-.74-2.08-1.02-2.84-1.74.1-.89.6-1.44.69-1.88.59.46.84,1.06,1.55,1.22.06-.33-.05-.99.08-1.36.29-.57,1.33-1.24,1.26-2.19.12-.12-.35-.22-.36-.14.1-.92-.39-1.67-1.23-2.01-.22-.82.12-2.1-.2-2.93-.05-.23-.34-.19-.35-.43-.05.07.37-.57.32-.48-.05-.13.31.37.26.25,0-.21-.28-.72-.41-.73-.12-.28-.61-.15-.74-.41.07-.28.1-.39.25-.65,1.09.14,1.51-1.28,1.04-1.81.15,0-.1.45-.05.5.05-.48-.77-1.34-1.19-2.2.02-1.38-2.1-3.07-2.68-3.9ZM65.76,63.5s.01-.17.01-.19c.02.02.52.16.53.18-.02,0-.53,0-.54.01ZM80.04,84.33s-.1-.08-.1-.08c0,0,.23-.4.23-.41,0,0-.13.48-.13.49ZM76.98,75.24s-.09-.17-.11-.2c.12-.04.68.29.71.32-.08.05-.55-.16-.6-.13ZM93.45,86.24c.07-.07.23-.22.31-.27-.05.07-.22.22-.31.27Z"/>
        </g>
        <g class="cls-3">
          <path class="cls-2" d="M147.83,83.5c.6-.98.37-9.07-1.78-12.23-4.77,3.32-2.42,16.51-.77,22.41,1.14-.41,1.95-6.62,2.92-5.42-.96.04-1.25-.33-.87-1.11.52.1,1.01.28,1.48.56-.18-1.01-.32-3.3-.97-4.2.09-.14.51.7,0,0Z"/>
          <path class="cls-2" d="M143.81,71.76c-.55.27-.65,2.13.23,2.32.81-4.68.13-4.04-.83-8,1.26-.04,1.88.96,2.59.45-.52-.49-1.08-.93-1.68-1.31.55-.03,1.1-.05,1.65-.07-.61-3.23-3.84-3.6-3.01-6.69-1.36-1.91-2.45,2.36-1.91,1.85-1.69-.98-2.85-7.15-6.98-7.35,1.41,6.2,8.44,14.42,9.94,18.8.02,0-.03-.07,0,0Z"/>
          <path class="cls-2" d="M120.69,68.4c-2.08,3.82,5.27,10.52,6.95,5.36.4.74,1,1.23,1.83,1.46.14-.36,1.28-3.11,1.58-3.33,3.74,4.95,3.03-11.09-1.07-6.19.43-3.16-4.25-10.73-8.64-8.87.53,1.03,1.35,1.68,2.47,1.95-.37.24-.73.48-1.1.73,2.52-.02,3.98,3.64,3.47,5.98,1.07.1-3.99-2.76-2.81-1.4-.05-1.3.17-2.61.05-3.96-.07.02-2.55,1.4-2.31.88.64,1.22,1.14,2.5,1.52,3.83-.51.29-2.53-2.83-2.79-.93-.08.58-4.02,5.28.85,4.49-.9,1.65-1.28.21,0,0Z"/>
          <path class="cls-2" d="M136.5,79.52c.12-.03.28,4.51.3,4.48-1.16.78-2.03.43-2.59-1.04-.99,1.41,2.71,5.67-.98,5.29-1.68-5.91-8.22-2.01-10.57-4.52.28-.18,1.41-.75,1.08-1.28-.94,2.23-2.71-.7-3.15,1.14-.2-.28,2.29,5.33,1.4,5.96-.28-.36-.65-.53-1.11-.52.42-.6.65-1.26.69-1.99.02.06-2.78,4.72-2.69,5.38.39-.15.78-.31,1.16-.47-2.87-3.24-.44-2.29.22-7.63-.9.68-1.25.66-1.06-.08-1.46.63-2.89,1.32-4.3,2.06.76-.33,1.27-.88,1.54-1.66-1.86-.05-1.33-.34-1.12-2.32.89.49,1.8.51,2.73.06.24-.85-.07-1.45-.91-1.81.6-.12,1.91.28,2.55-.97-1.45-.49-4.44-1.11-4.67-4.06-1.1-.06-1.79.44-2.1,1.49.89-.15-1.11-4.91-1.08-5.41-1.28.04-5.02.65-3.89,3.13-1.27-1.95-2.24,1.03-2.16,1.87-1.31-.93-3.5-2.49-4.25-3.12-.67-.56-1.48-5.25-2.76-3.64-.13-4.1,1.56-4.34-1.71-7.25,1.6-1.1,1.16-3.75-1.77-4-.28,3.01,1.08,1.32-1.25,2.14.13-.95.64-1.61,1.5-2.01-1.9,1.19-2.59.49-2.07-2.08-5.24-.14,4.14.74-.44-1.47-1.41.93-2.62,2.08-3.63,3.46-.85-2.95-2.72-.79-2.76-3.22-.13,1.43-.83,2.38-2.11,2.84-.38-1.24-.06-2.28.93-3.14-8.23,2.06.09-2.45-2.91-2.92.02.71-2.19,3.72-1.9,3.27-2.28-.25-5.99,1.86-7.54,2.06,3.05-.4.13,7.36.1,7.26.22-.07.4-.2.54-.38-.44.71-.21.99.68.85.04-.08-1.51,1.34-1.55.81.09,1.33,2.23.94-.06,1.86.63-.97,1.32-.15,2.07,2.46-1.15,0-2.89.2-3,1.88.03-.46,4.08,5.76,4.17,5.79-2.45-.42-5.94,1.89-2.95,4.14,1.54-2.18,2.81-1.21,4.4-1.47.17,3.21-3.13.64.21,5.31,0-3.79,2.84-2.31,4.81-2.29-.68.41-1.43.62-2.23.64,1.99,1.08,2.25,2.11.78,3.1-1.9-.77-.85-2.42-2.46-.12-1.58-1.56-.9-1.79-2.67-1.76-1.29-1.36-.99-2.47-.84-3.54-.52.38-1.09.56-1.43.82-.56-.45-4.52-2.69-5.6-2.47,3.49,1.6-1.36,2.85-1.66,2.99.55,1.33,1.63,4.22.67,3.51.8-.1-.01.25-.15-.36-.28,2-.33,2.49-.16,1.48-.64-.23-2.12,2.3-2.24.07-1.47-.18-2.57-.4-3.76-1.21.81-1.14,1.57-2.31,2.29-3.51-1.75,2.22-3.16,2.62-4.24,1.19,1.01-1.24,7.51-3.26,6.29-5.53.58-.5-4.53-1.75-4.55-1.77-3.49-4.73-1.54.25-1.72-5.71-.12-3.87,3.45-5.96,2.08-11.17-2.8,1.45-.95,3.97-2.73,5.27-1.06-1.98-1.56-8.77.72-8.81-.79-.39.14.16.12-.05-.29-.66-.76-1-1.41-1.02.58-.02.67.18.29.6,1.23-.51-2.59-7.77-3.02-8.36-.01,1.21-.45,2.21-1.32,3-.14.08-.13-4.66-1.76-3.96-.08.38,1.38,2.54,1.29,3.09-.5,0-.99.02-1.49.07.57.48.48,3.52-.93,2.54,5.54-6.28-5.92-4.94-5.14-4.44.98.47,2.02.73,3.1.78-.25-1.32-5.09,1.9-5.74,2.93-.07-.25-1.88-3.89-2.77-3.9-1.37-.01-.56,2.17-.55,2.59.51,1.16-4.37-1.97-4.03-2.24-1.94,1.57-.4,11.2-1.33,11.49-.01-1.93-.43-3.75-1.26-5.48.74,1.78.49,3.05-.74,3.81.19-1.5-.28-1.67-1.41-.53,0,0,.96,2.62,1.47,2.21-5.69-4.85-.83,3.03-1.38,3.93-.52-.7-1.32-2.99-2.99-2.34-.04.02.25,1.96-.1,2.56,1.47-.02,2.87-1.71,2.01,1.75-1.69-.23-1.47-1.74-3.43-2.06.24-.17.19-.07-.14.29,2.82-4.4.17-10.53,1.95-13.18,1.04.48,4.55-3.7,4.96,1.4,1.76-1.35-.73-5.36-.71-6.93,0-.51,7.24-3.29-.47-.98.63-.34.56-.18-.21.47,7.95-.3-7.27-2.52-4.14-.52-.01-1.41.63-2.44,1.92-3.08-2.01.81-.72-4.56.46-6.72-5.73,6.8-8.97,16.65-13.64,23.02-.33-.27-.67-.53-1-.8-.93,1.37.2,6.82-.74,7.77-.88-.08-1.39-.48-1.54-1.21.06-.32,2.2-1.24,1.41-.25-.33-.41-.65-.82-.97-1.23-.05-.27-.85,7.05.31,6.64-.13-.43-.26-.86-.39-1.29.77,1.78,1.68,1.4,2.74-1.14.73-.43-.05,5.48.28,5.17-1.39-1.86,1.53,1.66.42,3.58-2.06.61-2.07-5.94-2.78-3.07-.76-1.45-1.41-2.95-1.95-4.5.56,1.78.17,2.21-1.15,1.29.05.24-.32,8.81-.22,8.81.03-.48.1-.95.23-1.41.32-.08-2.82,10.46-2.44,11.18-.44-.85,1.29,3.06.97,2.74-.16-1.67.2.29-.55-.78-2.19,1.78,7.66,22.55,7.44,23.55.88-.03.44-.16,1.24-1.3,2.91,4.66,1.12,3.61-.52,3.53.45.16.91.31,1.36.47-.54.06-.9.38-1.06.98-.41.08,8.97,7.81,9.07,8.04-.81-.94-1.5-1.97-2.07-3.09,1.24-.57,2.27,2.61,3.16,3.03-.97.01-.98-.4-.03-1.24.61,1.3-1.73,4.36,0,5.21.82-1.83,2.2.81,3.71,1.94-.18-.95-.97-5.01-1.24-5.72,3.61,1.3,4.57,1.11,8.08,4.63-3.37-3.38-.07,6.46.04,6.7,1.92,4.22,4.05,5.73,7.52,7.75-1.59-2.11,1.63.41,3.37.53-.07-3.01.15-2.79.47-4.34-.07.33,3.22-1.74,1.64-3-.72.19-1.42.44-2.11.72-1.45-1.61-1.05-2.51,1.22-2.7-.1-.9-8.04,1-6.26-2.43.48-.93,3.99-2.34,5-1.62.1-2.46-2.64.06.18-1.22-.53-1.86-3.66-2.74-.61-1.39-.17-.9-.13-1.78.13-2.64,2.43.62,4.52,5.01,2.57,6.41,1.37-.99,4.1.15,5.13,1.51-.28.91-.87,1.54-1.77,1.89-1.9-2.1-.13-.95-.83-2.5,2.58,1.48,1.93,4.56,4.56,5.76.52.24,11.53.48,12.93-1.15-1.69.77,1.13-4.35.85-4.03-.97.14-1.76.6-2.39,1.37,1.25,1.47-.67-10.42-.17-8.44,0,.04-5.04-1.07-5.74-1.44,1.24-.27,2.43-.68,3.58-1.22.39-1.38-1.83-.74-2.4-1.39.76-.53-4.36-8.33-6.62-7.43-.56,1.3-.27,2.15.88,2.56-1.72,4.31.36,4.05.84,8.43-.44-4-13.03-5.89-12.42-10.6,4.57-.79,2.47-5.26-.76-7.35.38.88.94,1.59,1.67,2.13-2.31,1.13-.84-1.44-3.12-.89.25,5.39,2.21.87-.61,1.2-.54.79-.33,1.42.61,1.89-2.62,1.66-11.73-7.83-8-5.78-.34-.87-.99-1.3-1.94-1.28.43-1,1.18-1.56,2.26-1.68-.31-3.08-3.35.85-3.52,1.6.48-.52-4.04.46-3.77.65-.44-1.1-.05-1.8,1.18-2.08-.82-.35-4.01.1-4.63-.72.86-.59,1.62-1.3,2.27-2.13-1.69,1.06-2.88.79-3.54-.81,2.98-1.18-.44.31-.09-.95.85.49,1.7.5,2.55.02-.68-1.38-1.14-2.83-1.37-4.35.79.67,1.64,1.21,2.58,1.62.54-1.1.89-2.26,1.05-3.48,1.59,2.8,1.29,6.32,3.54,8.16.75.61,7.18,1.12,6.91-.58.15.3-4.43-.57-4.58-.58.12-.06,1.83-.86,1.86-.94.55-1.45-2.92-.59-3.16-.62-.08-2.92,1.98-.43.81-3.97-.49-1.48-1.33-1.9-2.7-4.41,2.92,3.39.62-3.42,1.69-2.51-.63-1.49,2.52,1.02,2.96,1.75.93-.92,1.72-1.96,2.36-3.11.04,1.19-.07,1.13-.32-.21-.12.05,2.61,1.43,2.06.51.08-3.52-3.12,3.32-1.43-2.8-.16,1.1-.19.99-.08-.34.15.45,4.72,4.81,5.74,3.89,0,0-1.24-5.33-2.93-3.67.36-1.48,1.17-2.66,2.41-3.55.35,3.86,1.81,6.95,1.68,10.65.65.59,2.8-4.05.79-4.52-.01.64.08,1.27.28,1.87-.67-.05-1.34-.03-2,.04.04-1.62.5-3.1,1.37-4.44-.1.99.18,1.82.84,2.51-.13-1.76.07-3.52-.14-5.29.74,1.28.96,2.61.64,4.02,3.21-1.78.39,3.62,1.39,3.07-.17-1.72,3.26-2.26,1.45-4.28.76.54,1.15.28,1.19-.8.03.18.22,6.78,2.86,4.18.18-2.32.43-2.97,1-5.09-.9.27-.6,4.98-.36,4.93-1.08,2.08.6.06-.07,2.37-.95-.22-1.87-.53-2.76-.95.95,1.86,5.33,2.52,4.35.26-.14.04,2.4,1.32-.53,2.54.63.31.54,4.26.54,5.01-3.79,1.11,1.56,4.46-2.03,5.83.57.39,1.06.87,1.47,1.44-.86.24-1.72.5-2.57.78-.41-.99-1.31-2.39-.1-.7-.77,0-1.4-.31-1.88-.94.77-.81,1.08-1.87,3.09-2.51-.08-.23-3.65-3.78-4.04-3.82.99,2.36-1.16,2.06-2.46.97-2.49,2.05,2.72,4.18,1.36,4.87.73.56-2.62-3.61-.98.93,1.04-.81.52-1.05-1.55-.72.42,2.77,3.36,2.9,4.51,3.21.63.89-.32,2.55,1.91,3.81.3-2.26,1.45-1.73,2.82-.58-.25.8,1.01-6.15,2.17-.69.92-.51,3.11-3.2,3.27-4.37.7.82,1.53,1.46,2.48,1.94-.75-.16,1.13-2.02,1.83-3.62-2.26,5.19-7.25-7.88-3.03-4.72,1.07-2.07-2.99-1.2-3.05-1.2-.62-1.18,2.07-1.08.19-1.36,1.05,1.03,4.75-2.2,4.86-3.18.95.72,1.64,1.64,2.06,2.78.14-1.36.01-2.69-.37-4,.13.04,11.64,4.36,11.03,2.5,4.43,3.14,4.19-18.19,1.46-11.08.13-.11-.24-2.65-.4-2.84,2.26.94,4.76,1.03,6.49,1.39-.48,1.44-.09,2.19,1.17,2.24,2.68-2.65,1.77-2.85,5.16-1.57-.68.7-1.03,1.55-1.06,2.56-.31-1.18-1.78-2.11-2.83-1.5,2.29,5.15-1.88.9-2.54,4.66,1.35.22,5,7.05,4.79,7.22-1.8.81-1.42,2.96-1.01,5.56,4.25-3.73,4.82,4.38,9.83,4.64,2,.11.07-5.48,2.16-1.69-.3-1.02-.37-2.06-.21-3.11.27,1.6-.24,5.71,2.36,5.86,3.26.2-.85-7.2,2.21-3.7,2.54-1.71-1.89-5.08,2.52-7.68,1.29-.76,6.67,0,7.92,1.63-.78-.91-1.16-1.96-1.12-3.15.41,3.56,1.53-.28,1.48-.2.2,1.03,2.68,8.72,2.93,9.3,1.81,4.15,1.11-.58,3.7,2.86-.48,1.31-.82,2.66-1.01,4.05,2.65-.11-.95-5.7,3.68.37,1.61-1.56-.23-3.19.35-5.01-.19,1.38.34,2.28,1.58,2.71.42-1.83,1.02-3.59,1.81-5.29-.18-.06,2.32,3.26,2.56-.22-.54-.98-1.19-1.86-1.97-2.66,0-.01,7.78-9.13,6.8-11.8-.1-.04-1.21-5.07-1.58-6.64-.08.02.23.98,0,0ZM73.96,64.78c.11-.18,1.1.35,0,0,.01-.02.02,0,0,0ZM79.55,89.4c-.59-.24,1.4-.62,0,0,0,0,0,0,0,0ZM80.01,79.83c.03.24.94-.16,0,0,0-.03.06,0,0,0ZM91.12,96.11c.09-.04.29-.12.38-.14-.07.05-.28.13-.38.14Z"/>
        </g>
      </g>
    </g>
  </g>
</svg>